{"glyphs":{"0":{"ha":708,"x_min":49,"x_max":669,"o":"m 297 -17 q 115 63 182 -17 q 49 275 49 143 q 158 578 49 456 q 422 701 267 701 q 602 622 535 701 q 669 413 669 542 q 561 108 669 232 q 297 -17 453 -17 m 129 324 q 129 268 129 324 q 185 151 129 213 q 342 89 240 89 q 515 165 443 89 q 588 352 588 242 q 531 526 588 463 q 372 589 474 589 q 199 512 269 589 q 129 324 129 435 z "},"1":{"ha":472,"x_min":25,"x_max":394,"o":"m 94 656 q 385 701 131 656 l 390 678 q 349 631 361 654 q 326 561 336 608 q 265 136 265 183 q 278 75 265 89 q 322 61 290 61 l 393 65 l 394 60 l 375 -4 q 214 0 263 0 q 25 -17 136 0 l 40 47 q 142 84 115 54 q 179 206 169 114 q 221 558 221 540 q 157 601 221 601 l 85 593 l 82 597 l 94 656 z "},"2":{"ha":633,"x_min":-1,"x_max":594,"o":"m 382 524 q 359 586 382 564 q 293 608 336 608 q 201 575 250 608 q 117 485 153 542 l 104 485 l 96 547 q 209 658 139 614 q 349 701 279 701 q 463 662 418 701 q 508 554 508 622 q 442 396 508 486 q 171 94 376 306 l 175 85 l 374 85 q 478 108 447 85 q 538 211 508 132 l 594 218 q 529 0 553 101 l 513 -10 q 83 0 199 0 l 8 -17 l -1 8 l 118 131 q 382 524 382 400 z "},"3":{"ha":556,"x_min":-18,"x_max":476,"o":"m 97 -49 q 278 10 203 -49 q 354 151 354 68 q 135 276 354 275 l 128 283 l 128 332 l 217 354 q 317 431 278 383 q 357 523 357 479 q 331 590 357 567 q 265 614 306 614 q 106 543 183 614 l 92 543 l 85 601 q 312 701 232 701 q 434 664 392 701 q 476 565 476 626 q 429 445 476 503 q 304 349 382 388 l 303 342 q 464 186 464 301 q 400 34 464 113 q 240 -95 336 -44 q 57 -146 144 -146 q -3 -125 11 -146 q -18 -81 -18 -104 q -17 -44 -18 -58 l -8 -36 q 97 -49 46 -49 z "},"4":{"ha":599,"x_min":-17,"x_max":547,"o":"m 426 700 l 432 701 l 476 688 l 417 199 l 540 199 l 547 188 l 526 111 q 407 115 478 113 l 388 -119 l 379 -129 l 279 -146 l 272 -133 q 311 118 296 10 q -17 124 106 124 q -11 149 -15 132 q -6 175 -7 167 l 426 700 m 347 510 l 97 199 l 321 199 l 360 510 l 347 510 z "},"5":{"ha":574,"x_min":-24,"x_max":563,"o":"m 395 328 q 434 304 395 328 q 472 196 472 279 q 402 31 472 113 q 233 -98 332 -50 q 50 -146 135 -146 q -8 -127 8 -146 q -24 -83 -24 -108 q -22 -44 -24 -58 l -14 -36 q 93 -49 40 -49 q 283 8 206 -49 q 361 151 361 64 q 303 249 361 213 q 104 311 246 285 l 94 326 l 158 665 l 171 676 l 425 688 q 483 701 464 690 q 515 742 501 711 l 563 747 l 510 583 l 500 575 q 211 586 365 586 l 181 407 q 395 328 318 378 z "},"6":{"ha":607,"x_min":46,"x_max":579,"o":"m 351 478 q 502 416 449 478 q 556 272 556 354 q 468 69 556 156 q 254 -17 381 -17 q 101 53 157 -17 q 46 223 46 122 q 74 406 46 324 q 148 547 103 488 q 248 655 193 606 q 358 736 303 704 q 533 822 475 803 l 561 831 l 569 824 l 579 782 q 476 731 535 765 q 372 657 418 696 q 273 551 325 618 q 192 408 221 485 l 196 406 q 351 478 314 478 m 449 228 q 449 265 449 228 q 410 349 449 303 q 309 396 372 396 q 171 344 246 396 q 156 238 156 281 q 190 101 156 151 q 292 50 225 50 q 404 101 360 50 q 449 228 449 153 z "},"7":{"ha":561,"x_min":67,"x_max":600,"o":"m 292 685 l 574 685 l 600 646 q 221 -26 478 442 l 172 -146 l 163 -146 l 83 -121 l 74 -90 l 488 590 l 260 581 q 168 553 193 578 q 121 451 143 528 l 67 443 q 121 683 101 578 l 131 690 q 292 685 210 685 z "},"8":{"ha":647,"x_min":56,"x_max":592,"o":"m 56 153 q 256 401 56 307 q 132 578 132 476 q 212 755 132 679 q 403 831 292 831 q 537 788 482 831 q 592 665 592 744 q 433 443 592 525 q 568 252 568 361 q 478 63 568 143 q 263 -17 388 -17 q 115 28 174 -17 q 56 153 56 74 m 160 189 q 199 86 160 129 q 302 43 239 43 q 416 90 365 43 q 467 204 467 138 q 418 303 467 263 q 341 355 376 336 q 301 376 306 374 q 160 189 160 317 m 386 468 q 485 639 485 525 q 453 733 485 700 q 368 767 422 767 q 274 726 314 767 q 235 631 235 686 q 278 542 235 576 q 386 468 321 507 z "},"9":{"ha":607,"x_min":36,"x_max":571,"o":"m 265 207 q 114 269 167 207 q 61 413 61 331 q 149 615 61 529 q 363 701 236 701 q 515 632 460 701 q 571 462 571 563 q 542 279 571 361 q 469 138 514 197 q 369 30 424 79 q 258 -51 314 -19 q 83 -136 142 -118 l 56 -146 l 47 -139 l 36 -97 q 139 -47 81 -81 q 244 26 197 -12 q 344 132 292 65 q 424 275 396 199 l 419 279 q 265 207 304 207 m 168 455 q 168 417 168 455 q 206 334 168 379 q 305 289 243 289 q 446 340 367 289 q 460 446 460 400 q 425 583 460 532 q 324 635 390 635 q 213 583 257 635 q 168 455 168 531 z "}," ":{"ha":267,"x_min":0,"x_max":0,"o":""},"!":{"ha":381,"x_min":50,"x_max":344,"o":"m 214 74 q 214 57 214 74 q 187 11 214 39 q 122 -17 160 -17 q 67 3 85 -17 q 50 58 50 24 q 77 120 50 92 q 141 149 104 149 q 196 129 178 149 q 214 74 214 110 m 139 292 l 204 925 l 217 939 l 333 964 l 344 949 l 193 290 l 153 281 l 139 292 z "},"\"":{"ha":399,"x_min":119,"x_max":419,"o":"m 246 901 l 254 890 q 171 596 217 738 l 133 576 l 119 579 q 149 882 140 703 l 246 901 m 411 901 l 419 890 q 336 596 382 738 l 299 576 l 283 579 q 313 882 304 703 l 411 901 z "},"#":{"ha":667,"x_min":14,"x_max":674,"o":"m 92 503 l 89 517 l 115 568 l 258 567 l 333 789 l 390 796 l 400 788 l 322 565 l 392 565 l 461 564 l 538 789 l 594 796 l 604 788 l 526 564 l 669 564 l 674 551 l 642 501 l 503 503 l 451 350 l 593 350 l 597 338 l 567 288 l 431 289 l 356 60 l 300 49 l 290 57 l 368 290 l 276 292 l 228 290 l 151 60 l 94 49 l 86 57 l 164 290 l 17 289 l 14 303 l 40 354 l 185 353 l 236 504 l 92 503 m 300 504 l 247 351 l 317 351 l 389 350 l 440 504 l 351 506 l 300 504 z "},"$":{"ha":594,"x_min":47,"x_max":574,"o":"m 469 486 q 481 564 481 531 q 397 636 481 631 l 346 400 q 490 304 451 342 q 528 214 528 267 q 453 57 528 119 q 257 -11 378 -6 l 215 -210 l 178 -214 l 172 -204 l 213 -12 q 51 24 129 -10 l 47 36 q 86 224 72 121 l 143 229 q 136 144 136 181 q 144 89 136 108 q 226 47 161 53 l 281 304 q 131 425 156 374 q 118 483 118 451 q 188 633 118 571 q 365 703 258 696 l 410 908 l 449 914 l 454 901 l 411 704 q 571 676 490 701 l 574 669 q 526 485 546 585 l 476 481 l 469 486 m 269 47 q 377 83 336 50 q 418 171 418 117 q 321 282 418 225 l 269 47 m 351 638 q 257 603 294 633 q 219 526 219 574 q 303 425 219 479 l 306 422 l 351 638 z "},"%":{"ha":899,"x_min":88,"x_max":875,"o":"m 154 668 q 154 637 154 668 q 190 574 154 606 q 276 542 225 542 q 367 573 326 542 q 408 671 408 604 q 376 774 408 738 q 285 810 343 810 q 190 770 226 810 q 154 668 154 731 m 254 453 q 133 505 179 453 q 88 638 88 557 q 151 826 88 750 q 301 901 214 901 q 433 849 389 901 q 476 722 476 796 q 416 533 476 614 q 254 453 356 453 m 553 199 q 553 167 553 199 q 588 104 553 136 q 674 72 624 72 q 765 103 724 72 q 806 202 806 135 q 774 305 806 269 q 683 340 742 340 q 589 301 625 340 q 553 199 553 261 m 653 -17 q 532 35 578 -17 q 486 168 486 88 q 549 356 486 281 q 700 432 613 432 q 831 379 788 432 q 875 253 875 326 q 815 64 875 144 q 653 -17 754 -17 m 808 915 l 815 896 q 451 340 574 536 l 153 -132 l 100 -106 l 93 -89 q 754 942 278 192 l 808 915 z "},"&":{"ha":833,"x_min":47,"x_max":971,"o":"m 319 644 q 399 619 371 644 q 428 553 428 593 q 408 482 428 513 l 414 479 q 706 867 675 667 l 713 874 l 739 874 q 769 754 769 792 q 700 651 769 735 q 510 478 631 567 q 136 242 389 389 q 217 112 156 158 q 377 65 278 65 q 552 135 476 65 q 654 328 628 204 l 582 339 q 488 258 560 339 l 481 258 l 449 286 l 449 293 l 563 421 l 585 428 q 710 410 610 428 q 839 393 811 393 q 932 474 857 393 l 942 474 l 971 446 l 971 439 l 858 311 l 836 301 l 731 317 q 575 78 689 172 q 330 -17 461 -17 q 123 67 199 -17 q 47 293 47 151 q 131 540 47 435 q 319 644 215 644 m 129 328 l 129 296 q 290 414 251 372 q 329 508 329 456 q 273 561 329 561 q 173 494 217 561 q 129 328 129 428 z "},"'":{"ha":235,"x_min":119,"x_max":254,"o":"m 246 901 l 254 890 q 171 596 217 738 l 133 576 l 119 579 q 149 882 140 703 l 246 901 z "},"(":{"ha":413,"x_min":94,"x_max":454,"o":"m 197 247 q 192 158 192 199 q 199 67 192 118 q 228 -31 206 17 q 317 -147 271 -115 l 335 -160 l 335 -167 l 300 -203 l 294 -203 q 287 -199 292 -201 q 265 -187 282 -197 q 235 -166 249 -178 q 200 -134 221 -154 q 165 -90 179 -114 q 133 -34 150 -67 q 108 36 115 -1 q 96 156 96 121 q 101 226 96 192 l 131 467 q 208 703 147 606 q 328 838 265 790 q 433 901 383 881 l 440 901 l 454 861 l 451 856 q 390 814 432 849 q 320 742 349 779 q 264 636 292 704 q 226 488 236 568 l 197 247 z "},")":{"ha":418,"x_min":-31,"x_max":329,"o":"m 226 451 q 232 536 232 496 q 224 631 232 576 q 194 729 217 686 q 106 847 144 821 l 88 858 l 89 865 l 122 901 l 128 901 q 135 898 131 900 q 157 886 140 896 q 188 865 174 876 q 222 833 201 853 q 258 789 243 813 q 290 733 272 765 q 314 661 307 700 q 328 544 328 582 q 322 472 328 507 l 292 232 q 214 -3 275 93 q 94 -139 157 -92 q -11 -203 39 -182 l -17 -203 l -31 -162 l -29 -157 q 32 -115 -10 -150 q 102 -43 74 -81 q 159 63 131 -6 q 197 211 188 131 l 226 451 z "},"*":{"ha":604,"x_min":147,"x_max":593,"o":"m 172 925 q 311 838 249 885 l 303 792 l 294 785 l 147 825 q 160 919 147 878 l 172 925 m 179 657 q 306 763 240 718 l 346 740 l 350 731 q 267 603 311 678 q 181 644 217 619 l 179 657 m 436 581 q 375 733 397 658 l 408 765 l 419 767 q 514 647 458 711 q 449 579 483 606 l 436 581 m 588 801 q 476 792 517 792 q 424 792 435 792 l 404 832 l 406 843 q 549 897 463 861 q 593 814 579 854 l 588 801 m 425 1014 q 385 856 410 929 l 338 849 l 329 854 l 322 1007 q 415 1024 372 1024 l 425 1014 z "},"+":{"ha":675,"x_min":28,"x_max":663,"o":"m 415 694 l 428 686 q 385 404 399 515 l 656 413 l 663 399 l 643 328 l 375 326 l 343 57 l 272 42 l 261 50 q 297 326 282 204 l 35 325 l 28 338 l 51 406 q 307 404 192 404 l 342 683 l 415 694 z "},",":{"ha":317,"x_min":-19,"x_max":200,"o":"m 49 101 q 128 138 96 138 q 180 109 160 138 q 200 19 200 81 q 142 -108 200 -43 q 6 -218 83 -172 l -19 -197 l -19 -183 q 60 -104 29 -150 q 90 -9 90 -58 q 46 82 90 40 l 49 101 z "},"-":{"ha":432,"x_min":47,"x_max":396,"o":"m 388 415 l 396 403 l 381 328 l 56 292 l 47 303 l 65 375 l 299 403 l 388 415 z "},".":{"ha":318,"x_min":47,"x_max":213,"o":"m 213 75 q 213 58 213 75 q 185 12 213 40 q 119 -17 157 -17 q 65 3 82 -17 q 47 58 47 24 q 75 120 47 92 q 140 149 103 149 q 194 129 176 149 q 213 75 213 110 z "},"/":{"ha":439,"x_min":-11,"x_max":471,"o":"m 463 938 l 471 924 q 64 -153 289 451 l -3 -153 l -11 -142 q 168 314 90 103 l 397 938 l 463 938 z "},":":{"ha":317,"x_min":42,"x_max":254,"o":"m 207 75 q 207 58 207 75 q 179 12 207 40 q 114 -17 151 -17 q 59 3 76 -17 q 42 58 42 24 q 69 120 42 92 q 134 149 97 149 q 189 129 171 149 q 207 75 207 110 m 254 464 q 254 447 254 464 q 226 401 254 429 q 161 372 199 372 q 106 392 124 372 q 89 447 89 413 q 117 509 89 481 q 181 538 144 538 q 236 518 218 538 q 254 464 254 499 z "},";":{"ha":317,"x_min":-26,"x_max":254,"o":"m 42 101 q 121 138 89 138 q 173 109 153 138 q 193 19 193 81 q 135 -108 193 -43 q -1 -218 76 -172 l -26 -197 l -26 -183 q 53 -104 22 -150 q 83 -9 83 -58 q 39 82 83 40 l 42 101 m 254 464 q 254 447 254 464 q 226 401 254 429 q 161 372 199 372 q 106 392 124 372 q 89 447 89 413 q 117 509 89 481 q 181 538 144 538 q 236 518 218 538 q 254 464 254 499 z "},"<":{"ha":672,"x_min":46,"x_max":635,"o":"m 56 332 l 46 347 l 57 413 l 342 532 l 621 644 l 632 638 l 635 568 q 364 467 479 514 l 151 383 l 150 375 l 360 278 l 586 168 l 586 153 l 538 97 q 304 215 407 167 l 56 332 z "},"=":{"ha":675,"x_min":15,"x_max":676,"o":"m 643 306 l 649 292 l 629 221 l 21 218 l 15 231 l 38 299 q 356 297 238 297 l 643 306 m 669 524 l 676 510 l 657 439 l 49 436 l 42 449 l 65 517 q 383 515 264 515 l 669 524 z "},">":{"ha":672,"x_min":53,"x_max":642,"o":"m 633 410 l 642 394 l 631 329 l 347 210 l 67 97 l 56 104 l 53 174 q 324 275 208 228 l 536 358 l 538 367 l 328 464 l 101 574 l 101 589 l 150 644 q 383 526 281 575 l 633 410 z "},"?":{"ha":481,"x_min":85,"x_max":496,"o":"m 397 710 q 149 869 397 853 l 147 885 l 201 958 l 221 964 q 417 900 338 960 q 496 753 496 840 q 439 597 496 656 q 384 549 407 567 q 310 500 361 531 q 239 456 260 469 l 233 443 l 244 311 l 239 300 l 151 276 l 140 282 l 129 449 l 135 468 l 306 574 q 397 710 397 632 m 249 74 q 249 57 249 74 q 222 11 249 39 q 157 -17 194 -17 q 102 3 119 -17 q 85 58 85 24 q 112 120 85 92 q 176 149 139 149 q 231 129 213 149 q 249 74 249 110 z "},"@":{"ha":1113,"x_min":33,"x_max":1097,"o":"m 650 -17 q 600 24 600 -17 q 660 313 600 39 l 651 315 q 392 -17 526 78 q 309 35 338 -17 q 281 186 281 86 q 329 396 281 286 q 451 572 378 506 q 599 639 525 639 l 738 617 l 750 651 l 757 653 l 800 632 l 811 615 q 694 81 731 339 l 700 75 q 924 160 847 75 q 1001 389 1001 244 q 890 672 1001 569 q 583 774 779 774 q 259 631 386 774 q 132 280 132 489 q 255 -73 132 71 q 622 -231 378 -217 l 622 -240 l 586 -290 q 179 -122 325 -278 q 33 261 33 33 q 76 481 33 375 q 193 670 118 588 q 381 802 268 753 q 626 851 494 851 q 965 728 833 851 q 1097 424 1097 606 q 978 113 1097 242 q 650 -17 860 -17 m 418 96 q 537 217 456 96 q 696 518 618 338 q 555 564 621 564 q 433 465 489 564 q 378 240 378 367 q 390 139 378 182 q 418 96 401 96 z "},"A":{"ha":767,"x_min":-62,"x_max":753,"o":"m 399 -14 l 396 -4 l 407 46 q 509 65 483 51 q 535 115 535 79 q 504 325 535 133 q 388 326 471 326 q 217 315 306 326 l 149 165 q 129 101 129 125 q 203 51 129 51 l 281 51 l 281 47 l 267 -10 q 83 0 172 0 l -62 -4 l -44 58 q 22 85 -4 63 q 75 167 47 108 l 419 876 l 497 900 l 508 901 q 633 154 569 475 q 667 81 643 101 q 750 54 692 61 l 753 50 l 738 -4 q 574 0 642 0 q 399 -14 507 0 m 367 376 q 493 385 432 376 l 432 756 l 422 756 l 249 376 l 367 376 z "},"B":{"ha":793,"x_min":40,"x_max":714,"o":"m 382 -14 l 192 0 q 40 -17 132 0 l 54 43 q 144 80 119 56 q 175 164 168 104 q 250 788 250 772 q 244 816 250 804 q 207 828 238 828 l 163 825 l 160 831 l 176 888 q 321 883 271 883 l 463 889 q 647 841 579 889 q 714 710 714 793 q 665 564 714 626 q 529 465 615 501 q 665 394 617 446 q 714 272 714 343 q 613 73 714 160 q 382 -14 513 -14 m 260 135 q 290 72 260 93 q 406 51 319 51 q 547 106 493 51 q 601 250 601 160 q 439 419 601 390 l 300 417 q 260 135 260 144 m 607 682 q 390 836 607 836 q 371 830 376 836 q 361 804 365 824 q 310 485 319 549 q 449 474 438 474 q 472 478 461 475 q 508 497 482 482 q 554 533 535 513 q 590 594 574 554 q 607 682 607 633 z "},"C":{"ha":839,"x_min":63,"x_max":824,"o":"m 693 39 q 424 -17 586 -17 q 163 83 263 -17 q 63 351 63 183 q 211 742 63 585 q 579 900 360 900 q 819 868 671 900 l 824 860 q 761 632 785 757 l 701 626 q 714 708 714 681 q 532 825 714 825 q 281 705 378 825 q 183 392 183 585 q 254 140 183 233 q 447 46 325 46 q 706 268 628 46 l 765 274 q 701 51 722 149 l 693 39 z "},"D":{"ha":938,"x_min":39,"x_max":907,"o":"m 397 -17 q 214 0 261 0 q 39 -17 136 0 l 54 43 q 143 80 118 56 q 175 163 168 104 q 250 788 250 772 q 244 816 250 804 q 208 828 238 828 l 161 825 l 160 831 l 175 888 q 314 883 263 883 l 503 889 q 794 787 682 889 q 907 531 907 685 q 838 253 907 378 q 652 56 769 129 q 397 -17 535 -17 m 414 828 q 376 822 386 828 q 364 797 367 815 q 265 149 265 181 q 299 69 265 90 q 424 49 333 49 q 688 172 588 49 q 788 494 788 296 q 692 741 788 654 q 414 828 596 828 z "},"E":{"ha":788,"x_min":40,"x_max":761,"o":"m 313 489 l 450 488 l 614 503 l 618 497 l 590 419 q 414 424 476 424 q 300 414 351 424 q 281 283 292 357 q 257 108 257 139 q 276 67 257 76 q 369 57 296 57 q 486 61 443 57 q 562 85 529 65 q 608 135 594 106 q 638 228 621 165 l 694 235 l 697 228 q 632 -3 658 114 l 625 -10 q 264 0 349 0 q 40 -14 135 0 l 56 46 q 142 78 117 54 q 174 163 167 103 q 250 788 250 772 q 244 816 250 804 q 207 828 238 828 l 161 825 l 160 829 l 175 888 q 459 883 278 883 q 758 900 640 883 l 761 893 q 703 665 726 793 l 642 660 q 654 755 654 714 q 619 808 654 796 q 487 819 583 819 q 376 812 390 819 q 356 765 361 804 l 313 489 z "},"F":{"ha":681,"x_min":40,"x_max":736,"o":"m 296 389 q 258 111 258 131 q 267 74 258 92 q 308 56 275 56 l 404 60 l 406 54 l 388 -6 q 211 0 261 0 q 40 -17 132 0 l 54 43 q 142 80 118 56 q 174 163 167 104 q 250 788 250 772 q 244 816 250 804 q 207 828 238 828 l 161 825 l 160 829 l 175 888 q 448 883 278 883 q 733 900 618 883 l 736 893 q 676 661 700 789 l 617 656 q 629 756 629 714 q 597 808 629 797 q 478 819 565 819 q 376 812 390 819 q 356 765 361 804 l 310 465 l 447 464 l 589 479 l 592 474 l 565 394 q 407 399 463 399 q 296 389 351 399 z "},"G":{"ha":889,"x_min":63,"x_max":824,"o":"m 519 421 l 649 415 l 683 415 l 799 422 l 800 394 q 742 260 758 367 q 725 101 725 154 l 726 60 l 718 49 q 583 3 665 22 q 426 -17 501 -17 q 163 83 263 -17 q 63 351 63 183 q 211 742 63 585 q 579 900 360 900 q 819 868 671 900 l 824 860 q 761 632 785 757 l 701 626 q 714 708 714 681 q 532 825 714 825 q 281 705 378 825 q 183 392 183 585 q 254 140 183 233 q 447 46 325 46 q 543 59 496 46 q 613 86 590 72 l 635 100 q 657 308 657 289 q 647 338 657 326 q 590 350 636 350 l 497 350 l 496 356 l 515 421 l 519 421 z "},"H":{"ha":1004,"x_min":39,"x_max":988,"o":"m 311 482 l 538 481 q 739 494 624 481 q 775 790 775 776 q 768 816 775 804 q 732 828 761 828 l 686 825 l 683 829 l 701 889 q 819 883 785 883 q 988 897 882 883 l 976 838 q 906 815 925 831 q 879 758 886 799 q 785 133 785 182 q 796 70 785 83 q 835 57 807 57 l 896 61 q 878 -4 897 60 q 713 0 771 0 l 669 0 q 565 -3 624 0 l 583 57 q 669 87 646 58 q 704 207 693 115 l 729 421 q 524 422 586 422 l 299 407 q 261 117 261 139 q 263 83 261 96 q 310 58 265 58 l 371 63 l 372 57 l 353 -4 q 269 0 353 0 q 113 -6 185 0 q 39 -17 40 -11 l 54 43 q 150 89 128 58 q 181 210 172 119 q 250 788 250 772 q 244 816 250 804 q 207 828 238 828 l 163 825 l 160 829 l 176 889 q 311 883 272 883 q 463 897 374 883 l 451 838 q 375 807 392 828 q 347 710 358 786 l 311 482 z "},"I":{"ha":481,"x_min":36,"x_max":475,"o":"m 171 889 l 297 883 l 322 883 q 475 897 378 883 l 461 838 q 383 814 404 831 q 356 758 361 797 q 258 118 258 194 q 270 72 258 85 q 310 58 282 58 l 381 63 l 383 57 l 364 -4 q 208 0 254 0 q 36 -17 131 0 l 53 43 q 142 81 117 56 q 175 164 168 106 q 250 787 250 771 q 243 815 250 803 q 207 828 236 828 l 150 825 q 149 829 149 828 l 165 889 l 171 889 z "},"J":{"ha":435,"x_min":-22,"x_max":439,"o":"m 158 158 q 236 787 236 771 q 229 815 236 803 q 193 826 222 826 l 128 821 l 128 825 l 143 883 l 286 883 l 439 896 l 428 838 q 363 816 379 831 q 340 758 347 801 q 250 164 297 503 q 172 -64 232 22 q -6 -199 111 -150 l -22 -154 l -18 -143 q 106 -29 69 -93 q 158 158 143 35 z "},"K":{"ha":835,"x_min":39,"x_max":867,"o":"m 175 164 q 250 788 250 772 q 244 816 250 804 q 207 828 238 828 l 163 825 l 160 829 l 176 889 q 308 883 271 883 q 463 897 374 883 l 451 838 q 379 813 400 831 q 351 754 358 794 l 261 151 q 257 108 257 128 q 265 74 257 89 q 310 58 274 58 l 371 63 l 374 57 l 353 -4 q 190 0 250 0 l 39 -1 l 60 58 q 146 85 124 65 q 175 164 168 104 m 664 793 q 585 832 664 826 l 582 838 l 599 894 q 743 883 693 883 l 864 889 l 867 881 l 853 826 q 785 798 817 819 q 685 713 753 776 l 438 471 l 626 164 q 703 72 668 99 q 783 46 738 46 l 788 42 l 775 -3 q 665 -19 679 -19 q 531 100 600 -19 l 336 438 l 339 456 l 614 718 q 664 793 664 767 z "},"L":{"ha":674,"x_min":53,"x_max":664,"o":"m 663 258 l 664 253 q 593 -6 625 129 l 586 -12 q 272 0 356 0 q 53 -14 142 0 l 69 46 q 144 79 122 54 q 174 163 167 104 q 250 787 250 771 q 243 815 250 803 q 207 828 236 828 l 161 825 q 160 829 160 828 l 176 889 q 313 883 276 883 q 463 897 374 883 l 451 839 q 378 810 393 829 q 344 689 364 792 q 293 373 325 586 q 261 122 261 160 q 281 70 261 83 q 367 57 301 57 q 526 91 485 57 q 604 253 568 125 l 663 258 z "},"M":{"ha":1129,"x_min":24,"x_max":1097,"o":"m 1096 892 l 1097 886 l 1085 839 q 999 815 1025 832 q 970 760 974 797 q 956 522 967 724 q 942 188 942 269 q 951 81 942 106 q 992 57 960 57 l 1029 60 q 1031 56 1029 58 l 1011 -4 q 897 0 935 0 q 750 -11 833 0 l 763 49 q 850 118 842 58 l 879 735 l 872 735 q 519 -18 742 449 l 490 -26 q 321 735 385 443 l 315 735 q 192 88 192 119 q 228 57 192 57 l 283 58 q 285 54 285 56 l 265 -6 q 147 0 182 0 q 24 -11 90 0 l 39 49 q 102 78 81 56 q 133 143 124 101 q 176 347 142 185 q 263 771 263 747 q 154 840 263 832 l 151 846 l 167 890 q 310 883 268 883 l 397 889 q 550 186 464 519 l 556 186 q 867 888 693 478 q 882 888 869 889 q 950 883 919 883 l 1096 892 z "},"N":{"ha":957,"x_min":47,"x_max":985,"o":"m 142 836 l 140 843 l 156 890 q 268 883 232 883 l 354 889 q 722 186 528 539 l 728 186 q 800 779 800 772 q 763 826 800 826 l 747 826 l 722 825 q 713 825 718 825 l 710 831 l 729 889 q 843 883 808 883 q 985 896 910 883 l 971 835 q 868 747 879 822 l 754 -39 l 719 -58 q 313 725 518 350 l 307 725 l 224 113 q 227 70 219 82 q 258 58 235 58 l 326 58 l 329 54 l 310 -6 q 171 0 229 0 l 47 -11 l 63 49 q 156 136 144 58 q 250 778 250 758 q 142 836 250 825 z "},"O":{"ha":924,"x_min":63,"x_max":894,"o":"m 432 49 q 676 170 579 49 q 774 463 774 292 q 702 728 774 633 q 511 824 631 824 q 272 701 368 824 q 176 408 176 578 q 247 144 176 239 q 432 49 317 49 m 397 -17 q 156 86 249 -17 q 63 353 63 189 q 206 739 63 578 q 551 900 350 900 q 799 797 703 900 q 894 531 894 693 q 748 144 894 304 q 397 -17 601 -17 z "},"P":{"ha":733,"x_min":47,"x_max":743,"o":"m 382 63 l 383 57 l 364 -4 q 277 0 364 0 q 120 -4 190 0 q 47 -11 50 -8 l 64 49 q 147 82 125 60 q 175 163 168 104 q 250 787 250 771 q 243 815 250 803 q 207 828 236 828 l 163 825 l 160 831 l 176 889 l 181 889 q 195 888 186 889 q 217 887 204 888 q 243 885 229 886 q 271 884 257 885 q 299 883 285 883 l 322 883 l 475 889 q 672 835 601 889 q 743 679 743 781 q 643 445 743 549 q 415 342 543 342 l 288 342 q 254 100 254 115 q 308 57 254 57 l 382 63 m 440 397 q 585 478 535 413 q 635 642 635 543 q 578 785 635 742 q 403 828 522 828 q 372 825 376 828 q 351 735 368 822 q 301 418 333 649 l 440 397 z "},"Q":{"ha":931,"x_min":63,"x_max":1022,"o":"m 515 -8 q 735 -153 646 -111 q 892 -196 824 -196 q 1013 -182 960 -196 l 1018 -185 l 1022 -206 q 889 -297 914 -297 q 701 -246 792 -297 q 399 -17 611 -194 l 397 -17 q 156 86 249 -17 q 63 353 63 189 q 206 739 63 578 q 551 900 350 900 q 799 797 703 900 q 894 517 894 693 q 787 192 894 340 q 515 0 679 44 l 515 -8 m 432 49 q 676 170 579 49 q 774 463 774 292 q 702 728 774 633 q 511 824 631 824 q 272 701 368 824 q 176 408 176 578 q 247 144 176 239 q 432 49 317 49 z "},"R":{"ha":813,"x_min":39,"x_max":782,"o":"m 294 383 q 260 110 260 136 q 267 74 260 85 q 346 54 282 54 l 347 50 l 329 -6 q 190 -1 253 -3 l 39 -6 l 58 54 q 145 82 122 61 q 175 163 168 103 q 250 786 250 769 q 243 815 250 803 q 207 828 236 828 l 163 825 l 160 831 l 176 889 q 322 883 272 883 l 471 889 q 655 837 585 889 q 725 695 725 785 q 669 530 725 606 q 507 407 614 454 l 625 160 q 691 67 658 93 q 778 42 724 42 l 782 38 l 769 -7 l 657 -22 q 590 14 624 -22 q 532 110 557 50 l 421 383 l 294 383 m 390 836 q 372 831 378 836 q 307 456 351 806 l 443 442 q 485 458 0 0 q 615 675 611 532 q 390 836 615 836 z "},"S":{"ha":704,"x_min":44,"x_max":669,"o":"m 267 -17 q 157 -6 211 -17 q 50 29 103 6 l 44 43 q 92 285 75 147 l 149 292 q 142 173 142 228 q 157 90 142 118 q 284 44 183 44 q 443 92 385 44 q 501 214 501 139 q 464 302 501 264 q 331 397 426 340 q 201 486 236 453 q 133 625 135 550 q 226 819 133 739 q 456 900 319 900 q 667 867 561 900 l 669 860 q 613 625 636 753 l 563 619 l 556 626 q 571 737 571 688 q 538 809 571 786 q 426 832 506 832 q 291 790 346 832 q 236 681 236 747 q 338 542 236 614 q 408 499 361 526 q 484 451 454 471 q 547 404 514 432 q 614 271 614 349 q 517 65 614 147 q 267 -17 419 -17 z "},"T":{"ha":726,"x_min":56,"x_max":763,"o":"m 763 890 q 754 742 754 794 l 754 663 l 693 657 q 691 728 692 706 q 681 774 690 750 q 664 806 672 799 q 627 822 656 813 q 572 832 599 831 q 488 836 546 833 q 423 452 467 738 q 379 128 379 167 q 394 74 379 90 q 444 57 410 57 l 521 61 l 524 56 l 504 -4 q 310 0 374 0 l 131 -6 l 147 50 q 265 86 242 60 q 303 225 289 113 l 376 836 q 285 832 313 833 q 224 822 257 831 q 181 807 190 814 q 156 776 171 800 q 135 731 140 751 q 117 663 129 711 l 56 657 q 104 890 86 775 l 118 900 l 224 885 l 638 885 l 751 900 l 763 890 z "},"U":{"ha":910,"x_min":113,"x_max":938,"o":"m 243 281 q 292 115 243 172 q 445 57 342 57 q 615 119 549 57 q 694 299 681 181 q 744 783 744 760 q 738 817 744 806 q 703 828 732 828 l 643 825 l 643 831 l 658 888 q 794 883 757 883 q 938 897 857 883 l 924 838 q 846 816 864 831 q 822 758 828 801 l 764 286 q 650 63 746 143 q 397 -17 554 -17 q 206 49 272 -17 q 140 231 140 114 q 144 292 140 263 q 204 788 204 771 q 197 816 204 804 q 160 828 190 828 l 114 825 l 113 831 l 129 888 q 264 883 226 883 q 417 897 328 883 l 404 838 q 335 815 354 831 q 308 758 315 799 l 247 350 q 243 281 243 313 z "},"V":{"ha":811,"x_min":53,"x_max":885,"o":"m 69 888 q 214 883 176 883 q 422 900 283 883 l 425 890 l 413 839 q 309 822 332 833 q 286 781 286 810 q 378 129 286 721 l 389 129 q 456 266 408 171 q 538 435 503 361 q 611 589 574 508 q 693 782 693 760 q 607 832 693 832 l 536 832 l 533 838 l 549 894 q 738 883 650 883 l 885 889 l 867 826 q 807 813 825 825 q 768 760 789 800 l 396 7 l 315 -24 q 169 747 240 375 q 54 826 156 825 l 53 832 l 69 888 z "},"W":{"ha":1240,"x_min":56,"x_max":1308,"o":"m 376 129 q 633 667 381 139 q 618 744 628 681 q 506 826 601 822 l 504 832 l 521 888 q 664 883 625 883 q 863 900 738 883 l 864 890 l 853 839 q 750 822 772 833 q 728 779 728 810 q 817 129 728 718 l 825 129 q 889 265 842 165 q 970 436 936 364 q 1043 592 1004 508 q 1124 789 1124 764 q 1038 832 1124 832 l 971 832 l 968 838 l 985 894 q 1168 883 1083 883 l 1308 889 l 1292 826 q 1235 812 1253 824 q 1197 760 1217 800 l 822 7 l 743 -24 l 649 576 l 640 576 l 378 7 l 296 -24 q 168 747 236 376 q 58 826 154 825 l 56 832 l 71 888 q 218 883 176 883 q 413 900 301 883 l 415 890 l 406 839 q 303 822 326 833 q 281 775 281 810 q 368 129 281 717 l 376 129 z "},"X":{"ha":871,"x_min":-19,"x_max":906,"o":"m 617 838 l 615 843 l 628 894 q 774 883 728 883 l 901 889 l 906 881 l 892 832 q 800 795 835 822 q 693 689 765 768 l 503 475 l 664 172 q 732 90 693 117 q 833 57 771 63 l 818 -4 q 654 0 715 0 l 449 -11 l 446 -1 l 457 49 q 569 103 569 54 q 550 161 569 119 l 435 394 l 285 221 q 216 135 232 160 q 200 89 200 110 q 272 51 200 57 l 275 47 l 258 -10 q 114 0 164 0 l -15 -6 l -19 4 l -6 57 q 104 117 53 74 q 236 250 156 161 l 407 439 l 264 718 q 94 833 213 818 l 94 839 l 107 889 q 292 883 239 883 q 478 896 400 883 l 481 886 l 471 840 q 358 789 358 832 q 475 519 358 757 q 557 615 490 539 q 690 800 690 768 q 617 838 690 829 z "},"Y":{"ha":711,"x_min":39,"x_max":811,"o":"m 379 840 q 292 824 313 835 q 271 789 271 813 q 378 422 271 740 l 383 422 l 576 725 q 606 799 606 769 q 526 838 606 832 l 524 843 l 539 894 q 683 883 639 883 l 807 889 l 811 881 l 796 832 q 706 795 733 821 q 642 715 678 769 q 420 383 424 390 q 412 361 417 376 q 403 336 407 346 q 397 302 400 326 q 392 264 393 278 q 372 112 372 136 q 376 78 372 88 q 421 57 385 57 l 486 61 l 489 56 l 469 -4 q 318 0 361 0 q 153 -17 244 0 l 168 43 q 260 87 239 58 q 290 196 282 115 q 299 317 299 275 q 278 418 299 360 q 170 728 174 719 q 160 755 167 738 q 151 776 154 772 q 140 792 147 781 q 128 806 133 803 q 113 815 122 808 q 94 824 104 822 q 71 829 83 826 q 42 833 58 832 l 39 839 l 54 889 q 183 883 136 883 q 388 896 278 883 l 390 886 l 379 840 z "},"Z":{"ha":756,"x_min":14,"x_max":761,"o":"m 621 18 l 599 -4 l 121 4 l 25 -4 l 14 39 l 610 828 l 374 819 q 238 776 282 818 q 169 626 193 733 l 108 621 q 165 888 147 761 l 181 900 l 413 885 l 751 875 l 761 836 q 147 50 465 486 l 424 60 q 542 117 493 61 q 629 292 592 172 l 689 299 q 621 18 643 150 z "},"[":{"ha":413,"x_min":68,"x_max":451,"o":"m 311 -190 l 68 -175 q 147 347 129 208 l 197 874 l 446 889 l 451 881 l 438 838 l 282 804 l 171 -106 l 321 -139 l 325 -149 l 311 -190 z "},"\\":{"ha":439,"x_min":124,"x_max":343,"o":"m 124 924 l 136 938 l 200 938 l 276 314 l 343 -142 l 333 -153 l 265 -153 q 124 924 215 249 z "},"]":{"ha":413,"x_min":-28,"x_max":356,"o":"m 113 889 l 356 874 q 276 351 294 490 l 226 -175 l -24 -190 l -28 -182 l -14 -139 l 142 -106 l 253 804 l 103 838 l 99 847 l 113 889 z "},"^":{"ha":674,"x_min":49,"x_max":578,"o":"m 406 668 l 419 657 q 578 121 472 464 l 518 79 l 503 81 q 365 565 429 331 l 357 565 l 121 82 l 53 92 l 49 104 q 190 383 122 257 l 339 665 l 406 668 z "},"_":{"ha":610,"x_min":-69,"x_max":565,"o":"m 546 -197 l -62 -200 l -69 -187 l -46 -119 q 33 -119 -6 -119 l 194 -121 l 274 -121 q 463 -117 368 -121 q 560 -112 558 -114 l 565 -126 l 546 -197 z "},"`":{"ha":531,"x_min":158,"x_max":433,"o":"m 160 917 l 158 932 l 211 989 l 225 992 q 433 753 333 861 l 406 726 l 393 724 q 160 917 300 810 z "},"a":{"ha":674,"x_min":-31,"x_max":650,"o":"m 433 244 l 322 246 q 206 238 276 246 l 156 131 q 140 85 140 101 q 197 49 140 49 l 257 49 l 257 44 l 246 -7 q 93 0 165 0 l -31 -3 l -15 53 q 36 73 15 56 q 78 133 57 90 l 351 685 l 444 704 l 454 703 q 557 128 507 357 q 584 70 565 86 q 647 50 603 54 l 650 46 l 638 -3 q 518 0 557 0 q 349 -10 456 0 l 346 -3 l 356 44 q 436 59 417 49 q 456 92 456 69 q 433 244 456 110 m 326 299 q 424 304 374 299 l 376 578 l 367 578 l 235 299 l 326 299 z "},"b":{"ha":692,"x_min":46,"x_max":619,"o":"m 339 -11 l 179 0 q 46 -12 121 0 l 58 42 q 129 70 110 51 q 154 135 149 89 q 211 608 211 596 q 206 629 211 619 q 178 639 201 639 l 142 638 l 138 643 l 153 694 q 279 690 239 690 l 407 696 q 562 658 506 696 q 618 550 618 619 q 471 364 618 429 q 580 308 540 347 q 619 214 619 268 q 537 55 619 121 q 339 -11 454 -11 m 243 114 q 267 68 243 83 q 358 53 290 53 q 467 92 425 53 q 508 196 508 131 q 383 321 508 299 l 272 318 q 243 114 243 121 m 513 528 q 344 640 513 640 q 328 636 332 640 q 282 385 319 626 q 391 376 381 375 q 410 379 401 376 q 438 394 418 382 q 472 421 457 406 q 513 528 513 461 z "},"c":{"ha":715,"x_min":65,"x_max":693,"o":"m 588 31 q 363 -12 497 -12 q 147 66 229 -12 q 65 278 65 144 q 184 584 65 464 q 486 704 303 704 q 689 678 572 704 l 693 669 q 642 483 661 586 l 578 478 q 588 544 588 524 q 447 632 588 632 q 256 543 329 632 q 183 321 183 454 q 237 119 183 188 q 385 51 290 51 q 582 218 524 51 l 646 224 q 596 42 613 121 l 588 31 z "},"d":{"ha":797,"x_min":46,"x_max":763,"o":"m 344 -12 q 192 0 233 0 q 46 -12 118 0 l 58 43 q 131 71 111 53 q 156 135 150 89 q 211 608 211 594 q 206 630 211 621 q 179 639 201 639 l 140 638 l 139 643 l 153 694 q 272 690 231 690 l 431 696 q 670 617 578 696 q 763 410 763 539 q 640 110 763 233 q 344 -12 518 -12 m 361 635 q 333 630 340 635 q 322 610 325 625 q 246 124 246 168 q 272 66 246 81 q 365 51 297 51 q 568 144 492 51 q 644 390 644 238 q 572 572 644 510 q 361 635 500 635 z "},"e":{"ha":678,"x_min":46,"x_max":649,"o":"m 283 388 l 393 386 l 526 397 l 531 392 l 507 321 q 367 324 415 324 q 272 317 318 324 q 258 224 267 275 q 240 99 240 125 q 256 65 240 72 q 318 57 271 57 q 478 78 442 57 q 538 188 514 100 l 596 193 l 599 186 q 546 0 568 94 l 539 -7 q 243 0 318 0 q 46 -11 129 0 l 60 44 q 128 69 108 50 q 154 136 147 89 q 211 608 211 594 q 206 630 211 621 q 178 639 201 639 l 142 638 l 139 643 l 153 694 q 394 690 246 690 q 646 704 543 690 l 649 697 q 601 513 621 613 l 539 508 q 549 580 549 549 q 520 620 549 611 q 418 629 492 629 q 333 623 344 629 q 317 589 321 617 l 283 388 z "},"f":{"ha":596,"x_min":46,"x_max":628,"o":"m 242 99 q 283 56 242 56 l 360 60 l 363 53 l 347 -4 q 197 0 240 0 q 46 -12 118 0 l 58 42 q 128 70 110 51 q 154 136 147 89 q 211 608 211 594 q 206 630 211 621 q 178 639 201 639 l 142 638 l 139 643 l 153 694 q 386 690 246 690 q 624 704 526 690 l 628 697 q 579 510 599 610 l 518 506 q 528 580 528 549 q 503 620 528 611 q 411 629 478 629 q 333 623 344 629 q 317 589 321 617 l 282 368 l 392 368 l 508 379 l 511 372 l 489 301 q 362 304 406 304 q 269 297 318 304 q 242 99 242 107 z "},"g":{"ha":757,"x_min":64,"x_max":693,"o":"m 492 333 l 547 332 l 575 332 q 672 338 672 332 l 674 310 q 624 203 638 288 q 611 79 611 118 l 613 46 l 604 36 q 365 -12 504 -12 q 145 65 226 -12 q 64 275 64 143 q 184 582 64 460 q 486 704 304 704 q 689 678 572 704 l 693 669 q 640 488 661 589 l 579 482 q 589 547 589 525 q 447 633 589 633 q 253 544 328 633 q 179 304 179 454 q 233 117 179 186 q 382 49 288 49 q 456 58 419 49 q 526 88 492 68 q 543 240 543 226 q 535 263 543 254 q 492 272 526 272 l 419 272 l 417 278 l 435 335 l 439 335 l 469 333 l 492 333 z "},"h":{"ha":853,"x_min":44,"x_max":832,"o":"m 282 383 l 457 382 q 613 392 529 382 q 640 611 640 601 q 635 630 640 621 q 604 639 629 639 l 568 638 l 565 643 l 579 694 q 696 690 579 690 l 832 701 l 822 647 q 764 629 779 642 q 743 586 749 617 q 671 115 671 156 q 680 63 671 74 q 711 53 689 53 l 758 56 q 760 51 760 53 l 744 -3 q 608 0 660 0 l 571 0 l 489 -1 l 474 -1 l 489 51 q 558 74 539 53 q 585 164 576 96 l 604 322 l 449 322 l 271 311 q 243 84 243 115 q 282 53 243 53 l 331 56 q 332 51 332 53 l 315 -3 q 210 0 254 0 q 106 -4 165 0 q 44 -12 46 -8 l 58 42 q 134 76 117 53 q 158 165 151 99 q 211 608 211 596 q 206 630 211 621 q 176 639 201 639 l 142 638 l 138 643 l 153 694 q 275 690 233 690 l 403 701 l 393 646 q 333 624 346 640 q 310 553 319 608 l 282 383 z "},"i":{"ha":426,"x_min":43,"x_max":413,"o":"m 144 694 l 279 690 l 413 701 l 400 646 q 339 628 356 640 q 317 586 322 617 q 242 99 242 163 q 282 53 242 53 l 338 56 l 340 51 l 324 -3 q 189 0 228 0 q 43 -12 118 0 l 57 42 q 128 71 108 51 q 154 135 149 90 q 211 608 211 596 q 206 629 211 619 q 176 639 201 639 l 132 638 q 131 643 131 642 l 144 694 z "},"j":{"ha":389,"x_min":-6,"x_max":385,"o":"m 142 126 q 200 608 200 596 q 195 630 200 621 q 167 639 190 639 l 114 635 l 113 640 l 126 690 l 249 692 l 385 700 l 374 646 q 322 630 335 640 q 304 586 310 619 q 233 122 261 335 q 167 -54 219 13 q 11 -158 114 -121 l -6 -121 l -3 -111 q 99 -22 69 -71 q 142 126 129 28 z "},"k":{"ha":725,"x_min":44,"x_max":739,"o":"m 154 135 q 211 608 211 596 q 206 630 211 621 q 176 639 201 639 l 142 638 l 138 643 l 153 694 q 279 690 240 690 l 404 701 l 393 646 q 335 626 351 640 q 313 582 318 613 l 243 126 q 240 94 240 110 q 247 65 240 78 q 282 53 254 53 l 331 56 l 333 51 l 317 -3 q 176 0 225 0 l 44 -1 l 63 51 q 131 74 114 58 q 154 135 149 89 m 517 553 q 557 614 557 590 q 494 642 557 638 l 492 647 l 506 699 q 629 690 588 690 l 736 696 l 739 688 l 726 639 q 668 612 696 631 q 586 543 640 593 l 401 369 l 547 138 q 607 67 579 88 q 672 44 635 46 l 676 39 l 665 -3 q 565 -15 579 -15 q 454 76 508 -15 l 300 342 l 303 358 l 517 553 z "},"l":{"ha":592,"x_min":54,"x_max":572,"o":"m 151 694 l 281 690 l 408 701 l 397 646 q 335 625 347 639 q 307 533 322 611 q 267 295 292 456 q 243 106 243 135 q 259 67 243 78 q 345 57 275 57 q 449 85 415 57 q 510 213 482 113 l 569 219 q 572 213 569 215 q 514 -3 540 110 l 507 -10 q 247 0 321 0 q 54 -11 135 0 l 69 44 q 131 70 113 51 q 154 136 149 89 q 211 608 211 594 q 206 630 211 621 q 176 639 200 639 l 140 638 l 138 643 l 151 694 z "},"m":{"ha":956,"x_min":33,"x_max":919,"o":"m 869 54 l 871 50 l 854 -3 q 765 0 792 0 q 720 -1 738 0 q 688 -3 703 -1 q 658 -6 672 -4 q 625 -8 643 -7 l 638 46 q 708 100 700 54 l 729 546 l 722 546 q 451 -12 535 161 l 414 -19 q 281 546 369 171 l 274 546 q 183 76 183 100 q 214 53 183 53 l 257 53 l 260 50 l 242 -4 q 131 0 167 0 l 33 -8 l 46 46 q 98 67 81 50 q 123 119 115 85 q 156 271 131 153 q 224 597 224 581 q 138 647 224 642 l 135 653 l 147 696 q 271 690 235 690 l 354 696 q 472 178 400 453 l 478 178 q 715 693 585 399 q 735 694 722 694 q 800 692 772 692 l 918 697 q 919 693 919 694 l 908 647 q 841 629 861 642 q 818 589 821 617 q 797 156 803 458 q 797 118 797 146 q 804 72 797 90 q 839 53 811 53 l 869 54 z "},"n":{"ha":819,"x_min":51,"x_max":831,"o":"m 664 603 q 632 639 664 639 l 592 638 l 589 643 l 606 696 q 717 690 678 690 l 831 700 l 819 644 q 736 576 746 635 l 647 -25 l 597 -40 q 279 531 446 249 l 272 531 l 213 97 q 217 63 210 72 q 243 53 224 53 l 296 53 l 300 49 l 283 -4 q 163 0 210 0 l 51 -8 l 65 46 q 140 114 133 54 q 214 599 214 583 q 126 644 214 636 q 124 651 124 650 l 136 696 q 238 690 201 690 l 317 696 q 606 178 449 444 l 611 178 q 664 603 664 597 z "},"o":{"ha":783,"x_min":65,"x_max":749,"o":"m 374 51 q 558 142 486 51 q 631 379 631 233 q 576 562 631 493 q 431 631 521 631 q 249 539 321 631 q 178 317 178 447 q 231 119 178 188 q 374 51 285 51 m 344 -12 q 142 67 219 -12 q 65 278 65 147 q 181 581 65 458 q 464 704 296 704 q 670 624 592 704 q 749 414 749 544 q 631 110 749 233 q 344 -12 514 -12 z "},"p":{"ha":640,"x_min":51,"x_max":639,"o":"m 342 56 q 343 51 343 53 l 326 -3 q 215 0 254 0 q 114 -3 175 0 q 51 -8 53 -6 l 65 46 q 131 72 114 54 q 154 135 149 89 q 211 607 211 594 q 206 629 211 619 q 178 639 201 639 l 142 638 l 138 643 l 153 694 q 276 690 219 690 l 410 696 q 579 650 519 696 q 639 526 639 604 q 556 341 639 422 q 367 260 474 260 l 263 260 q 239 85 239 97 q 283 53 239 53 l 342 56 m 532 504 q 353 635 532 635 q 328 633 332 635 q 275 331 317 625 l 383 315 q 532 504 532 340 z "},"q":{"ha":789,"x_min":65,"x_max":861,"o":"m 453 -3 q 751 -142 638 -142 q 851 -131 807 -142 l 857 -135 l 861 -160 q 740 -236 764 -236 q 590 -195 663 -236 q 344 -12 518 -154 q 142 67 219 -12 q 65 278 65 147 q 181 581 65 458 q 464 704 296 704 q 670 624 592 704 q 749 405 749 544 q 666 153 749 265 q 453 3 583 40 l 453 -3 m 374 51 q 558 142 486 51 q 631 379 631 233 q 576 562 631 493 q 431 631 521 631 q 249 539 321 631 q 178 317 178 447 q 231 119 178 188 q 374 51 285 51 z "},"r":{"ha":707,"x_min":44,"x_max":671,"o":"m 268 292 q 243 95 243 115 q 252 63 243 75 q 314 50 261 51 l 315 46 l 300 -4 q 178 -1 228 -1 l 44 -6 l 61 50 q 131 72 113 56 q 154 135 149 88 q 211 608 211 596 q 206 630 211 621 q 178 639 201 639 l 142 638 l 138 643 l 153 694 q 276 690 235 690 l 407 696 q 567 654 507 696 q 628 542 628 613 q 453 315 628 390 l 544 135 q 598 63 571 83 q 667 42 625 42 l 671 36 l 660 -6 l 558 -17 q 453 85 497 -17 l 367 292 l 268 292 m 519 521 q 343 640 519 640 q 328 636 333 640 q 279 360 314 621 l 388 349 q 464 392 446 372 q 494 428 482 411 q 519 521 519 464 z "},"s":{"ha":611,"x_min":47,"x_max":574,"o":"m 235 -12 q 74 14 140 -12 l 51 24 l 47 36 q 86 224 72 121 l 143 229 q 138 143 138 183 q 150 82 138 103 q 250 47 172 47 q 373 81 328 47 q 418 160 418 114 q 388 234 418 206 q 275 308 357 263 q 156 392 193 353 q 118 483 118 431 q 197 640 118 576 q 393 704 276 704 q 571 676 482 704 l 574 669 q 526 485 546 585 l 476 481 l 469 486 q 481 567 481 531 q 455 620 481 603 q 367 638 429 638 q 262 607 304 638 q 219 528 219 576 q 303 425 219 479 q 360 393 321 414 q 422 357 399 372 q 474 319 446 342 q 528 214 528 276 q 446 51 528 115 q 235 -12 364 -12 z "},"t":{"ha":633,"x_min":58,"x_max":650,"o":"m 343 108 q 397 53 343 53 l 458 56 l 461 51 l 444 -4 q 278 0 332 0 l 121 -6 l 135 47 q 231 74 213 54 q 261 176 250 94 l 318 639 q 185 625 210 636 q 119 503 147 607 l 58 497 q 97 694 83 600 l 110 704 l 201 692 l 542 692 l 640 704 l 650 694 l 642 503 l 581 497 q 556 617 579 599 q 425 639 532 636 q 376 353 410 565 q 343 108 343 142 z "},"u":{"ha":769,"x_min":101,"x_max":782,"o":"m 228 217 q 266 98 228 139 q 376 57 304 57 q 571 231 551 57 q 611 605 611 589 q 606 630 611 621 q 578 639 600 639 l 532 638 l 531 642 l 544 694 q 668 690 626 690 l 782 700 l 769 646 q 708 628 722 639 q 689 586 693 618 l 644 228 q 552 50 631 113 q 356 -12 474 -12 q 126 182 124 -12 q 129 225 125 201 q 175 603 175 588 q 169 629 175 619 q 140 639 164 639 l 103 638 l 101 642 l 117 694 q 246 690 200 690 l 365 700 l 354 646 q 299 628 314 640 q 278 585 283 615 l 231 268 q 228 217 228 250 z "},"v":{"ha":701,"x_min":58,"x_max":746,"o":"m 263 599 q 333 113 263 540 l 344 113 q 576 609 576 576 q 511 642 576 642 l 457 642 l 454 647 l 467 699 q 624 690 553 690 l 746 694 l 731 639 q 685 628 699 638 q 654 586 671 618 l 363 6 l 265 -18 q 150 575 204 311 q 60 639 138 638 l 58 644 l 72 694 q 200 690 161 690 l 371 703 l 374 694 l 363 647 q 281 633 300 643 q 263 599 263 624 z "},"w":{"ha":1058,"x_min":60,"x_max":1100,"o":"m 74 694 q 197 690 160 690 q 363 703 257 690 l 365 694 l 356 647 q 276 633 294 643 q 257 597 257 624 q 324 113 257 540 l 333 113 l 531 524 l 521 579 q 432 639 510 638 l 431 644 l 444 694 q 569 690 533 690 q 738 703 622 690 l 740 694 l 729 647 q 649 633 667 642 q 631 599 631 624 q 699 113 631 540 l 708 113 q 758 215 721 139 q 819 345 794 292 q 875 461 844 399 q 936 611 936 593 q 871 642 936 642 l 819 642 l 817 647 l 831 699 q 982 690 914 690 l 1100 694 l 1086 639 q 1041 626 1056 636 q 1011 586 1026 617 l 719 6 l 625 -18 l 553 426 l 546 426 l 347 6 l 251 -18 q 149 575 200 311 q 63 639 136 638 l 60 644 l 74 694 z "},"x":{"ha":754,"x_min":1,"x_max":769,"o":"m 531 699 l 657 690 l 767 694 l 769 688 l 758 642 q 682 610 711 632 q 597 529 653 589 l 446 364 l 572 143 q 711 53 621 60 l 697 -3 q 561 0 610 0 l 385 -8 l 382 0 l 392 46 q 478 86 478 50 q 461 129 478 99 l 371 297 q 207 111 219 129 q 194 78 194 93 q 251 49 194 53 l 254 44 l 240 -7 q 117 0 157 0 l 6 -4 l 1 4 l 14 53 q 100 99 58 65 q 206 201 142 133 l 342 347 l 228 551 q 92 642 188 628 l 90 647 l 103 694 q 253 690 207 690 q 417 700 346 690 l 419 692 l 410 649 q 324 610 324 643 q 415 414 324 586 q 478 483 426 428 q 579 619 579 597 q 521 646 579 642 l 519 651 l 531 699 z "},"y":{"ha":632,"x_min":49,"x_max":696,"o":"m 463 699 l 588 690 l 692 694 l 696 688 l 682 642 q 582 581 622 631 q 474 429 560 554 q 383 296 388 304 q 376 281 379 288 q 369 263 372 275 q 365 245 367 251 q 361 222 364 239 q 357 197 358 206 q 344 94 344 113 q 351 65 344 76 q 386 53 357 53 l 440 56 l 442 51 l 426 -4 q 292 0 328 0 q 142 -12 219 0 l 156 42 q 233 74 215 53 q 258 156 251 96 q 264 247 264 217 q 246 321 264 276 l 171 521 q 123 616 142 597 q 51 642 104 635 l 49 647 l 63 694 q 186 690 138 690 l 347 700 l 350 692 l 340 649 q 272 636 289 644 q 256 612 256 628 q 269 553 256 596 q 339 343 283 506 l 346 343 l 490 563 q 514 619 514 597 q 451 646 514 642 l 449 651 l 463 699 z "},"z":{"ha":654,"x_min":26,"x_max":650,"o":"m 540 15 l 521 -3 l 118 3 l 39 -4 l 26 35 l 503 636 l 324 629 q 216 596 250 628 q 163 483 182 564 l 101 478 q 147 694 133 594 l 160 704 l 351 692 l 640 686 l 650 651 q 158 51 444 419 l 372 60 q 467 103 428 61 q 535 236 506 146 l 594 243 q 540 15 557 119 z "},"{":{"ha":413,"x_min":65,"x_max":457,"o":"m 286 728 l 296 539 q 179 368 296 406 l 178 360 q 260 235 260 326 q 224 85 260 192 q 189 -56 189 -22 q 207 -112 189 -90 q 261 -135 225 -135 l 328 -126 l 332 -135 l 317 -174 q 240 -185 282 -185 q 132 -144 171 -185 q 93 -48 93 -103 q 137 106 93 7 q 181 233 181 204 q 65 343 181 317 l 75 372 q 213 501 213 411 q 199 605 213 528 q 186 718 186 682 q 238 848 186 794 q 378 901 290 901 l 454 893 l 457 886 l 442 844 q 381 851 404 851 q 310 817 333 851 q 286 728 286 782 z "},"|":{"ha":493,"x_min":118,"x_max":399,"o":"m 385 1121 l 399 1113 q 304 404 332 635 l 211 -358 l 129 -374 l 118 -365 q 300 1106 118 -365 l 385 1121 z "},"}":{"ha":413,"x_min":-31,"x_max":360,"o":"m 139 -11 l 131 178 q 247 349 131 311 l 247 357 q 167 482 167 390 q 201 632 167 525 q 236 772 236 739 q 165 851 236 851 l 97 843 l 94 851 l 110 890 q 186 901 144 901 q 294 860 256 901 q 333 765 333 819 q 290 611 333 710 q 246 483 246 513 q 360 374 246 401 l 351 344 q 214 215 214 306 q 227 112 214 189 q 240 -1 240 35 q 188 -131 240 -78 q 49 -185 135 -185 l -28 -176 l -31 -169 l -15 -128 q 44 -135 22 -135 q 115 -100 92 -135 q 139 -11 139 -65 z "},"~":{"ha":675,"x_min":57,"x_max":638,"o":"m 197 446 q 357 416 235 446 q 500 386 479 386 q 586 444 535 386 l 603 463 l 611 463 l 638 433 l 638 426 l 519 303 l 497 297 q 338 327 460 297 q 194 357 215 357 q 108 300 157 357 l 92 281 l 83 281 l 57 310 l 57 317 l 175 440 l 197 446 z "}," ":{"ha":267,"x_min":0,"x_max":0,"o":""},"¡":{"ha":379,"x_min":38,"x_max":332,"o":"m 168 553 q 168 571 168 553 q 195 617 168 589 q 260 644 222 644 q 315 624 297 644 q 332 570 332 604 q 305 508 332 536 q 241 479 278 479 q 186 499 204 479 q 168 553 168 518 m 243 336 l 178 -297 l 165 -311 l 49 -336 l 38 -321 l 189 338 l 229 347 l 243 336 z "},"¢":{"ha":478,"x_min":47,"x_max":486,"o":"m 47 213 q 133 494 47 365 q 332 642 219 624 l 389 908 l 428 914 l 433 901 l 378 644 q 479 615 440 640 l 486 600 l 439 507 l 419 503 q 358 554 393 539 l 254 65 q 331 105 293 72 q 392 186 369 138 l 411 185 l 432 151 q 344 42 397 86 q 236 -14 290 -3 l 194 -210 l 157 -214 l 151 -204 l 192 -15 q 85 51 124 -10 q 47 213 47 113 m 144 254 q 210 72 144 106 l 315 563 q 197 465 250 560 q 144 254 144 369 z "},"£":{"ha":700,"x_min":19,"x_max":656,"o":"m 607 132 q 572 26 607 69 q 489 -17 536 -17 q 328 15 442 -17 q 159 46 215 46 q 43 4 103 46 l 33 10 l 19 57 q 185 283 168 153 l 193 350 q 180 393 194 382 q 115 407 165 404 l 111 415 l 126 463 l 208 478 l 211 501 q 313 740 229 650 q 515 831 397 831 q 650 810 608 831 l 656 794 l 613 707 l 588 703 q 454 749 511 749 q 314 576 340 749 l 297 468 l 511 472 l 515 468 l 492 394 q 286 399 389 399 l 269 289 q 164 108 250 178 l 239 124 q 355 108 279 124 q 461 93 431 93 q 574 197 551 93 l 597 194 q 607 132 607 165 z "},"¤":{"ha":592,"x_min":42,"x_max":597,"o":"m 139 385 q 119 488 119 424 q 171 617 119 551 l 89 713 l 93 729 l 153 765 q 231 669 190 718 q 341 703 282 703 q 444 669 400 703 l 549 774 l 565 769 l 597 714 l 492 618 q 515 517 515 578 q 469 390 515 456 l 553 299 l 547 283 l 486 242 l 410 333 q 292 296 354 296 q 183 333 229 296 l 82 240 l 68 244 l 42 299 q 139 385 44 299 m 329 636 q 302 636 329 636 q 231 591 275 636 q 186 490 186 546 q 218 398 186 433 q 304 363 250 363 q 403 408 358 363 q 449 509 449 453 q 416 601 449 565 q 329 636 383 636 z "},"¥":{"ha":733,"x_min":64,"x_max":749,"o":"m 267 388 l 92 386 l 86 396 l 97 436 l 246 436 q 224 494 238 458 q 205 546 211 531 q 186 583 199 561 q 161 614 174 606 q 83 639 129 636 l 83 651 q 99 701 88 668 q 217 697 176 697 q 392 707 265 697 l 396 693 l 386 646 q 316 632 333 640 q 299 610 299 624 q 310 563 299 596 l 308 563 l 386 344 l 535 565 q 558 622 558 601 q 492 644 558 642 l 492 654 l 504 706 q 636 697 621 697 l 743 701 l 749 692 l 735 640 q 660 613 683 632 q 593 533 636 594 l 526 439 l 679 442 l 686 429 l 676 388 l 489 388 l 433 308 q 414 254 418 283 l 657 260 l 663 247 l 654 206 l 406 206 q 392 99 392 122 q 401 67 392 75 q 438 60 411 60 l 490 61 l 492 50 l 474 -3 q 339 0 375 0 q 186 -14 278 0 l 200 46 q 283 83 268 57 q 308 206 297 108 l 69 204 l 64 214 l 75 254 l 310 254 q 292 328 306 294 l 267 388 z "},"¦":{"ha":493,"x_min":117,"x_max":399,"o":"m 190 231 l 279 247 l 283 243 l 211 -358 l 128 -374 l 117 -365 l 190 231 m 318 522 l 232 510 l 226 514 q 300 1106 276 908 l 385 1121 l 399 1113 q 318 522 350 767 z "},"§":{"ha":681,"x_min":58,"x_max":635,"o":"m 172 267 q 150 285 172 267 q 97 356 128 304 q 67 469 67 407 q 115 596 67 531 q 247 710 164 661 q 324 844 258 788 q 469 901 389 901 q 558 882 521 901 q 596 840 596 863 q 581 776 596 817 q 556 725 567 736 l 536 725 q 490 803 524 772 q 418 833 456 833 q 356 805 381 833 q 331 734 331 776 q 362 650 331 692 q 438 572 393 608 q 528 499 483 536 q 603 412 572 461 q 635 299 635 363 q 582 162 635 235 q 450 49 529 89 q 365 -83 439 -19 q 203 -146 290 -146 q 99 -117 139 -146 q 58 -43 58 -87 q 71 26 58 -18 q 94 83 83 71 l 115 83 q 156 -35 119 10 q 245 -81 193 -81 q 331 -48 297 -81 q 365 30 365 -15 q 335 116 365 75 q 260 193 304 157 q 172 267 217 229 m 250 358 q 336 283 293 321 q 451 103 439 190 q 547 250 547 163 q 447 408 547 318 q 364 485 406 446 q 247 661 260 579 q 151 525 151 604 q 250 358 151 446 z "},"¨":{"ha":531,"x_min":157,"x_max":506,"o":"m 506 863 q 483 809 506 832 q 433 786 461 786 q 392 802 406 786 q 379 844 379 818 q 402 892 379 869 q 453 915 425 915 q 506 863 506 915 m 283 863 q 261 809 283 832 q 211 786 239 786 q 170 802 183 786 q 157 844 157 818 q 180 892 157 869 q 231 915 203 915 q 283 863 283 915 z "},"©":{"ha":924,"x_min":65,"x_max":883,"o":"m 65 363 q 204 691 65 551 q 526 831 343 831 q 782 721 681 831 q 883 451 883 611 q 744 123 883 263 q 422 -17 606 -17 q 167 93 268 -17 q 65 363 65 203 m 122 368 q 210 134 122 229 q 429 39 297 39 q 706 160 586 39 q 826 446 826 282 q 739 680 826 585 q 519 775 651 775 q 242 653 363 775 q 122 368 122 532 m 621 203 q 474 174 563 174 q 331 226 385 174 q 278 365 278 278 q 356 567 278 488 q 554 646 433 646 q 688 629 607 646 l 690 624 q 657 501 669 568 l 615 497 q 621 542 621 528 q 535 599 621 599 q 403 540 450 599 q 356 394 356 482 q 390 260 356 306 q 488 215 425 215 q 618 326 579 215 l 660 329 q 626 210 638 261 l 621 203 z "},"ª":{"ha":450,"x_min":42,"x_max":432,"o":"m 432 582 q 292 476 328 476 q 256 507 256 476 q 289 668 256 513 l 283 669 q 131 476 203 528 q 65 509 89 476 q 42 601 42 542 q 108 801 42 708 q 251 893 175 893 l 333 878 l 340 899 l 349 903 l 400 890 l 407 876 q 339 565 361 715 l 342 563 q 406 610 350 563 l 419 608 l 432 582 m 131 642 q 131 603 131 642 q 153 565 131 565 q 221 637 175 565 q 307 806 267 708 q 226 833 264 833 q 160 776 189 833 q 131 642 131 718 z "},"«":{"ha":571,"x_min":54,"x_max":565,"o":"m 538 556 l 565 535 l 565 521 l 399 314 l 514 99 l 510 85 l 476 64 l 276 294 l 279 315 l 538 556 m 315 556 l 343 535 l 343 521 l 176 314 l 292 99 l 288 85 l 254 64 l 54 294 l 57 315 l 315 556 z "},"¬":{"ha":675,"x_min":28,"x_max":622,"o":"m 615 413 l 622 399 q 593 246 601 311 l 571 57 l 500 42 l 489 50 q 525 328 510 206 l 35 325 l 28 338 l 51 406 q 369 404 250 404 l 615 413 z "},"®":{"ha":624,"x_min":86,"x_max":635,"o":"m 337 421 q 280 421 337 421 q 155 494 224 421 q 86 685 86 568 q 179 894 86 801 q 385 988 272 988 q 567 915 499 988 q 635 724 635 842 q 542 514 635 607 q 337 421 450 421 m 382 939 q 335 939 382 939 q 212 862 289 939 q 135 688 135 785 q 191 530 135 590 q 340 469 247 469 q 510 547 433 469 q 588 721 588 624 q 531 878 588 818 q 382 939 475 939 m 272 861 l 318 860 l 333 860 l 375 863 q 449 844 422 863 q 475 794 475 826 q 400 699 475 732 l 431 639 q 479 594 454 594 l 483 589 q 470 569 482 572 q 430 565 458 565 q 383 610 401 565 l 356 686 l 322 686 q 313 625 313 640 q 319 606 313 610 q 342 601 325 601 l 344 596 l 339 572 q 296 574 314 574 l 279 574 l 219 571 l 225 600 q 254 611 247 601 q 265 653 261 621 l 283 807 q 283 827 285 822 q 271 832 281 832 l 257 832 l 254 838 l 261 861 l 272 861 m 328 722 l 365 718 q 414 783 414 736 q 351 829 414 829 q 342 818 343 829 l 328 722 z "},"¯":{"ha":531,"x_min":132,"x_max":538,"o":"m 532 907 l 538 893 l 519 828 l 139 825 l 132 838 l 153 900 q 358 899 279 899 l 532 907 z "},"°":{"ha":403,"x_min":83,"x_max":422,"o":"m 238 551 q 203 551 238 551 q 126 597 168 551 q 83 715 83 642 q 141 844 83 788 q 269 901 199 901 q 381 856 339 901 q 422 739 422 811 q 365 609 422 667 q 238 551 308 551 m 258 843 q 235 843 258 843 q 177 805 213 843 q 142 719 142 767 q 172 640 142 671 q 247 610 201 610 q 329 648 293 610 q 365 734 365 686 q 335 813 365 782 q 258 843 304 843 z "},"±":{"ha":675,"x_min":-24,"x_max":664,"o":"m 644 346 l 378 344 l 347 89 l 276 74 l 265 82 q 299 344 285 225 l 36 343 l 31 356 l 53 424 q 308 422 193 422 l 343 688 l 415 699 l 428 690 q 386 422 400 533 l 658 431 l 664 417 l 644 346 m 589 -101 l -18 -104 l -24 -92 l -1 -24 l 21 -24 l 154 -25 q 324 -25 236 -25 q 507 -22 411 -25 q 603 -17 603 -18 l 608 -31 l 589 -101 z "},"²":{"ha":442,"x_min":17,"x_max":415,"o":"m 281 876 q 214 929 281 929 q 88 843 147 929 l 76 843 l 71 900 q 154 980 104 949 q 258 1011 204 1011 q 349 982 311 1011 q 386 902 386 953 q 337 778 386 851 q 156 565 288 706 l 158 558 l 264 558 q 326 574 307 558 q 361 638 344 589 l 415 643 q 371 489 385 557 l 358 481 q 79 488 157 488 l 22 478 l 17 513 l 124 619 q 281 876 281 793 z "},"³":{"ha":394,"x_min":31,"x_max":354,"o":"m 42 565 q 124 554 78 554 q 209 583 169 554 q 249 654 249 611 q 122 726 249 726 l 115 733 l 115 778 l 174 790 q 231 835 208 807 q 254 888 254 863 q 240 926 254 913 q 204 939 226 939 q 103 900 153 939 l 93 900 l 85 951 q 239 1011 188 1011 q 322 985 290 1011 q 354 919 354 960 q 324 843 354 879 q 244 785 294 807 l 243 778 q 346 668 346 747 q 261 538 346 600 q 85 476 176 476 q 41 492 51 476 q 31 526 31 508 q 32 556 31 544 l 42 565 z "},"´":{"ha":531,"x_min":233,"x_max":508,"o":"m 508 933 l 507 918 q 274 724 390 829 l 261 726 l 233 753 q 442 993 335 863 l 456 990 l 508 933 z "},"µ":{"ha":694,"x_min":-7,"x_max":667,"o":"m 175 188 q 271 79 175 79 q 342 99 307 79 q 428 157 397 131 l 467 481 l 474 610 l 481 619 l 603 644 l 610 628 q 557 390 594 599 q 519 131 519 181 q 567 82 519 82 q 650 117 601 82 l 667 94 q 593 16 631 49 q 535 -17 556 -17 q 455 9 482 -17 q 428 81 428 35 q 428 90 428 86 l 421 93 q 238 -17 299 -3 q 143 19 182 -17 l 136 15 q 103 -272 103 -182 l 103 -306 l 94 -315 l 0 -336 l -7 -319 q 64 101 32 -122 l 117 456 q 125 586 125 519 l 125 608 l 133 618 l 257 644 l 263 628 q 210 405 244 589 q 175 188 175 221 z "},"¶":{"ha":749,"x_min":81,"x_max":750,"o":"m 408 890 l 582 885 l 750 889 l 732 825 q 696 825 722 825 q 648 813 669 825 q 619 763 626 801 q 536 214 596 676 q 508 61 525 122 q 458 -50 490 0 q 244 -146 397 -146 q 128 -116 175 -146 q 81 -28 81 -86 q 101 42 81 3 q 147 108 121 81 l 168 108 q 165 42 165 82 q 186 -32 165 3 q 272 -81 214 -81 q 387 -23 353 -81 q 439 186 421 35 l 515 803 q 510 819 515 817 q 481 822 506 822 q 362 747 403 822 q 321 545 321 672 q 382 315 321 418 l 379 294 q 172 378 253 306 q 90 580 90 450 q 180 800 90 710 q 408 890 269 890 z "},"·":{"ha":318,"x_min":79,"x_max":243,"o":"m 243 325 q 243 308 243 325 q 215 262 243 290 q 150 233 188 233 q 96 253 113 233 q 79 308 79 274 q 106 370 79 342 q 170 399 133 399 q 225 379 207 399 q 243 325 243 360 z "},"¸":{"ha":532,"x_min":60,"x_max":324,"o":"m 324 -187 q 265 -282 324 -240 q 146 -324 207 -324 q 87 -310 114 -324 q 60 -276 60 -297 q 104 -196 60 -254 l 115 -196 q 115 -219 115 -201 q 131 -256 115 -236 q 178 -275 147 -275 q 229 -259 208 -275 q 250 -219 250 -243 q 149 -118 250 -183 l 211 32 l 269 32 l 224 -69 q 276 -111 253 -89 q 306 -142 300 -133 q 324 -187 324 -168 z "},"¹":{"ha":333,"x_min":26,"x_max":297,"o":"m 207 576 q 240 536 207 536 l 285 539 l 286 535 l 271 485 q 151 488 194 488 l 26 478 l 39 526 q 100 544 81 529 q 124 597 119 560 l 160 888 q 154 927 163 918 q 121 936 146 936 l 76 932 l 74 936 l 83 981 q 292 1011 135 988 l 297 990 q 254 910 265 964 q 225 728 243 856 q 207 576 207 601 z "},"º":{"ha":404,"x_min":46,"x_max":374,"o":"m 135 664 q 201 538 135 538 q 258 586 235 538 q 282 715 282 635 q 221 832 282 832 q 159 785 183 832 q 135 664 135 738 m 161 476 q 77 517 108 476 q 46 629 46 558 q 108 819 46 740 q 257 899 169 899 q 343 862 313 899 q 374 758 374 825 q 312 558 374 640 q 161 476 250 476 z "},"»":{"ha":571,"x_min":65,"x_max":578,"o":"m 317 64 l 288 85 l 289 99 l 454 306 l 340 521 l 343 535 l 376 556 l 578 325 l 575 304 l 317 64 m 94 64 l 65 85 l 67 99 l 232 306 l 118 521 l 121 535 l 154 556 l 356 325 l 353 304 l 94 64 z "},"¼":{"ha":951,"x_min":26,"x_max":911,"o":"m 772 915 l 779 896 q 415 340 538 536 l 117 -132 l 64 -106 l 57 -89 q 718 942 242 192 l 772 915 m 207 460 q 240 419 207 419 l 285 422 l 286 418 l 271 368 q 151 371 194 371 l 26 361 l 39 410 q 100 428 81 413 q 124 481 119 443 l 160 771 q 154 810 163 801 q 121 819 146 819 l 76 815 l 74 819 l 83 864 q 292 894 135 871 l 297 874 q 254 793 265 847 q 225 612 243 739 q 207 460 207 485 m 533 149 l 542 196 l 808 522 l 814 524 l 868 515 l 833 211 l 906 211 l 911 201 l 896 140 l 825 143 l 814 8 l 807 0 l 721 -10 l 715 -1 q 739 144 731 79 l 533 149 m 760 385 l 621 211 l 747 211 l 768 385 l 760 385 z "},"½":{"ha":990,"x_min":26,"x_max":949,"o":"m 772 915 l 779 896 q 415 340 538 536 l 117 -132 l 64 -106 l 57 -89 q 718 942 242 192 l 772 915 m 207 460 q 240 419 207 419 l 285 422 l 286 418 l 271 368 q 151 371 194 371 l 26 361 l 39 410 q 100 428 81 413 q 124 481 119 443 l 160 771 q 154 810 163 801 q 121 819 146 819 l 76 815 l 74 819 l 83 864 q 292 894 135 871 l 297 874 q 254 793 265 847 q 225 612 243 739 q 207 460 207 485 m 814 389 q 747 442 814 442 q 621 356 681 442 l 610 356 l 604 413 q 688 492 638 461 q 791 524 738 524 q 882 494 844 524 q 919 415 919 465 q 870 291 919 364 q 689 78 821 218 l 692 71 l 797 71 q 859 86 840 71 q 894 150 878 101 l 949 156 q 904 1 918 69 l 892 -7 q 613 0 690 0 l 556 -10 l 550 25 l 657 132 q 814 389 814 306 z "},"¾":{"ha":957,"x_min":31,"x_max":917,"o":"m 778 915 l 785 896 q 421 340 543 536 l 122 -132 l 69 -106 l 63 -89 q 724 942 247 192 l 778 915 m 539 149 l 547 196 l 814 522 l 819 524 l 874 515 l 839 211 l 911 211 l 917 201 l 901 140 l 831 143 l 819 8 l 813 0 l 726 -10 l 721 -1 q 744 144 736 79 l 539 149 m 765 385 l 626 211 l 753 211 l 774 385 l 765 385 m 42 449 q 124 438 78 438 q 209 466 169 438 q 249 538 249 494 q 122 610 249 610 l 115 617 l 115 661 l 174 674 q 231 718 208 690 q 254 771 254 746 q 240 809 254 796 q 204 822 226 822 q 103 783 153 822 l 93 783 l 85 835 q 239 894 188 894 q 322 869 290 894 q 354 803 354 843 q 324 726 354 763 q 244 668 294 690 l 243 661 q 346 551 346 631 q 261 422 346 483 q 85 360 176 360 q 41 376 51 360 q 31 410 31 392 q 32 439 31 428 l 42 449 z "},"¿":{"ha":481,"x_min":-12,"x_max":399,"o":"m 85 -82 q 333 -242 85 -225 l 335 -257 l 282 -331 l 263 -336 q 67 -272 146 -332 q -12 -125 -12 -212 q 44 31 -12 -28 q 99 79 76 61 q 173 128 122 97 q 244 172 224 158 l 250 185 l 239 317 l 244 328 l 331 351 l 343 346 l 354 179 l 347 160 l 176 54 q 85 -82 85 -6 m 235 553 q 235 570 235 553 q 262 616 235 588 q 326 644 289 644 q 381 624 364 644 q 399 570 399 604 q 371 508 399 536 q 306 479 343 479 q 252 499 269 479 q 235 553 235 518 z "},"À":{"ha":775,"x_min":-62,"x_max":753,"o":"m 399 -14 l 396 -4 l 407 46 q 509 65 483 51 q 535 115 535 79 q 504 325 535 133 q 388 326 471 326 q 217 315 306 326 l 149 165 q 129 101 129 125 q 203 51 129 51 l 281 51 l 281 47 l 267 -10 q 83 0 172 0 l -62 -4 l -44 58 q 22 85 -4 63 q 75 167 47 108 l 419 876 l 497 900 l 508 901 q 633 154 569 475 q 667 81 643 101 q 750 54 692 61 l 753 50 l 738 -4 q 574 0 642 0 q 399 -14 507 0 m 367 376 q 493 385 432 376 l 432 756 l 422 756 l 249 376 l 367 376 m 290 1079 l 285 1093 l 307 1160 l 319 1168 q 596 1017 465 1085 l 588 983 l 576 976 l 290 1079 z "},"Á":{"ha":775,"x_min":-62,"x_max":753,"o":"m 399 -14 l 396 -4 l 407 46 q 509 65 483 51 q 535 115 535 79 q 504 325 535 133 q 388 326 471 326 q 217 315 306 326 l 149 165 q 129 101 129 125 q 203 51 129 51 l 281 51 l 281 47 l 267 -10 q 83 0 172 0 l -62 -4 l -44 58 q 22 85 -4 63 q 75 167 47 108 l 419 876 l 497 900 l 508 901 q 633 154 569 475 q 667 81 643 101 q 750 54 692 61 l 753 50 l 738 -4 q 574 0 642 0 q 399 -14 507 0 m 367 376 q 493 385 432 376 l 432 756 l 422 756 l 249 376 l 367 376 m 711 1093 l 706 1079 q 419 976 565 1032 l 408 983 l 400 1017 l 676 1168 l 689 1160 l 711 1093 z "},"Â":{"ha":775,"x_min":-62,"x_max":753,"o":"m 399 -14 l 396 -4 l 407 46 q 509 65 483 51 q 535 115 535 79 q 504 325 535 133 q 388 326 471 326 q 217 315 306 326 l 149 165 q 129 101 129 125 q 203 51 129 51 l 281 51 l 281 47 l 267 -10 q 83 0 172 0 l -62 -4 l -44 58 q 22 85 -4 63 q 75 167 47 108 l 419 876 l 497 900 l 508 901 q 633 154 569 475 q 667 81 643 101 q 750 54 692 61 l 753 50 l 738 -4 q 574 0 642 0 q 399 -14 507 0 m 367 376 q 493 385 432 376 l 432 756 l 422 756 l 249 376 l 367 376 m 307 990 l 292 1021 l 496 1175 l 515 1175 l 682 1021 l 658 990 l 646 989 l 493 1079 l 319 989 l 307 990 z "},"Ã":{"ha":775,"x_min":-62,"x_max":753,"o":"m 399 -14 l 396 -4 l 407 46 q 509 65 483 51 q 535 115 535 79 q 504 325 535 133 q 388 326 471 326 q 217 315 306 326 l 149 165 q 129 101 129 125 q 203 51 129 51 l 281 51 l 281 47 l 267 -10 q 83 0 172 0 l -62 -4 l -44 58 q 22 85 -4 63 q 75 167 47 108 l 419 876 l 497 900 l 508 901 q 633 154 569 475 q 667 81 643 101 q 750 54 692 61 l 753 50 l 738 -4 q 574 0 642 0 q 399 -14 507 0 m 367 376 q 493 385 432 376 l 432 756 l 422 756 l 249 376 l 367 376 m 403 1122 q 501 1099 426 1122 q 592 1076 575 1076 q 685 1139 619 1076 l 693 1139 l 719 1110 l 719 1103 l 604 993 l 582 988 q 485 1010 558 988 q 394 1033 411 1033 q 317 986 364 1033 l 301 971 l 293 971 l 265 1000 l 267 1007 l 382 1117 l 403 1122 z "},"Ä":{"ha":775,"x_min":-62,"x_max":753,"o":"m 399 -14 l 396 -4 l 407 46 q 509 65 483 51 q 535 115 535 79 q 504 325 535 133 q 388 326 471 326 q 217 315 306 326 l 149 165 q 129 101 129 125 q 203 51 129 51 l 281 51 l 281 47 l 267 -10 q 83 0 172 0 l -62 -4 l -44 58 q 22 85 -4 63 q 75 167 47 108 l 419 876 l 497 900 l 508 901 q 633 154 569 475 q 667 81 643 101 q 750 54 692 61 l 753 50 l 738 -4 q 574 0 642 0 q 399 -14 507 0 m 367 376 q 493 385 432 376 l 432 756 l 422 756 l 249 376 l 367 376 m 667 1079 q 667 1066 667 1079 q 644 1030 667 1053 q 593 1007 621 1007 q 540 1060 540 1007 q 563 1113 540 1090 q 613 1136 586 1136 q 653 1121 640 1136 q 667 1079 667 1106 m 444 1079 q 444 1066 444 1079 q 422 1030 444 1053 q 371 1007 399 1007 q 318 1060 318 1007 q 340 1113 318 1090 q 390 1136 363 1136 q 431 1121 418 1136 q 444 1079 444 1106 z "},"Å":{"ha":775,"x_min":-62,"x_max":753,"o":"m 399 -14 l 396 -4 l 407 46 q 509 65 483 51 q 535 115 535 79 q 504 325 535 133 q 388 326 471 326 q 217 315 306 326 l 149 165 q 129 101 129 125 q 203 51 129 51 l 281 51 l 281 47 l 267 -10 q 83 0 172 0 l -62 -4 l -44 58 q 22 85 -4 63 q 75 167 47 108 l 419 876 l 497 900 l 508 901 q 633 154 569 475 q 667 81 643 101 q 750 54 692 61 l 753 50 l 738 -4 q 574 0 642 0 q 399 -14 507 0 m 367 376 q 493 385 432 376 l 432 756 l 422 756 l 249 376 l 367 376 m 485 989 q 551 1051 551 989 q 490 1110 551 1110 q 442 1093 460 1110 q 425 1047 425 1076 q 444 1003 425 1018 q 485 989 463 989 m 600 1065 q 600 1041 600 1065 q 563 977 600 1018 q 476 936 526 936 q 403 962 426 936 q 379 1038 379 988 q 416 1126 379 1088 q 504 1164 453 1164 q 578 1138 556 1164 q 600 1065 600 1111 z "},"Æ":{"ha":1081,"x_min":-46,"x_max":1038,"o":"m 510 163 l 510 213 l 507 385 l 250 361 l 133 167 q 104 95 104 118 q 119 63 104 72 q 172 54 135 54 l 247 54 l 232 -10 q 49 0 133 0 l -43 -6 l -46 42 q 53 168 4 90 l 457 804 q 426 826 453 826 l 381 824 l 378 829 l 396 889 q 649 885 396 885 q 1008 901 903 885 l 1011 893 q 953 664 976 792 l 888 658 q 900 751 900 711 q 863 804 900 792 q 732 817 826 817 q 619 808 638 817 q 601 774 601 799 l 604 454 l 765 469 l 890 488 l 896 481 l 869 408 l 754 406 l 604 393 l 613 156 q 637 83 614 104 q 719 61 660 61 q 813 65 778 61 q 876 76 847 68 q 919 106 904 85 q 972 231 951 146 l 1033 238 l 1038 231 q 972 -1 999 115 l 965 -10 q 797 -3 968 -7 q 571 0 626 0 q 363 -14 471 0 l 361 -4 l 369 49 q 472 83 435 53 q 510 163 510 114 m 296 431 l 506 446 l 504 750 l 492 750 l 296 431 z "},"Ç":{"ha":838,"x_min":63,"x_max":824,"o":"m 63 351 q 211 742 63 585 q 579 900 360 900 q 819 868 671 900 l 824 860 q 761 632 785 757 l 701 626 q 714 708 714 681 q 532 825 714 825 q 281 705 378 825 q 183 392 183 585 q 254 140 183 233 q 447 46 325 46 q 706 268 628 46 l 765 274 q 701 51 722 149 l 693 39 q 451 -15 597 -10 l 428 -69 q 481 -111 457 -89 q 511 -142 504 -133 q 528 -187 528 -168 q 469 -282 528 -240 q 350 -324 411 -324 q 291 -310 318 -324 q 264 -276 264 -297 q 308 -196 264 -254 l 319 -196 q 319 -219 319 -201 q 335 -256 319 -236 q 382 -275 351 -275 q 433 -259 413 -275 q 454 -219 454 -243 q 353 -118 454 -183 l 394 -15 q 153 93 243 -6 q 63 351 63 192 z "},"È":{"ha":789,"x_min":40,"x_max":761,"o":"m 313 489 l 450 488 l 614 503 l 618 497 l 590 419 q 414 424 476 424 q 300 414 351 424 q 281 283 292 357 q 257 108 257 139 q 276 67 257 76 q 369 57 296 57 q 486 61 443 57 q 562 85 529 65 q 608 135 594 106 q 638 228 621 165 l 694 235 l 697 228 q 632 -3 658 114 l 625 -10 q 264 0 349 0 q 40 -14 135 0 l 56 46 q 142 78 117 54 q 174 163 167 103 q 250 788 250 772 q 244 816 250 804 q 207 828 238 828 l 161 825 l 160 829 l 175 888 q 459 883 278 883 q 758 900 640 883 l 761 893 q 703 665 726 793 l 642 660 q 654 755 654 714 q 619 808 654 796 q 487 819 583 819 q 376 812 390 819 q 356 765 361 804 l 313 489 m 311 1079 l 306 1093 l 328 1160 l 340 1168 q 617 1017 486 1085 l 608 983 l 597 976 l 311 1079 z "},"É":{"ha":789,"x_min":40,"x_max":761,"o":"m 313 489 l 450 488 l 614 503 l 618 497 l 590 419 q 414 424 476 424 q 300 414 351 424 q 281 283 292 357 q 257 108 257 139 q 276 67 257 76 q 369 57 296 57 q 486 61 443 57 q 562 85 529 65 q 608 135 594 106 q 638 228 621 165 l 694 235 l 697 228 q 632 -3 658 114 l 625 -10 q 264 0 349 0 q 40 -14 135 0 l 56 46 q 142 78 117 54 q 174 163 167 103 q 250 788 250 772 q 244 816 250 804 q 207 828 238 828 l 161 825 l 160 829 l 175 888 q 459 883 278 883 q 758 900 640 883 l 761 893 q 703 665 726 793 l 642 660 q 654 755 654 714 q 619 808 654 796 q 487 819 583 819 q 376 812 390 819 q 356 765 361 804 l 313 489 m 674 1093 l 668 1079 q 382 976 528 1032 l 371 983 l 363 1017 l 639 1168 l 651 1160 l 674 1093 z "},"Ê":{"ha":789,"x_min":40,"x_max":761,"o":"m 313 489 l 450 488 l 614 503 l 618 497 l 590 419 q 414 424 476 424 q 300 414 351 424 q 281 283 292 357 q 257 108 257 139 q 276 67 257 76 q 369 57 296 57 q 486 61 443 57 q 562 85 529 65 q 608 135 594 106 q 638 228 621 165 l 694 235 l 697 228 q 632 -3 658 114 l 625 -10 q 264 0 349 0 q 40 -14 135 0 l 56 46 q 142 78 117 54 q 174 163 167 103 q 250 788 250 772 q 244 816 250 804 q 207 828 238 828 l 161 825 l 160 829 l 175 888 q 459 883 278 883 q 758 900 640 883 l 761 893 q 703 665 726 793 l 642 660 q 654 755 654 714 q 619 808 654 796 q 487 819 583 819 q 376 812 390 819 q 356 765 361 804 l 313 489 m 328 990 l 313 1021 l 517 1175 l 536 1175 l 703 1021 l 679 990 l 667 989 l 514 1079 l 340 989 l 328 990 z "},"Ë":{"ha":789,"x_min":40,"x_max":761,"o":"m 313 489 l 450 488 l 614 503 l 618 497 l 590 419 q 414 424 476 424 q 300 414 351 424 q 281 283 292 357 q 257 108 257 139 q 276 67 257 76 q 369 57 296 57 q 486 61 443 57 q 562 85 529 65 q 608 135 594 106 q 638 228 621 165 l 694 235 l 697 228 q 632 -3 658 114 l 625 -10 q 264 0 349 0 q 40 -14 135 0 l 56 46 q 142 78 117 54 q 174 163 167 103 q 250 788 250 772 q 244 816 250 804 q 207 828 238 828 l 161 825 l 160 829 l 175 888 q 459 883 278 883 q 758 900 640 883 l 761 893 q 703 665 726 793 l 642 660 q 654 755 654 714 q 619 808 654 796 q 487 819 583 819 q 376 812 390 819 q 356 765 361 804 l 313 489 m 688 1079 q 688 1066 688 1079 q 665 1030 688 1053 q 614 1007 642 1007 q 561 1060 561 1007 q 584 1113 561 1090 q 634 1136 607 1136 q 674 1121 661 1136 q 688 1079 688 1106 m 465 1079 q 465 1066 465 1079 q 442 1030 465 1053 q 392 1007 419 1007 q 339 1060 339 1007 q 361 1113 339 1090 q 411 1136 383 1136 q 452 1121 439 1136 q 465 1079 465 1106 z "},"Ì":{"ha":482,"x_min":36,"x_max":475,"o":"m 171 889 l 297 883 l 322 883 q 475 897 378 883 l 461 838 q 383 814 404 831 q 356 758 361 797 q 258 118 258 194 q 270 72 258 85 q 310 58 282 58 l 381 63 l 383 57 l 364 -4 q 208 0 254 0 q 36 -17 131 0 l 53 43 q 142 81 117 56 q 175 164 168 106 q 250 787 250 771 q 243 815 250 803 q 207 828 236 828 l 150 825 q 149 829 149 828 l 165 889 l 171 889 m 136 1079 l 131 1093 l 153 1160 l 165 1168 q 442 1017 311 1085 l 433 983 l 422 976 l 136 1079 z "},"Í":{"ha":482,"x_min":36,"x_max":543,"o":"m 171 889 l 297 883 l 322 883 q 475 897 378 883 l 461 838 q 383 814 404 831 q 356 758 361 797 q 258 118 258 194 q 270 72 258 85 q 310 58 282 58 l 381 63 l 383 57 l 364 -4 q 208 0 254 0 q 36 -17 131 0 l 53 43 q 142 81 117 56 q 175 164 168 106 q 250 787 250 771 q 243 815 250 803 q 207 828 236 828 l 150 825 q 149 829 149 828 l 165 889 l 171 889 m 543 1093 l 538 1079 q 251 976 397 1032 l 240 983 l 232 1017 l 508 1168 l 521 1160 l 543 1093 z "},"Î":{"ha":482,"x_min":36,"x_max":528,"o":"m 171 889 l 297 883 l 322 883 q 475 897 378 883 l 461 838 q 383 814 404 831 q 356 758 361 797 q 258 118 258 194 q 270 72 258 85 q 310 58 282 58 l 381 63 l 383 57 l 364 -4 q 208 0 254 0 q 36 -17 131 0 l 53 43 q 142 81 117 56 q 175 164 168 106 q 250 787 250 771 q 243 815 250 803 q 207 828 236 828 l 150 825 q 149 829 149 828 l 165 889 l 171 889 m 153 990 l 138 1021 l 342 1175 l 361 1175 l 528 1021 l 504 990 l 492 989 l 339 1079 l 165 989 l 153 990 z "},"Ï":{"ha":482,"x_min":36,"x_max":513,"o":"m 171 889 l 297 883 l 322 883 q 475 897 378 883 l 461 838 q 383 814 404 831 q 356 758 361 797 q 258 118 258 194 q 270 72 258 85 q 310 58 282 58 l 381 63 l 383 57 l 364 -4 q 208 0 254 0 q 36 -17 131 0 l 53 43 q 142 81 117 56 q 175 164 168 106 q 250 787 250 771 q 243 815 250 803 q 207 828 236 828 l 150 825 q 149 829 149 828 l 165 889 l 171 889 m 513 1079 q 513 1066 513 1079 q 490 1030 513 1053 q 439 1007 467 1007 q 386 1060 386 1007 q 409 1113 386 1090 q 459 1136 432 1136 q 499 1121 486 1136 q 513 1079 513 1106 m 290 1079 q 290 1066 290 1079 q 267 1030 290 1053 q 217 1007 244 1007 q 164 1060 164 1007 q 186 1113 164 1090 q 236 1136 208 1136 q 277 1121 264 1136 q 290 1079 290 1106 z "},"Ð":{"ha":950,"x_min":28,"x_max":921,"o":"m 411 -17 q 228 0 275 0 q 53 -17 150 0 l 68 43 q 157 80 132 56 q 189 163 182 104 l 221 422 l 36 422 l 28 432 l 43 476 l 228 476 q 264 788 264 772 q 258 816 264 804 q 222 828 251 828 l 175 825 l 174 831 l 189 888 q 328 883 276 883 l 517 889 q 808 787 696 889 q 921 531 921 685 q 852 253 921 378 q 666 56 783 129 q 411 -17 549 -17 m 428 828 q 390 822 400 828 q 378 797 381 815 l 325 476 l 550 476 l 556 467 l 542 422 l 317 422 q 279 149 279 182 q 313 69 279 90 q 438 49 347 49 q 701 172 601 49 q 801 494 801 296 q 706 741 801 654 q 428 828 610 828 z "},"Ñ":{"ha":960,"x_min":47,"x_max":985,"o":"m 142 836 l 140 843 l 156 890 q 268 883 232 883 l 354 889 q 722 186 528 539 l 728 186 q 800 779 800 772 q 763 826 800 826 l 747 826 l 722 825 q 713 825 718 825 l 710 831 l 729 889 q 843 883 808 883 q 985 896 910 883 l 971 835 q 868 747 879 822 l 754 -39 l 719 -58 q 313 725 518 350 l 307 725 l 224 113 q 227 70 219 82 q 258 58 235 58 l 326 58 l 329 54 l 310 -6 q 171 0 229 0 l 47 -11 l 63 49 q 156 136 144 58 q 250 778 250 758 q 142 836 250 825 m 494 1122 q 592 1099 518 1122 q 683 1076 667 1076 q 776 1139 711 1076 l 785 1139 l 811 1110 l 811 1103 l 696 993 l 674 988 q 576 1010 650 988 q 486 1033 503 1033 q 408 986 456 1033 l 393 971 l 385 971 l 357 1000 l 358 1007 l 474 1117 l 494 1122 z "},"Ò":{"ha":921,"x_min":63,"x_max":894,"o":"m 432 49 q 676 170 579 49 q 774 463 774 292 q 702 728 774 633 q 511 824 631 824 q 272 701 368 824 q 176 408 176 578 q 247 144 176 239 q 432 49 317 49 m 397 -17 q 156 86 249 -17 q 63 353 63 189 q 206 739 63 578 q 551 900 350 900 q 799 797 703 900 q 894 531 894 693 q 748 144 894 304 q 397 -17 601 -17 m 356 1079 l 350 1093 l 372 1160 l 385 1168 q 661 1017 531 1085 l 653 983 l 642 976 l 356 1079 z "},"Ó":{"ha":921,"x_min":63,"x_max":894,"o":"m 432 49 q 676 170 579 49 q 774 463 774 292 q 702 728 774 633 q 511 824 631 824 q 272 701 368 824 q 176 408 176 578 q 247 144 176 239 q 432 49 317 49 m 397 -17 q 156 86 249 -17 q 63 353 63 189 q 206 739 63 578 q 551 900 350 900 q 799 797 703 900 q 894 531 894 693 q 748 144 894 304 q 397 -17 601 -17 m 735 1093 l 729 1079 q 443 976 589 1032 l 432 983 l 424 1017 l 700 1168 l 713 1160 l 735 1093 z "},"Ô":{"ha":921,"x_min":63,"x_max":894,"o":"m 432 49 q 676 170 579 49 q 774 463 774 292 q 702 728 774 633 q 511 824 631 824 q 272 701 368 824 q 176 408 176 578 q 247 144 176 239 q 432 49 317 49 m 397 -17 q 156 86 249 -17 q 63 353 63 189 q 206 739 63 578 q 551 900 350 900 q 799 797 703 900 q 894 531 894 693 q 748 144 894 304 q 397 -17 601 -17 m 358 990 l 343 1021 l 547 1175 l 567 1175 l 733 1021 l 710 990 l 697 989 l 544 1079 l 371 989 l 358 990 z "},"Õ":{"ha":921,"x_min":63,"x_max":894,"o":"m 432 49 q 676 170 579 49 q 774 463 774 292 q 702 728 774 633 q 511 824 631 824 q 272 701 368 824 q 176 408 176 578 q 247 144 176 239 q 432 49 317 49 m 397 -17 q 156 86 249 -17 q 63 353 63 189 q 206 739 63 578 q 551 900 350 900 q 799 797 703 900 q 894 531 894 693 q 748 144 894 304 q 397 -17 601 -17 m 468 1122 q 566 1099 492 1122 q 656 1076 640 1076 q 750 1139 685 1076 l 758 1139 l 785 1110 l 785 1103 l 669 993 l 647 988 q 550 1010 624 988 q 461 1033 476 1033 q 383 986 429 1033 l 367 971 l 358 971 l 331 1000 l 332 1007 l 447 1117 l 468 1122 z "},"Ö":{"ha":921,"x_min":63,"x_max":894,"o":"m 432 49 q 676 170 579 49 q 774 463 774 292 q 702 728 774 633 q 511 824 631 824 q 272 701 368 824 q 176 408 176 578 q 247 144 176 239 q 432 49 317 49 m 397 -17 q 156 86 249 -17 q 63 353 63 189 q 206 739 63 578 q 551 900 350 900 q 799 797 703 900 q 894 531 894 693 q 748 144 894 304 q 397 -17 601 -17 m 718 1079 q 718 1066 718 1079 q 695 1030 718 1053 q 644 1007 672 1007 q 592 1060 592 1007 q 615 1113 592 1090 q 665 1136 638 1136 q 705 1121 692 1136 q 718 1079 718 1106 m 496 1079 q 496 1066 496 1079 q 473 1030 496 1053 q 422 1007 450 1007 q 369 1060 369 1007 q 392 1113 369 1090 q 442 1136 414 1136 q 483 1121 469 1136 q 496 1079 496 1106 z "},"×":{"ha":675,"x_min":83,"x_max":611,"o":"m 561 624 l 575 619 l 611 561 l 399 363 l 568 175 l 561 158 l 499 117 l 338 308 l 128 111 l 114 115 l 83 174 q 289 363 196 276 l 121 563 l 125 578 l 190 614 q 351 418 279 504 l 561 624 z "},"Ø":{"ha":921,"x_min":63,"x_max":894,"o":"m 63 353 q 206 739 63 578 q 551 900 350 900 q 669 881 614 900 l 724 983 l 764 974 l 768 957 l 715 860 q 847 728 799 815 q 894 531 894 642 q 748 144 894 304 q 397 -17 601 -17 q 267 8 332 -17 l 190 -136 l 153 -128 l 150 -114 l 224 29 q 105 160 147 75 q 63 353 63 244 m 432 49 q 676 170 579 49 q 774 482 774 292 q 665 767 774 672 l 307 85 q 432 49 363 49 m 511 824 q 272 701 368 824 q 176 395 176 578 q 269 117 176 213 l 625 794 q 511 824 571 824 z "},"Ù":{"ha":906,"x_min":113,"x_max":938,"o":"m 243 281 q 292 115 243 172 q 445 57 342 57 q 615 119 549 57 q 694 299 681 181 q 744 783 744 760 q 738 817 744 806 q 703 828 732 828 l 643 825 l 643 831 l 658 888 q 794 883 757 883 q 938 897 857 883 l 924 838 q 846 816 864 831 q 822 758 828 801 l 764 286 q 650 63 746 143 q 397 -17 554 -17 q 206 49 272 -17 q 140 231 140 114 q 144 292 140 263 q 204 788 204 771 q 197 816 204 804 q 160 828 190 828 l 114 825 l 113 831 l 129 888 q 264 883 226 883 q 417 897 328 883 l 404 838 q 335 815 354 831 q 308 758 315 799 l 247 350 q 243 281 243 313 m 363 1079 l 357 1093 l 379 1160 l 392 1168 q 668 1017 538 1085 l 660 983 l 649 976 l 363 1079 z "},"Ú":{"ha":906,"x_min":113,"x_max":938,"o":"m 243 281 q 292 115 243 172 q 445 57 342 57 q 615 119 549 57 q 694 299 681 181 q 744 783 744 760 q 738 817 744 806 q 703 828 732 828 l 643 825 l 643 831 l 658 888 q 794 883 757 883 q 938 897 857 883 l 924 838 q 846 816 864 831 q 822 758 828 801 l 764 286 q 650 63 746 143 q 397 -17 554 -17 q 206 49 272 -17 q 140 231 140 114 q 144 292 140 263 q 204 788 204 771 q 197 816 204 804 q 160 828 190 828 l 114 825 l 113 831 l 129 888 q 264 883 226 883 q 417 897 328 883 l 404 838 q 335 815 354 831 q 308 758 315 799 l 247 350 q 243 281 243 313 m 783 1093 l 778 1079 q 492 976 638 1032 l 481 983 l 472 1017 l 749 1168 l 761 1160 l 783 1093 z "},"Û":{"ha":906,"x_min":113,"x_max":938,"o":"m 243 281 q 292 115 243 172 q 445 57 342 57 q 615 119 549 57 q 694 299 681 181 q 744 783 744 760 q 738 817 744 806 q 703 828 732 828 l 643 825 l 643 831 l 658 888 q 794 883 757 883 q 938 897 857 883 l 924 838 q 846 816 864 831 q 822 758 828 801 l 764 286 q 650 63 746 143 q 397 -17 554 -17 q 206 49 272 -17 q 140 231 140 114 q 144 292 140 263 q 204 788 204 771 q 197 816 204 804 q 160 828 190 828 l 114 825 l 113 831 l 129 888 q 264 883 226 883 q 417 897 328 883 l 404 838 q 335 815 354 831 q 308 758 315 799 l 247 350 q 243 281 243 313 m 379 990 l 364 1021 l 568 1175 l 588 1175 l 754 1021 l 731 990 l 718 989 l 565 1079 l 392 989 l 379 990 z "},"Ü":{"ha":906,"x_min":113,"x_max":938,"o":"m 243 281 q 292 115 243 172 q 445 57 342 57 q 615 119 549 57 q 694 299 681 181 q 744 783 744 760 q 738 817 744 806 q 703 828 732 828 l 643 825 l 643 831 l 658 888 q 794 883 757 883 q 938 897 857 883 l 924 838 q 846 816 864 831 q 822 758 828 801 l 764 286 q 650 63 746 143 q 397 -17 554 -17 q 206 49 272 -17 q 140 231 140 114 q 144 292 140 263 q 204 788 204 771 q 197 816 204 804 q 160 828 190 828 l 114 825 l 113 831 l 129 888 q 264 883 226 883 q 417 897 328 883 l 404 838 q 335 815 354 831 q 308 758 315 799 l 247 350 q 243 281 243 313 m 739 1079 q 739 1066 739 1079 q 716 1030 739 1053 q 665 1007 693 1007 q 613 1060 613 1007 q 635 1113 613 1090 q 685 1136 658 1136 q 726 1121 713 1136 q 739 1079 739 1106 m 517 1079 q 517 1066 517 1079 q 494 1030 517 1053 q 443 1007 471 1007 q 390 1060 390 1007 q 413 1113 390 1090 q 463 1136 435 1136 q 503 1121 490 1136 q 517 1079 517 1106 z "},"Ý":{"ha":722,"x_min":39,"x_max":811,"o":"m 379 840 q 292 824 313 835 q 271 789 271 813 q 378 422 271 740 l 383 422 l 576 725 q 606 799 606 769 q 526 838 606 832 l 524 843 l 539 894 q 683 883 639 883 l 807 889 l 811 881 l 796 832 q 706 795 733 821 q 642 715 678 769 q 420 383 424 390 q 412 361 417 376 q 403 336 407 346 q 397 302 400 326 q 392 264 393 278 q 372 112 372 136 q 376 78 372 88 q 421 57 385 57 l 486 61 l 489 56 l 469 -4 q 318 0 361 0 q 153 -17 244 0 l 168 43 q 260 87 239 58 q 290 196 282 115 q 299 317 299 275 q 278 418 299 360 q 170 728 174 719 q 160 755 167 738 q 151 776 154 772 q 140 792 147 781 q 128 806 133 803 q 113 815 122 808 q 94 824 104 822 q 71 829 83 826 q 42 833 58 832 l 39 839 l 54 889 q 183 883 136 883 q 388 896 278 883 l 390 886 l 379 840 m 697 1093 l 692 1079 q 406 976 551 1032 l 394 983 l 386 1017 l 663 1168 l 675 1160 l 697 1093 z "},"Þ":{"ha":726,"x_min":33,"x_max":721,"o":"m 242 886 l 322 885 q 479 897 364 885 l 465 835 q 389 812 410 828 q 361 756 368 796 l 351 699 l 460 699 q 653 647 586 699 q 721 500 721 596 q 613 294 721 382 q 369 206 506 206 l 275 206 q 265 113 265 135 q 273 76 265 90 q 315 61 281 61 l 386 65 l 388 60 l 368 -4 q 208 0 254 0 q 33 -17 131 0 l 50 47 q 139 84 114 60 q 171 167 164 108 q 246 784 246 768 q 239 813 246 800 q 203 825 232 825 l 147 822 l 144 828 l 163 889 q 242 886 210 886 m 600 474 q 545 592 600 554 q 374 631 490 631 q 338 619 340 631 q 286 290 301 397 q 418 267 343 269 q 600 474 600 290 z "},"ß":{"ha":1225,"x_min":47,"x_max":1186,"o":"m 235 -12 q 74 14 140 -12 l 51 24 l 47 36 q 86 224 72 121 l 143 229 q 138 143 138 183 q 150 82 138 103 q 250 47 172 47 q 373 81 328 47 q 418 160 418 114 q 388 234 418 206 q 275 308 357 263 q 156 392 193 353 q 118 483 118 431 q 197 640 118 576 q 393 704 276 704 q 571 676 482 704 l 574 669 q 526 485 546 585 l 476 481 l 469 486 q 481 567 481 531 q 455 620 481 603 q 367 638 429 638 q 262 607 304 638 q 219 528 219 576 q 303 425 219 479 q 360 393 321 414 q 422 357 399 372 q 474 319 446 342 q 528 214 528 276 q 446 51 528 115 q 235 -12 364 -12 m 847 -12 q 686 14 753 -12 l 664 24 l 660 36 q 699 224 685 121 l 756 229 q 750 143 750 183 q 763 82 750 103 q 863 47 785 47 q 985 81 940 47 q 1031 160 1031 114 q 1000 234 1031 206 q 888 308 969 263 q 768 392 806 353 q 731 483 731 431 q 810 640 731 576 q 1006 704 889 704 q 1183 676 1094 704 l 1186 669 q 1139 485 1158 585 l 1089 481 l 1082 486 q 1093 567 1093 531 q 1067 620 1093 603 q 979 638 1042 638 q 874 607 917 638 q 832 528 832 576 q 915 425 832 479 q 972 393 933 414 q 1035 357 1011 372 q 1086 319 1058 342 q 1140 214 1140 276 q 1058 51 1140 115 q 847 -12 976 -12 z "},"à":{"ha":681,"x_min":-31,"x_max":650,"o":"m 433 244 l 322 246 q 206 238 276 246 l 156 131 q 140 85 140 101 q 197 49 140 49 l 257 49 l 257 44 l 246 -7 q 93 0 165 0 l -31 -3 l -15 53 q 36 73 15 56 q 78 133 57 90 l 351 685 l 444 704 l 454 703 q 557 128 507 357 q 584 70 565 86 q 647 50 603 54 l 650 46 l 638 -3 q 518 0 557 0 q 349 -10 456 0 l 346 -3 l 356 44 q 436 59 417 49 q 456 92 456 69 q 433 244 456 110 m 326 299 q 424 304 374 299 l 376 578 l 367 578 l 235 299 l 326 299 m 238 885 l 232 899 l 254 965 l 267 974 q 543 822 413 890 l 535 789 l 524 782 l 238 885 z "},"á":{"ha":681,"x_min":-31,"x_max":650,"o":"m 433 244 l 322 246 q 206 238 276 246 l 156 131 q 140 85 140 101 q 197 49 140 49 l 257 49 l 257 44 l 246 -7 q 93 0 165 0 l -31 -3 l -15 53 q 36 73 15 56 q 78 133 57 90 l 351 685 l 444 704 l 454 703 q 557 128 507 357 q 584 70 565 86 q 647 50 603 54 l 650 46 l 638 -3 q 518 0 557 0 q 349 -10 456 0 l 346 -3 l 356 44 q 436 59 417 49 q 456 92 456 69 q 433 244 456 110 m 326 299 q 424 304 374 299 l 376 578 l 367 578 l 235 299 l 326 299 m 622 899 l 617 885 q 331 782 476 838 l 319 789 l 311 822 l 588 974 l 600 965 l 622 899 z "},"â":{"ha":681,"x_min":-31,"x_max":650,"o":"m 433 244 l 322 246 q 206 238 276 246 l 156 131 q 140 85 140 101 q 197 49 140 49 l 257 49 l 257 44 l 246 -7 q 93 0 165 0 l -31 -3 l -15 53 q 36 73 15 56 q 78 133 57 90 l 351 685 l 444 704 l 454 703 q 557 128 507 357 q 584 70 565 86 q 647 50 603 54 l 650 46 l 638 -3 q 518 0 557 0 q 349 -10 456 0 l 346 -3 l 356 44 q 436 59 417 49 q 456 92 456 69 q 433 244 456 110 m 326 299 q 424 304 374 299 l 376 578 l 367 578 l 235 299 l 326 299 m 239 796 l 224 826 l 428 981 l 447 981 l 614 826 l 590 796 l 578 794 l 425 885 l 251 794 l 239 796 z "},"ã":{"ha":681,"x_min":-31,"x_max":650,"o":"m 433 244 l 322 246 q 206 238 276 246 l 156 131 q 140 85 140 101 q 197 49 140 49 l 257 49 l 257 44 l 246 -7 q 93 0 165 0 l -31 -3 l -15 53 q 36 73 15 56 q 78 133 57 90 l 351 685 l 444 704 l 454 703 q 557 128 507 357 q 584 70 565 86 q 647 50 603 54 l 650 46 l 638 -3 q 518 0 557 0 q 349 -10 456 0 l 346 -3 l 356 44 q 436 59 417 49 q 456 92 456 69 q 433 244 456 110 m 326 299 q 424 304 374 299 l 376 578 l 367 578 l 235 299 l 326 299 m 333 928 q 431 905 357 928 q 522 882 506 882 q 615 944 550 882 l 624 944 l 650 915 l 650 908 l 535 799 l 513 793 q 415 816 489 793 q 325 839 342 839 q 247 792 294 839 l 232 776 l 224 776 l 196 806 l 197 813 l 313 922 l 333 928 z "},"ä":{"ha":681,"x_min":-31,"x_max":650,"o":"m 433 244 l 322 246 q 206 238 276 246 l 156 131 q 140 85 140 101 q 197 49 140 49 l 257 49 l 257 44 l 246 -7 q 93 0 165 0 l -31 -3 l -15 53 q 36 73 15 56 q 78 133 57 90 l 351 685 l 444 704 l 454 703 q 557 128 507 357 q 584 70 565 86 q 647 50 603 54 l 650 46 l 638 -3 q 518 0 557 0 q 349 -10 456 0 l 346 -3 l 356 44 q 436 59 417 49 q 456 92 456 69 q 433 244 456 110 m 326 299 q 424 304 374 299 l 376 578 l 367 578 l 235 299 l 326 299 m 599 885 q 599 872 599 885 q 576 835 599 858 q 525 813 553 813 q 472 865 472 813 q 495 919 472 896 q 545 942 518 942 q 585 926 572 942 q 599 885 599 911 m 376 885 q 376 872 376 885 q 353 835 376 858 q 303 813 331 813 q 250 865 250 813 q 272 919 250 896 q 322 942 294 942 q 363 926 350 942 q 376 885 376 911 z "},"å":{"ha":681,"x_min":-31,"x_max":650,"o":"m 433 244 l 322 246 q 206 238 276 246 l 156 131 q 140 85 140 101 q 197 49 140 49 l 257 49 l 257 44 l 246 -7 q 93 0 165 0 l -31 -3 l -15 53 q 36 73 15 56 q 78 133 57 90 l 351 685 l 444 704 l 454 703 q 557 128 507 357 q 584 70 565 86 q 647 50 603 54 l 650 46 l 638 -3 q 518 0 557 0 q 349 -10 456 0 l 346 -3 l 356 44 q 436 59 417 49 q 456 92 456 69 q 433 244 456 110 m 326 299 q 424 304 374 299 l 376 578 l 367 578 l 235 299 l 326 299 m 417 794 q 483 857 483 794 q 422 915 483 915 q 374 899 392 915 q 357 853 357 882 q 376 809 357 824 q 417 794 394 794 m 532 870 q 532 847 532 870 q 495 783 532 824 q 408 742 458 742 q 335 767 358 742 q 311 843 311 793 q 348 931 311 893 q 436 969 385 969 q 510 943 488 969 q 532 870 532 917 z "},"æ":{"ha":939,"x_min":-15,"x_max":892,"o":"m 439 129 l 440 167 l 438 289 l 331 281 l 232 267 l 147 132 q 125 79 125 94 q 138 58 125 64 q 182 51 150 51 l 236 50 l 222 -7 q 63 0 131 0 l -14 -4 l -15 43 q 20 76 -7 43 q 64 135 47 110 l 378 618 q 353 638 374 638 l 317 636 l 313 642 l 328 694 q 603 692 435 692 q 867 704 772 692 l 869 697 q 822 511 842 611 l 754 506 q 764 576 764 546 q 736 617 764 607 q 636 626 708 626 q 550 619 564 626 q 536 593 536 611 l 540 363 l 663 375 l 767 392 l 774 383 l 751 315 l 654 311 l 542 301 l 549 133 q 567 76 550 93 q 626 60 585 60 q 769 81 736 60 q 825 190 801 103 l 888 196 l 892 189 q 839 0 860 97 l 832 -7 q 692 -2 835 -4 q 500 0 550 0 q 324 -10 428 0 l 321 -3 l 329 47 q 439 129 439 56 m 274 338 l 436 350 l 435 574 l 422 574 l 274 338 z "},"ç":{"ha":715,"x_min":65,"x_max":693,"o":"m 65 278 q 184 584 65 464 q 486 704 303 704 q 689 678 572 704 l 693 669 q 642 483 661 586 l 578 478 q 588 544 588 524 q 447 632 588 632 q 256 543 329 632 q 183 321 183 454 q 237 119 183 188 q 385 51 290 51 q 582 218 524 51 l 646 224 q 596 42 613 121 l 588 31 q 401 -11 513 -4 l 375 -69 q 428 -111 404 -89 q 458 -142 451 -133 q 475 -187 475 -168 q 417 -282 475 -240 q 297 -324 358 -324 q 238 -310 265 -324 q 211 -276 211 -297 q 256 -196 211 -254 l 267 -196 q 267 -219 267 -201 q 283 -256 267 -236 q 329 -275 299 -275 q 381 -259 360 -275 q 401 -219 401 -243 q 300 -118 401 -183 l 344 -11 q 141 73 217 -4 q 65 278 65 150 z "},"è":{"ha":678,"x_min":46,"x_max":649,"o":"m 283 388 l 393 386 l 526 397 l 531 392 l 507 321 q 367 324 415 324 q 272 317 318 324 q 258 224 267 275 q 240 99 240 125 q 256 65 240 72 q 318 57 271 57 q 478 78 442 57 q 538 188 514 100 l 596 193 l 599 186 q 546 0 568 94 l 539 -7 q 243 0 318 0 q 46 -11 129 0 l 60 44 q 128 69 108 50 q 154 136 147 89 q 211 608 211 594 q 206 630 211 621 q 178 639 201 639 l 142 638 l 139 643 l 153 694 q 394 690 246 690 q 646 704 543 690 l 649 697 q 601 513 621 613 l 539 508 q 549 580 549 549 q 520 620 549 611 q 418 629 492 629 q 333 623 344 629 q 317 589 321 617 l 283 388 m 249 885 l 243 899 l 265 965 l 278 974 q 554 822 424 890 l 546 789 l 535 782 l 249 885 z "},"é":{"ha":678,"x_min":46,"x_max":649,"o":"m 283 388 l 393 386 l 526 397 l 531 392 l 507 321 q 367 324 415 324 q 272 317 318 324 q 258 224 267 275 q 240 99 240 125 q 256 65 240 72 q 318 57 271 57 q 478 78 442 57 q 538 188 514 100 l 596 193 l 599 186 q 546 0 568 94 l 539 -7 q 243 0 318 0 q 46 -11 129 0 l 60 44 q 128 69 108 50 q 154 136 147 89 q 211 608 211 594 q 206 630 211 621 q 178 639 201 639 l 142 638 l 139 643 l 153 694 q 394 690 246 690 q 646 704 543 690 l 649 697 q 601 513 621 613 l 539 508 q 549 580 549 549 q 520 620 549 611 q 418 629 492 629 q 333 623 344 629 q 317 589 321 617 l 283 388 m 590 899 l 585 885 q 299 782 444 838 l 288 789 l 279 822 l 556 974 l 568 965 l 590 899 z "},"ê":{"ha":678,"x_min":46,"x_max":649,"o":"m 283 388 l 393 386 l 526 397 l 531 392 l 507 321 q 367 324 415 324 q 272 317 318 324 q 258 224 267 275 q 240 99 240 125 q 256 65 240 72 q 318 57 271 57 q 478 78 442 57 q 538 188 514 100 l 596 193 l 599 186 q 546 0 568 94 l 539 -7 q 243 0 318 0 q 46 -11 129 0 l 60 44 q 128 69 108 50 q 154 136 147 89 q 211 608 211 594 q 206 630 211 621 q 178 639 201 639 l 142 638 l 139 643 l 153 694 q 394 690 246 690 q 646 704 543 690 l 649 697 q 601 513 621 613 l 539 508 q 549 580 549 549 q 520 620 549 611 q 418 629 492 629 q 333 623 344 629 q 317 589 321 617 l 283 388 m 251 796 l 236 826 l 440 981 l 460 981 l 626 826 l 603 796 l 590 794 l 438 885 l 264 794 l 251 796 z "},"ë":{"ha":678,"x_min":46,"x_max":649,"o":"m 283 388 l 393 386 l 526 397 l 531 392 l 507 321 q 367 324 415 324 q 272 317 318 324 q 258 224 267 275 q 240 99 240 125 q 256 65 240 72 q 318 57 271 57 q 478 78 442 57 q 538 188 514 100 l 596 193 l 599 186 q 546 0 568 94 l 539 -7 q 243 0 318 0 q 46 -11 129 0 l 60 44 q 128 69 108 50 q 154 136 147 89 q 211 608 211 594 q 206 630 211 621 q 178 639 201 639 l 142 638 l 139 643 l 153 694 q 394 690 246 690 q 646 704 543 690 l 649 697 q 601 513 621 613 l 539 508 q 549 580 549 549 q 520 620 549 611 q 418 629 492 629 q 333 623 344 629 q 317 589 321 617 l 283 388 m 611 885 q 611 872 611 885 q 588 835 611 858 q 538 813 565 813 q 485 865 485 813 q 508 919 485 896 q 558 942 531 942 q 598 926 585 942 q 611 885 611 911 m 389 885 q 389 872 389 885 q 366 835 389 858 q 315 813 343 813 q 263 865 263 813 q 285 919 263 896 q 335 942 307 942 q 376 926 363 942 q 389 885 389 911 z "},"ì":{"ha":426,"x_min":43,"x_max":424,"o":"m 144 694 l 279 690 l 413 701 l 400 646 q 339 628 356 640 q 317 586 322 617 q 242 99 242 163 q 282 53 242 53 l 338 56 l 340 51 l 324 -3 q 189 0 228 0 q 43 -12 118 0 l 57 42 q 128 71 108 51 q 154 135 149 90 q 211 608 211 596 q 206 629 211 619 q 176 639 201 639 l 132 638 q 131 643 131 642 l 144 694 m 118 885 l 113 899 l 135 965 l 147 974 q 424 822 293 890 l 415 789 l 404 782 l 118 885 z "},"í":{"ha":426,"x_min":43,"x_max":465,"o":"m 144 694 l 279 690 l 413 701 l 400 646 q 339 628 356 640 q 317 586 322 617 q 242 99 242 163 q 282 53 242 53 l 338 56 l 340 51 l 324 -3 q 189 0 228 0 q 43 -12 118 0 l 57 42 q 128 71 108 51 q 154 135 149 90 q 211 608 211 596 q 206 629 211 619 q 176 639 201 639 l 132 638 q 131 643 131 642 l 144 694 m 465 899 l 460 885 q 174 782 319 838 l 163 789 l 154 822 l 431 974 l 443 965 l 465 899 z "},"î":{"ha":426,"x_min":43,"x_max":482,"o":"m 144 694 l 279 690 l 413 701 l 400 646 q 339 628 356 640 q 317 586 322 617 q 242 99 242 163 q 282 53 242 53 l 338 56 l 340 51 l 324 -3 q 189 0 228 0 q 43 -12 118 0 l 57 42 q 128 71 108 51 q 154 135 149 90 q 211 608 211 596 q 206 629 211 619 q 176 639 201 639 l 132 638 q 131 643 131 642 l 144 694 m 107 796 l 92 826 l 296 981 l 315 981 l 482 826 l 458 796 l 446 794 l 293 885 l 119 794 l 107 796 z "},"ï":{"ha":426,"x_min":43,"x_max":467,"o":"m 144 694 l 279 690 l 413 701 l 400 646 q 339 628 356 640 q 317 586 322 617 q 242 99 242 163 q 282 53 242 53 l 338 56 l 340 51 l 324 -3 q 189 0 228 0 q 43 -12 118 0 l 57 42 q 128 71 108 51 q 154 135 149 90 q 211 608 211 596 q 206 629 211 619 q 176 639 201 639 l 132 638 q 131 643 131 642 l 144 694 m 467 885 q 467 872 467 885 q 444 835 467 858 q 393 813 421 813 q 340 865 340 813 q 363 919 340 896 q 413 942 386 942 q 453 926 440 942 q 467 885 467 911 m 244 885 q 244 872 244 885 q 222 835 244 858 q 171 813 199 813 q 118 865 118 813 q 140 919 118 896 q 190 942 163 942 q 231 926 218 942 q 244 885 244 911 z "},"ð":{"ha":808,"x_min":39,"x_max":776,"o":"m 358 -12 q 206 0 247 0 q 60 -12 132 0 l 72 43 q 144 71 125 53 q 169 135 164 89 l 192 324 l 46 324 l 39 331 l 53 375 l 199 375 q 225 608 225 594 q 220 630 225 621 q 193 639 215 639 l 154 638 l 153 643 l 167 694 q 286 690 244 690 l 444 696 q 684 617 592 696 q 776 410 776 539 q 654 110 776 233 q 358 -12 532 -12 m 375 635 q 347 630 354 635 q 336 610 339 625 l 296 375 l 467 375 l 472 368 l 460 324 l 288 324 q 260 120 260 160 q 285 66 260 81 q 379 51 311 51 q 582 144 506 51 q 658 390 658 238 q 586 572 658 510 q 375 635 514 635 z "},"ñ":{"ha":819,"x_min":51,"x_max":831,"o":"m 664 603 q 632 639 664 639 l 592 638 l 589 643 l 606 696 q 717 690 678 690 l 831 700 l 819 644 q 736 576 746 635 l 647 -25 l 597 -40 q 279 531 446 249 l 272 531 l 213 97 q 217 63 210 72 q 243 53 224 53 l 296 53 l 300 49 l 283 -4 q 163 0 210 0 l 51 -8 l 65 46 q 140 114 133 54 q 214 599 214 583 q 126 644 214 636 q 124 651 124 650 l 136 696 q 238 690 201 690 l 317 696 q 606 178 449 444 l 611 178 q 664 603 664 597 m 404 928 q 502 905 428 928 q 592 882 576 882 q 686 944 621 882 l 694 944 l 721 915 l 721 908 l 606 799 l 583 793 q 486 816 560 793 q 397 839 413 839 q 319 792 365 839 l 303 776 l 294 776 l 267 806 l 268 813 l 383 922 l 404 928 z "},"ò":{"ha":783,"x_min":65,"x_max":749,"o":"m 374 51 q 558 142 486 51 q 631 379 631 233 q 576 562 631 493 q 431 631 521 631 q 249 539 321 631 q 178 317 178 447 q 231 119 178 188 q 374 51 285 51 m 344 -12 q 142 67 219 -12 q 65 278 65 147 q 181 581 65 458 q 464 704 296 704 q 670 624 592 704 q 749 414 749 544 q 631 110 749 233 q 344 -12 514 -12 m 282 885 l 276 899 l 299 965 l 311 974 q 588 822 457 890 l 579 789 l 568 782 l 282 885 z "},"ó":{"ha":783,"x_min":65,"x_max":749,"o":"m 374 51 q 558 142 486 51 q 631 379 631 233 q 576 562 631 493 q 431 631 521 631 q 249 539 321 631 q 178 317 178 447 q 231 119 178 188 q 374 51 285 51 m 344 -12 q 142 67 219 -12 q 65 278 65 147 q 181 581 65 458 q 464 704 296 704 q 670 624 592 704 q 749 414 749 544 q 631 110 749 233 q 344 -12 514 -12 m 636 899 l 631 885 q 344 782 490 838 l 333 789 l 325 822 l 601 974 l 614 965 l 636 899 z "},"ô":{"ha":783,"x_min":65,"x_max":749,"o":"m 374 51 q 558 142 486 51 q 631 379 631 233 q 576 562 631 493 q 431 631 521 631 q 249 539 321 631 q 178 317 178 447 q 231 119 178 188 q 374 51 285 51 m 344 -12 q 142 67 219 -12 q 65 278 65 147 q 181 581 65 458 q 464 704 296 704 q 670 624 592 704 q 749 414 749 544 q 631 110 749 233 q 344 -12 514 -12 m 274 796 l 258 826 l 463 981 l 482 981 l 649 826 l 625 796 l 613 794 l 460 885 l 286 794 l 274 796 z "},"õ":{"ha":783,"x_min":65,"x_max":749,"o":"m 374 51 q 558 142 486 51 q 631 379 631 233 q 576 562 631 493 q 431 631 521 631 q 249 539 321 631 q 178 317 178 447 q 231 119 178 188 q 374 51 285 51 m 344 -12 q 142 67 219 -12 q 65 278 65 147 q 181 581 65 458 q 464 704 296 704 q 670 624 592 704 q 749 414 749 544 q 631 110 749 233 q 344 -12 514 -12 m 379 928 q 477 905 403 928 q 567 882 551 882 q 661 944 596 882 l 669 944 l 696 915 l 696 908 l 581 799 l 558 793 q 461 816 535 793 q 372 839 388 839 q 294 792 340 839 l 278 776 l 269 776 l 242 806 l 243 813 l 358 922 l 379 928 z "},"ö":{"ha":783,"x_min":65,"x_max":749,"o":"m 374 51 q 558 142 486 51 q 631 379 631 233 q 576 562 631 493 q 431 631 521 631 q 249 539 321 631 q 178 317 178 447 q 231 119 178 188 q 374 51 285 51 m 344 -12 q 142 67 219 -12 q 65 278 65 147 q 181 581 65 458 q 464 704 296 704 q 670 624 592 704 q 749 414 749 544 q 631 110 749 233 q 344 -12 514 -12 m 633 885 q 633 872 633 885 q 610 835 633 858 q 560 813 588 813 q 507 865 507 813 q 530 919 507 896 q 580 942 553 942 q 620 926 607 942 q 633 885 633 911 m 411 885 q 411 872 411 885 q 388 835 411 858 q 338 813 365 813 q 285 865 285 813 q 307 919 285 896 q 357 942 329 942 q 398 926 385 942 q 411 885 411 911 z "},"÷":{"ha":675,"x_min":28,"x_max":663,"o":"m 656 413 l 663 399 l 643 328 l 35 325 l 28 338 l 51 406 q 369 404 250 404 l 656 413 m 390 132 q 390 115 390 132 q 363 69 390 97 q 299 40 336 40 q 245 60 263 40 q 228 115 228 81 q 255 177 228 149 q 319 206 282 206 q 373 186 356 206 q 390 132 390 167 m 450 617 q 450 599 450 617 q 423 553 450 582 q 358 525 396 525 q 304 545 321 525 q 288 599 288 565 q 315 662 288 633 q 378 690 342 690 q 433 671 415 690 q 450 617 450 651 z "},"ø":{"ha":783,"x_min":65,"x_max":749,"o":"m 190 29 q 65 283 65 107 q 181 581 65 458 q 464 704 296 704 q 564 689 515 704 l 608 768 l 646 757 l 649 743 l 607 671 q 711 568 674 635 q 749 414 749 501 q 631 110 749 233 q 344 -12 514 -12 q 229 8 288 -12 l 163 -107 l 128 -97 l 125 -86 l 190 29 m 374 51 q 558 142 486 51 q 631 374 631 233 q 556 583 631 515 l 271 81 q 374 51 314 51 m 431 631 q 249 539 321 631 q 178 314 178 447 q 238 113 178 181 l 518 610 q 431 631 476 631 z "},"ù":{"ha":769,"x_min":101,"x_max":782,"o":"m 228 217 q 266 98 228 139 q 376 57 304 57 q 571 231 551 57 q 611 605 611 589 q 606 630 611 621 q 578 639 600 639 l 532 638 l 531 642 l 544 694 q 668 690 626 690 l 782 700 l 769 646 q 708 628 722 639 q 689 586 693 618 l 644 228 q 552 50 631 113 q 356 -12 474 -12 q 126 182 124 -12 q 129 225 125 201 q 175 603 175 588 q 169 629 175 619 q 140 639 164 639 l 103 638 l 101 642 l 117 694 q 246 690 200 690 l 365 700 l 354 646 q 299 628 314 640 q 278 585 283 615 l 231 268 q 228 217 228 250 m 286 885 l 281 899 l 303 965 l 315 974 q 592 822 461 890 l 583 789 l 572 782 l 286 885 z "},"ú":{"ha":769,"x_min":101,"x_max":782,"o":"m 228 217 q 266 98 228 139 q 376 57 304 57 q 571 231 551 57 q 611 605 611 589 q 606 630 611 621 q 578 639 600 639 l 532 638 l 531 642 l 544 694 q 668 690 626 690 l 782 700 l 769 646 q 708 628 722 639 q 689 586 693 618 l 644 228 q 552 50 631 113 q 356 -12 474 -12 q 126 182 124 -12 q 129 225 125 201 q 175 603 175 588 q 169 629 175 619 q 140 639 164 639 l 103 638 l 101 642 l 117 694 q 246 690 200 690 l 365 700 l 354 646 q 299 628 314 640 q 278 585 283 615 l 231 268 q 228 217 228 250 m 671 899 l 665 885 q 379 782 525 838 l 368 789 l 360 822 l 636 974 l 649 965 l 671 899 z "},"û":{"ha":769,"x_min":101,"x_max":782,"o":"m 228 217 q 266 98 228 139 q 376 57 304 57 q 571 231 551 57 q 611 605 611 589 q 606 630 611 621 q 578 639 600 639 l 532 638 l 531 642 l 544 694 q 668 690 626 690 l 782 700 l 769 646 q 708 628 722 639 q 689 586 693 618 l 644 228 q 552 50 631 113 q 356 -12 474 -12 q 126 182 124 -12 q 129 225 125 201 q 175 603 175 588 q 169 629 175 619 q 140 639 164 639 l 103 638 l 101 642 l 117 694 q 246 690 200 690 l 365 700 l 354 646 q 299 628 314 640 q 278 585 283 615 l 231 268 q 228 217 228 250 m 290 796 l 275 826 l 479 981 l 499 981 l 665 826 l 642 796 l 629 794 l 476 885 l 303 794 l 290 796 z "},"ü":{"ha":769,"x_min":101,"x_max":782,"o":"m 228 217 q 266 98 228 139 q 376 57 304 57 q 571 231 551 57 q 611 605 611 589 q 606 630 611 621 q 578 639 600 639 l 532 638 l 531 642 l 544 694 q 668 690 626 690 l 782 700 l 769 646 q 708 628 722 639 q 689 586 693 618 l 644 228 q 552 50 631 113 q 356 -12 474 -12 q 126 182 124 -12 q 129 225 125 201 q 175 603 175 588 q 169 629 175 619 q 140 639 164 639 l 103 638 l 101 642 l 117 694 q 246 690 200 690 l 365 700 l 354 646 q 299 628 314 640 q 278 585 283 615 l 231 268 q 228 217 228 250 m 649 885 q 649 872 649 885 q 626 835 649 858 q 575 813 603 813 q 522 865 522 813 q 545 919 522 896 q 595 942 568 942 q 635 926 622 942 q 649 885 649 911 m 426 885 q 426 872 426 885 q 403 835 426 858 q 353 813 381 813 q 300 865 300 813 q 322 919 300 896 q 372 942 344 942 q 413 926 400 942 q 426 885 426 911 z "},"ý":{"ha":640,"x_min":49,"x_max":696,"o":"m 463 699 l 588 690 l 692 694 l 696 688 l 682 642 q 582 581 622 631 q 474 429 560 554 q 383 296 388 304 q 376 281 379 288 q 369 263 372 275 q 365 245 367 251 q 361 222 364 239 q 357 197 358 206 q 344 94 344 113 q 351 65 344 76 q 386 53 357 53 l 440 56 l 442 51 l 426 -4 q 292 0 328 0 q 142 -12 219 0 l 156 42 q 233 74 215 53 q 258 156 251 96 q 264 247 264 217 q 246 321 264 276 l 171 521 q 123 616 142 597 q 51 642 104 635 l 49 647 l 63 694 q 186 690 138 690 l 347 700 l 350 692 l 340 649 q 272 636 289 644 q 256 612 256 628 q 269 553 256 596 q 339 343 283 506 l 346 343 l 490 563 q 514 619 514 597 q 451 646 514 642 l 449 651 l 463 699 m 613 899 l 607 885 q 321 782 467 838 l 310 789 l 301 822 l 578 974 l 590 965 l 613 899 z "},"þ":{"ha":629,"x_min":42,"x_max":614,"o":"m 142 694 l 278 692 l 411 701 l 399 646 q 336 628 353 639 q 315 588 319 617 l 308 547 l 397 547 q 558 506 503 547 q 614 381 614 465 q 526 227 614 296 q 325 158 438 158 l 247 158 q 240 88 240 101 q 247 64 240 75 q 281 53 253 53 l 339 57 l 339 51 l 325 -3 q 189 0 226 0 q 42 -12 117 0 l 56 43 q 126 72 107 53 q 151 136 146 90 q 210 606 210 593 q 205 629 210 619 q 175 639 200 639 l 131 638 l 128 643 l 142 694 m 504 368 q 326 488 504 488 q 297 476 299 488 q 257 233 289 431 q 363 214 301 217 q 504 368 504 233 z "},"ÿ":{"ha":640,"x_min":49,"x_max":696,"o":"m 463 699 l 588 690 l 692 694 l 696 688 l 682 642 q 582 581 622 631 q 474 429 560 554 q 383 296 388 304 q 376 281 379 288 q 369 263 372 275 q 365 245 367 251 q 361 222 364 239 q 357 197 358 206 q 344 94 344 113 q 351 65 344 76 q 386 53 357 53 l 440 56 l 442 51 l 426 -4 q 292 0 328 0 q 142 -12 219 0 l 156 42 q 233 74 215 53 q 258 156 251 96 q 264 247 264 217 q 246 321 264 276 l 171 521 q 123 616 142 597 q 51 642 104 635 l 49 647 l 63 694 q 186 690 138 690 l 347 700 l 350 692 l 340 649 q 272 636 289 644 q 256 612 256 628 q 269 553 256 596 q 339 343 283 506 l 346 343 l 490 563 q 514 619 514 597 q 451 646 514 642 l 449 651 l 463 699 m 590 885 q 590 872 590 885 q 567 835 590 858 q 517 813 544 813 q 464 865 464 813 q 487 919 464 896 q 537 942 510 942 q 577 926 564 942 q 590 885 590 911 m 368 885 q 368 872 368 885 q 345 835 368 858 q 294 813 322 813 q 242 865 242 813 q 264 919 242 896 q 314 942 286 942 q 355 926 342 942 q 368 885 368 911 z "},"Ā":{"ha":775,"x_min":-62,"x_max":753,"o":"m 399 -14 l 396 -4 l 407 46 q 509 65 483 51 q 535 115 535 79 q 504 325 535 133 q 388 326 471 326 q 217 315 306 326 l 149 165 q 129 101 129 125 q 203 51 129 51 l 281 51 l 281 47 l 267 -10 q 83 0 172 0 l -62 -4 l -44 58 q 22 85 -4 63 q 75 167 47 108 l 419 876 l 497 900 l 508 901 q 633 154 569 475 q 667 81 643 101 q 750 54 692 61 l 753 50 l 738 -4 q 574 0 642 0 q 399 -14 507 0 m 367 376 q 493 385 432 376 l 432 756 l 422 756 l 249 376 l 367 376 m 685 1094 l 692 1081 l 674 1015 l 292 1013 l 285 1025 l 307 1088 q 511 1086 433 1086 l 685 1094 z "},"ā":{"ha":681,"x_min":-31,"x_max":650,"o":"m 433 244 l 322 246 q 206 238 276 246 l 156 131 q 140 85 140 101 q 197 49 140 49 l 257 49 l 257 44 l 246 -7 q 93 0 165 0 l -31 -3 l -15 53 q 36 73 15 56 q 78 133 57 90 l 351 685 l 444 704 l 454 703 q 557 128 507 357 q 584 70 565 86 q 647 50 603 54 l 650 46 l 638 -3 q 518 0 557 0 q 349 -10 456 0 l 346 -3 l 356 44 q 436 59 417 49 q 456 92 456 69 q 433 244 456 110 m 326 299 q 424 304 374 299 l 376 578 l 367 578 l 235 299 l 326 299 m 617 900 l 624 886 l 606 821 l 224 818 l 217 831 l 239 893 q 443 892 365 892 l 617 900 z "},"Ă":{"ha":775,"x_min":-62,"x_max":753,"o":"m 399 -14 l 396 -4 l 407 46 q 509 65 483 51 q 535 115 535 79 q 504 325 535 133 q 388 326 471 326 q 217 315 306 326 l 149 165 q 129 101 129 125 q 203 51 129 51 l 281 51 l 281 47 l 267 -10 q 83 0 172 0 l -62 -4 l -44 58 q 22 85 -4 63 q 75 167 47 108 l 419 876 l 497 900 l 508 901 q 633 154 569 475 q 667 81 643 101 q 750 54 692 61 l 753 50 l 738 -4 q 574 0 642 0 q 399 -14 507 0 m 367 376 q 493 385 432 376 l 432 756 l 422 756 l 249 376 l 367 376 m 371 1136 q 491 1067 396 1067 q 628 1136 586 1067 l 639 1136 l 660 1122 q 590 1025 636 1064 q 481 986 544 986 q 381 1025 417 986 q 335 1122 344 1064 l 360 1136 l 371 1136 z "},"ă":{"ha":681,"x_min":-31,"x_max":650,"o":"m 433 244 l 322 246 q 206 238 276 246 l 156 131 q 140 85 140 101 q 197 49 140 49 l 257 49 l 257 44 l 246 -7 q 93 0 165 0 l -31 -3 l -15 53 q 36 73 15 56 q 78 133 57 90 l 351 685 l 444 704 l 454 703 q 557 128 507 357 q 584 70 565 86 q 647 50 603 54 l 650 46 l 638 -3 q 518 0 557 0 q 349 -10 456 0 l 346 -3 l 356 44 q 436 59 417 49 q 456 92 456 69 q 433 244 456 110 m 326 299 q 424 304 374 299 l 376 578 l 367 578 l 235 299 l 326 299 m 301 942 q 422 872 326 872 q 558 942 517 872 l 569 942 l 590 928 q 521 831 567 869 q 411 792 475 792 q 311 831 347 792 q 265 928 275 869 l 290 942 l 301 942 z "},"Ą":{"ha":775,"x_min":-62,"x_max":753,"o":"m 590 -336 q 493 -306 529 -336 q 457 -223 457 -275 q 495 -119 457 -171 q 610 0 533 -68 l 597 0 q 399 -14 507 0 l 396 -4 l 407 46 q 509 65 483 51 q 535 115 535 79 q 504 325 535 133 q 388 326 471 326 q 217 315 306 326 l 149 165 q 129 101 129 125 q 203 51 129 51 l 281 51 l 281 47 l 267 -10 q 83 0 172 0 l -62 -4 l -44 58 q 22 85 -4 63 q 75 167 47 108 l 419 876 l 497 900 l 508 901 q 633 154 569 475 q 667 81 643 101 q 750 54 692 61 l 753 50 l 738 -4 l 668 -1 q 572 -106 597 -68 q 546 -181 546 -144 q 565 -235 546 -217 q 610 -254 583 -254 q 721 -222 663 -254 l 735 -249 q 590 -336 661 -312 m 367 376 q 493 385 432 376 l 432 756 l 422 756 l 249 376 l 367 376 z "},"ą":{"ha":681,"x_min":-31,"x_max":650,"o":"m 433 244 l 322 246 q 206 238 276 246 l 156 131 q 140 85 140 101 q 197 49 140 49 l 257 49 l 257 44 l 246 -7 q 93 0 165 0 l -31 -3 l -15 53 q 36 73 15 56 q 78 133 57 90 l 351 685 l 444 704 l 454 703 q 557 128 507 357 q 608 57 568 69 l 643 57 l 636 51 q 647 50 640 50 l 650 46 l 638 -3 l 582 0 q 485 -107 511 -68 q 460 -181 460 -146 q 478 -235 460 -217 q 524 -254 497 -254 q 635 -222 576 -254 l 649 -249 q 504 -336 575 -312 q 407 -306 443 -336 q 371 -223 371 -275 q 409 -119 371 -171 q 524 0 447 -68 l 517 0 q 349 -10 456 0 l 346 -3 l 356 44 q 436 59 417 49 q 456 92 456 69 q 433 244 456 110 m 326 299 q 424 304 374 299 l 376 578 l 367 578 l 235 299 l 326 299 z "},"Ć":{"ha":838,"x_min":63,"x_max":824,"o":"m 693 39 q 424 -17 586 -17 q 163 83 263 -17 q 63 351 63 183 q 211 742 63 585 q 579 900 360 900 q 819 868 671 900 l 824 860 q 761 632 785 757 l 701 626 q 714 708 714 681 q 532 825 714 825 q 281 705 378 825 q 183 392 183 585 q 254 140 183 233 q 447 46 325 46 q 706 268 628 46 l 765 274 q 701 51 722 149 l 693 39 m 772 1093 l 767 1079 q 481 976 626 1032 l 469 983 l 461 1017 l 738 1168 l 750 1160 l 772 1093 z "},"ć":{"ha":715,"x_min":65,"x_max":693,"o":"m 588 31 q 363 -12 497 -12 q 147 66 229 -12 q 65 278 65 144 q 184 584 65 464 q 486 704 303 704 q 689 678 572 704 l 693 669 q 642 483 661 586 l 578 478 q 588 544 588 524 q 447 632 588 632 q 256 543 329 632 q 183 321 183 454 q 237 119 183 188 q 385 51 290 51 q 582 218 524 51 l 646 224 q 596 42 613 121 l 588 31 m 661 899 l 656 885 q 369 782 515 838 l 358 789 l 350 822 l 626 974 l 639 965 l 661 899 z "},"Ĉ":{"ha":838,"x_min":63,"x_max":824,"o":"m 693 39 q 424 -17 586 -17 q 163 83 263 -17 q 63 351 63 183 q 211 742 63 585 q 579 900 360 900 q 819 868 671 900 l 824 860 q 761 632 785 757 l 701 626 q 714 708 714 681 q 532 825 714 825 q 281 705 378 825 q 183 392 183 585 q 254 140 183 233 q 447 46 325 46 q 706 268 628 46 l 765 274 q 701 51 722 149 l 693 39 m 368 975 l 351 1006 l 563 1218 l 582 1218 l 742 1006 l 718 975 l 706 974 l 560 1108 l 381 974 l 368 975 z "},"ĉ":{"ha":715,"x_min":65,"x_max":693,"o":"m 588 31 q 363 -12 497 -12 q 147 66 229 -12 q 65 278 65 144 q 184 584 65 464 q 486 704 303 704 q 689 678 572 704 l 693 669 q 642 483 661 586 l 578 478 q 588 544 588 524 q 447 632 588 632 q 256 543 329 632 q 183 321 183 454 q 237 119 183 188 q 385 51 290 51 q 582 218 524 51 l 646 224 q 596 42 613 121 l 588 31 m 279 781 l 263 811 l 474 1024 l 493 1024 l 653 811 l 629 781 l 617 779 l 471 914 l 292 779 l 279 781 z "},"Ċ":{"ha":838,"x_min":63,"x_max":824,"o":"m 693 39 q 424 -17 586 -17 q 163 83 263 -17 q 63 351 63 183 q 211 742 63 585 q 579 900 360 900 q 819 868 671 900 l 824 860 q 761 632 785 757 l 701 626 q 714 708 714 681 q 532 825 714 825 q 281 705 378 825 q 183 392 183 585 q 254 140 183 233 q 447 46 325 46 q 706 268 628 46 l 765 274 q 701 51 722 149 l 693 39 m 657 1084 q 657 1068 657 1084 q 631 1026 657 1053 q 571 999 604 999 q 522 1017 538 999 q 507 1066 507 1035 q 534 1124 507 1097 q 594 1151 561 1151 q 642 1133 626 1151 q 657 1084 657 1115 z "},"ċ":{"ha":715,"x_min":65,"x_max":693,"o":"m 588 31 q 363 -12 497 -12 q 147 66 229 -12 q 65 278 65 144 q 184 584 65 464 q 486 704 303 704 q 689 678 572 704 l 693 669 q 642 483 661 586 l 578 478 q 588 544 588 524 q 447 632 588 632 q 256 543 329 632 q 183 321 183 454 q 237 119 183 188 q 385 51 290 51 q 582 218 524 51 l 646 224 q 596 42 613 121 l 588 31 m 563 890 q 563 874 563 890 q 536 831 563 858 q 476 804 510 804 q 428 822 443 804 q 413 872 413 840 q 440 930 413 903 q 499 957 467 957 q 547 939 532 957 q 563 890 563 921 z "},"Č":{"ha":838,"x_min":63,"x_max":824,"o":"m 693 39 q 424 -17 586 -17 q 163 83 263 -17 q 63 351 63 183 q 211 742 63 585 q 579 900 360 900 q 819 868 671 900 l 824 860 q 761 632 785 757 l 701 626 q 714 708 714 681 q 532 825 714 825 q 281 705 378 825 q 183 392 183 585 q 254 140 183 233 q 447 46 325 46 q 706 268 628 46 l 765 274 q 701 51 722 149 l 693 39 m 768 1163 l 785 1132 l 579 978 l 561 978 l 394 1132 l 417 1163 l 431 1164 l 582 1074 l 756 1164 l 768 1163 z "},"č":{"ha":715,"x_min":65,"x_max":693,"o":"m 588 31 q 363 -12 497 -12 q 147 66 229 -12 q 65 278 65 144 q 184 584 65 464 q 486 704 303 704 q 689 678 572 704 l 693 669 q 642 483 661 586 l 578 478 q 588 544 588 524 q 447 632 588 632 q 256 543 329 632 q 183 321 183 454 q 237 119 183 188 q 385 51 290 51 q 582 218 524 51 l 646 224 q 596 42 613 121 l 588 31 m 671 968 l 688 938 l 482 783 l 464 783 l 297 938 l 319 968 l 333 969 l 485 879 l 658 969 l 671 968 z "},"Ď":{"ha":936,"x_min":39,"x_max":907,"o":"m 397 -17 q 214 0 261 0 q 39 -17 136 0 l 54 43 q 143 80 118 56 q 175 163 168 104 q 250 788 250 772 q 244 816 250 804 q 208 828 238 828 l 161 825 l 160 831 l 175 888 q 314 883 263 883 l 503 889 q 794 787 682 889 q 907 531 907 685 q 838 253 907 378 q 652 56 769 129 q 397 -17 535 -17 m 414 828 q 376 822 386 828 q 364 797 367 815 q 265 149 265 181 q 299 69 265 90 q 424 49 333 49 q 688 172 588 49 q 788 494 788 296 q 692 741 788 654 q 414 828 596 828 m 729 1163 l 746 1132 l 540 978 l 522 978 l 356 1132 l 378 1163 l 392 1164 l 543 1074 l 717 1164 l 729 1163 z "},"ď":{"ha":797,"x_min":46,"x_max":763,"o":"m 344 -12 q 192 0 233 0 q 46 -12 118 0 l 58 43 q 131 71 111 53 q 156 135 150 89 q 211 608 211 594 q 206 630 211 621 q 179 639 201 639 l 140 638 l 139 643 l 153 694 q 272 690 231 690 l 431 696 q 670 617 578 696 q 763 410 763 539 q 640 110 763 233 q 344 -12 518 -12 m 361 635 q 333 630 340 635 q 322 610 325 625 q 246 124 246 168 q 272 66 246 81 q 365 51 297 51 q 568 144 492 51 q 644 390 644 238 q 572 572 644 510 q 361 635 500 635 m 643 968 l 660 938 l 454 783 l 436 783 l 269 938 l 292 968 l 306 969 l 457 879 l 631 969 l 643 968 z "},"Đ":{"ha":950,"x_min":28,"x_max":921,"o":"m 411 -17 q 228 0 275 0 q 53 -17 150 0 l 68 43 q 157 80 132 56 q 189 163 182 104 l 221 422 l 36 422 l 28 432 l 43 476 l 228 476 q 264 788 264 772 q 258 816 264 804 q 222 828 251 828 l 175 825 l 174 831 l 189 888 q 328 883 276 883 l 517 889 q 808 787 696 889 q 921 531 921 685 q 852 253 921 378 q 666 56 783 129 q 411 -17 549 -17 m 428 828 q 390 822 400 828 q 378 797 381 815 l 325 476 l 550 476 l 556 467 l 542 422 l 317 422 q 279 149 279 182 q 313 69 279 90 q 438 49 347 49 q 701 172 601 49 q 801 494 801 296 q 706 741 801 654 q 428 828 610 828 z "},"đ":{"ha":808,"x_min":39,"x_max":776,"o":"m 358 -12 q 206 0 247 0 q 60 -12 132 0 l 72 43 q 144 71 125 53 q 169 135 164 89 l 192 324 l 46 324 l 39 331 l 53 375 l 199 375 q 225 608 225 594 q 220 630 225 621 q 193 639 215 639 l 154 638 l 153 643 l 167 694 q 286 690 244 690 l 444 696 q 684 617 592 696 q 776 410 776 539 q 654 110 776 233 q 358 -12 532 -12 m 375 635 q 347 630 354 635 q 336 610 339 625 l 296 375 l 467 375 l 472 368 l 460 324 l 288 324 q 260 120 260 160 q 285 66 260 81 q 379 51 311 51 q 582 144 506 51 q 658 390 658 238 q 586 572 658 510 q 375 635 514 635 z "},"Ē":{"ha":789,"x_min":40,"x_max":761,"o":"m 313 489 l 450 488 l 614 503 l 618 497 l 590 419 q 414 424 476 424 q 300 414 351 424 q 281 283 292 357 q 257 108 257 139 q 276 67 257 76 q 369 57 296 57 q 486 61 443 57 q 562 85 529 65 q 608 135 594 106 q 638 228 621 165 l 694 235 l 697 228 q 632 -3 658 114 l 625 -10 q 264 0 349 0 q 40 -14 135 0 l 56 46 q 142 78 117 54 q 174 163 167 103 q 250 788 250 772 q 244 816 250 804 q 207 828 238 828 l 161 825 l 160 829 l 175 888 q 459 883 278 883 q 758 900 640 883 l 761 893 q 703 665 726 793 l 642 660 q 654 755 654 714 q 619 808 654 796 q 487 819 583 819 q 376 812 390 819 q 356 765 361 804 l 313 489 m 706 1094 l 713 1081 l 694 1015 l 313 1013 l 306 1025 l 328 1088 q 532 1086 454 1086 l 706 1094 z "},"ē":{"ha":678,"x_min":46,"x_max":649,"o":"m 283 388 l 393 386 l 526 397 l 531 392 l 507 321 q 367 324 415 324 q 272 317 318 324 q 258 224 267 275 q 240 99 240 125 q 256 65 240 72 q 318 57 271 57 q 478 78 442 57 q 538 188 514 100 l 596 193 l 599 186 q 546 0 568 94 l 539 -7 q 243 0 318 0 q 46 -11 129 0 l 60 44 q 128 69 108 50 q 154 136 147 89 q 211 608 211 594 q 206 630 211 621 q 178 639 201 639 l 142 638 l 139 643 l 153 694 q 394 690 246 690 q 646 704 543 690 l 649 697 q 601 513 621 613 l 539 508 q 549 580 549 549 q 520 620 549 611 q 418 629 492 629 q 333 623 344 629 q 317 589 321 617 l 283 388 m 631 900 l 638 886 l 619 821 l 238 818 l 231 831 l 253 893 q 457 892 379 892 l 631 900 z "},"Ĕ":{"ha":789,"x_min":40,"x_max":761,"o":"m 313 489 l 450 488 l 614 503 l 618 497 l 590 419 q 414 424 476 424 q 300 414 351 424 q 281 283 292 357 q 257 108 257 139 q 276 67 257 76 q 369 57 296 57 q 486 61 443 57 q 562 85 529 65 q 608 135 594 106 q 638 228 621 165 l 694 235 l 697 228 q 632 -3 658 114 l 625 -10 q 264 0 349 0 q 40 -14 135 0 l 56 46 q 142 78 117 54 q 174 163 167 103 q 250 788 250 772 q 244 816 250 804 q 207 828 238 828 l 161 825 l 160 829 l 175 888 q 459 883 278 883 q 758 900 640 883 l 761 893 q 703 665 726 793 l 642 660 q 654 755 654 714 q 619 808 654 796 q 487 819 583 819 q 376 812 390 819 q 356 765 361 804 l 313 489 m 393 1176 q 511 1085 417 1085 q 650 1176 606 1085 l 663 1176 l 682 1163 q 613 1050 658 1096 q 501 1004 567 1004 q 401 1050 436 1004 q 358 1163 365 1096 l 382 1176 l 393 1176 z "},"ĕ":{"ha":678,"x_min":46,"x_max":649,"o":"m 283 388 l 393 386 l 526 397 l 531 392 l 507 321 q 367 324 415 324 q 272 317 318 324 q 258 224 267 275 q 240 99 240 125 q 256 65 240 72 q 318 57 271 57 q 478 78 442 57 q 538 188 514 100 l 596 193 l 599 186 q 546 0 568 94 l 539 -7 q 243 0 318 0 q 46 -11 129 0 l 60 44 q 128 69 108 50 q 154 136 147 89 q 211 608 211 594 q 206 630 211 621 q 178 639 201 639 l 142 638 l 139 643 l 153 694 q 394 690 246 690 q 646 704 543 690 l 649 697 q 601 513 621 613 l 539 508 q 549 580 549 549 q 520 620 549 611 q 418 629 492 629 q 333 623 344 629 q 317 589 321 617 l 283 388 m 315 942 q 435 872 340 872 q 572 942 531 872 l 583 942 l 604 928 q 535 831 581 869 q 424 792 489 792 q 324 831 360 792 q 279 928 289 869 l 304 942 l 315 942 z "},"Ė":{"ha":789,"x_min":40,"x_max":761,"o":"m 313 489 l 450 488 l 614 503 l 618 497 l 590 419 q 414 424 476 424 q 300 414 351 424 q 281 283 292 357 q 257 108 257 139 q 276 67 257 76 q 369 57 296 57 q 486 61 443 57 q 562 85 529 65 q 608 135 594 106 q 638 228 621 165 l 694 235 l 697 228 q 632 -3 658 114 l 625 -10 q 264 0 349 0 q 40 -14 135 0 l 56 46 q 142 78 117 54 q 174 163 167 103 q 250 788 250 772 q 244 816 250 804 q 207 828 238 828 l 161 825 l 160 829 l 175 888 q 459 883 278 883 q 758 900 640 883 l 761 893 q 703 665 726 793 l 642 660 q 654 755 654 714 q 619 808 654 796 q 487 819 583 819 q 376 812 390 819 q 356 765 361 804 l 313 489 m 589 1084 q 589 1068 589 1084 q 563 1026 589 1053 q 503 999 536 999 q 454 1017 469 999 q 439 1066 439 1035 q 465 1124 439 1097 q 525 1151 492 1151 q 574 1133 558 1151 q 589 1084 589 1115 z "},"ė":{"ha":678,"x_min":46,"x_max":649,"o":"m 283 388 l 393 386 l 526 397 l 531 392 l 507 321 q 367 324 415 324 q 272 317 318 324 q 258 224 267 275 q 240 99 240 125 q 256 65 240 72 q 318 57 271 57 q 478 78 442 57 q 538 188 514 100 l 596 193 l 599 186 q 546 0 568 94 l 539 -7 q 243 0 318 0 q 46 -11 129 0 l 60 44 q 128 69 108 50 q 154 136 147 89 q 211 608 211 594 q 206 630 211 621 q 178 639 201 639 l 142 638 l 139 643 l 153 694 q 394 690 246 690 q 646 704 543 690 l 649 697 q 601 513 621 613 l 539 508 q 549 580 549 549 q 520 620 549 611 q 418 629 492 629 q 333 623 344 629 q 317 589 321 617 l 283 388 m 513 890 q 513 874 513 890 q 486 831 513 858 q 426 804 460 804 q 378 822 393 804 q 363 872 363 840 q 390 930 363 903 q 449 957 417 957 q 497 939 482 957 q 513 890 513 921 z "},"Ę":{"ha":789,"x_min":40,"x_max":761,"o":"m 313 489 l 450 488 l 614 503 l 618 497 l 590 419 q 414 424 476 424 q 300 414 351 424 q 281 283 292 357 q 257 108 257 139 q 276 67 257 76 q 369 57 296 57 q 486 61 443 57 q 562 85 529 65 q 608 135 594 106 q 638 228 621 165 l 694 235 l 697 228 q 632 -3 658 114 l 625 -10 q 560 -7 599 -8 q 470 -108 494 -71 q 446 -180 446 -144 q 465 -234 446 -215 q 510 -253 483 -253 q 621 -221 557 -253 l 635 -247 q 490 -335 561 -311 q 393 -304 429 -335 q 357 -222 357 -274 q 393 -122 357 -171 q 501 -6 429 -72 q 250 0 321 0 q 40 -14 135 0 l 56 46 q 142 78 117 54 q 174 163 167 103 q 250 788 250 772 q 244 816 250 804 q 207 828 238 828 l 161 825 l 160 829 l 175 888 q 459 883 278 883 q 758 900 640 883 l 761 893 q 703 665 726 793 l 642 660 q 654 755 654 714 q 619 808 654 796 q 487 819 583 819 q 376 812 390 819 q 356 765 361 804 l 313 489 z "},"ę":{"ha":678,"x_min":46,"x_max":649,"o":"m 283 388 l 393 386 l 526 397 l 531 392 l 507 321 q 367 324 415 324 q 272 317 318 324 q 258 224 267 275 q 240 99 240 125 q 256 65 240 72 q 318 57 271 57 q 478 78 442 57 q 538 188 514 100 l 596 193 l 599 186 q 546 0 568 94 l 539 -7 q 490 -6 519 -6 q 399 -107 424 -69 q 374 -180 374 -144 q 392 -234 374 -215 q 438 -253 411 -253 q 549 -221 485 -253 l 563 -247 q 418 -335 489 -311 q 321 -304 357 -335 q 285 -222 285 -274 q 322 -120 285 -171 q 432 -3 358 -69 q 228 0 288 0 q 46 -11 129 0 l 60 44 q 128 69 108 50 q 154 136 147 89 q 211 608 211 594 q 206 630 211 621 q 178 639 201 639 l 142 638 l 139 643 l 153 694 q 394 690 246 690 q 646 704 543 690 l 649 697 q 601 513 621 613 l 539 508 q 549 580 549 549 q 520 620 549 611 q 418 629 492 629 q 333 623 344 629 q 317 589 321 617 l 283 388 z "},"Ě":{"ha":789,"x_min":40,"x_max":761,"o":"m 313 489 l 450 488 l 614 503 l 618 497 l 590 419 q 414 424 476 424 q 300 414 351 424 q 281 283 292 357 q 257 108 257 139 q 276 67 257 76 q 369 57 296 57 q 486 61 443 57 q 562 85 529 65 q 608 135 594 106 q 638 228 621 165 l 694 235 l 697 228 q 632 -3 658 114 l 625 -10 q 264 0 349 0 q 40 -14 135 0 l 56 46 q 142 78 117 54 q 174 163 167 103 q 250 788 250 772 q 244 816 250 804 q 207 828 238 828 l 161 825 l 160 829 l 175 888 q 459 883 278 883 q 758 900 640 883 l 761 893 q 703 665 726 793 l 642 660 q 654 755 654 714 q 619 808 654 796 q 487 819 583 819 q 376 812 390 819 q 356 765 361 804 l 313 489 m 700 1163 l 717 1132 l 511 978 l 493 978 l 326 1132 l 349 1163 l 363 1164 l 514 1074 l 688 1164 l 700 1163 z "},"ě":{"ha":678,"x_min":46,"x_max":649,"o":"m 283 388 l 393 386 l 526 397 l 531 392 l 507 321 q 367 324 415 324 q 272 317 318 324 q 258 224 267 275 q 240 99 240 125 q 256 65 240 72 q 318 57 271 57 q 478 78 442 57 q 538 188 514 100 l 596 193 l 599 186 q 546 0 568 94 l 539 -7 q 243 0 318 0 q 46 -11 129 0 l 60 44 q 128 69 108 50 q 154 136 147 89 q 211 608 211 594 q 206 630 211 621 q 178 639 201 639 l 142 638 l 139 643 l 153 694 q 394 690 246 690 q 646 704 543 690 l 649 697 q 601 513 621 613 l 539 508 q 549 580 549 549 q 520 620 549 611 q 418 629 492 629 q 333 623 344 629 q 317 589 321 617 l 283 388 m 622 968 l 639 938 l 433 783 l 415 783 l 249 938 l 271 968 l 285 969 l 436 879 l 610 969 l 622 968 z "},"Ĝ":{"ha":889,"x_min":63,"x_max":824,"o":"m 519 421 l 649 415 l 683 415 l 799 422 l 800 394 q 742 260 758 367 q 725 101 725 154 l 726 60 l 718 49 q 583 3 665 22 q 426 -17 501 -17 q 163 83 263 -17 q 63 351 63 183 q 211 742 63 585 q 579 900 360 900 q 819 868 671 900 l 824 860 q 761 632 785 757 l 701 626 q 714 708 714 681 q 532 825 714 825 q 281 705 378 825 q 183 392 183 585 q 254 140 183 233 q 447 46 325 46 q 543 59 496 46 q 613 86 590 72 l 635 100 q 657 308 657 289 q 647 338 657 326 q 590 350 636 350 l 497 350 l 496 356 l 515 421 l 519 421 m 350 975 l 333 1006 l 544 1218 l 564 1218 l 724 1006 l 700 975 l 688 974 l 542 1108 l 363 974 l 350 975 z "},"ĝ":{"ha":757,"x_min":64,"x_max":693,"o":"m 492 333 l 547 332 l 575 332 q 672 338 672 332 l 674 310 q 624 203 638 288 q 611 79 611 118 l 613 46 l 604 36 q 365 -12 504 -12 q 145 65 226 -12 q 64 275 64 143 q 184 582 64 460 q 486 704 304 704 q 689 678 572 704 l 693 669 q 640 488 661 589 l 579 482 q 589 547 589 525 q 447 633 589 633 q 253 544 328 633 q 179 304 179 454 q 233 117 179 186 q 382 49 288 49 q 456 58 419 49 q 526 88 492 68 q 543 240 543 226 q 535 263 543 254 q 492 272 526 272 l 419 272 l 417 278 l 435 335 l 439 335 l 469 333 l 492 333 m 268 781 l 251 811 l 463 1024 l 482 1024 l 642 811 l 618 781 l 606 779 l 460 914 l 281 779 l 268 781 z "},"Ğ":{"ha":889,"x_min":63,"x_max":824,"o":"m 519 421 l 649 415 l 683 415 l 799 422 l 800 394 q 742 260 758 367 q 725 101 725 154 l 726 60 l 718 49 q 583 3 665 22 q 426 -17 501 -17 q 163 83 263 -17 q 63 351 63 183 q 211 742 63 585 q 579 900 360 900 q 819 868 671 900 l 824 860 q 761 632 785 757 l 701 626 q 714 708 714 681 q 532 825 714 825 q 281 705 378 825 q 183 392 183 585 q 254 140 183 233 q 447 46 325 46 q 543 59 496 46 q 613 86 590 72 l 635 100 q 657 308 657 289 q 647 338 657 326 q 590 350 636 350 l 497 350 l 496 356 l 515 421 l 519 421 m 442 1164 q 562 1094 467 1094 q 699 1164 657 1094 l 710 1164 l 731 1150 q 662 1053 707 1092 q 551 1014 617 1014 q 451 1053 486 1014 q 406 1150 415 1092 l 431 1164 l 442 1164 z "},"ğ":{"ha":757,"x_min":64,"x_max":693,"o":"m 492 333 l 547 332 l 575 332 q 672 338 672 332 l 674 310 q 624 203 638 288 q 611 79 611 118 l 613 46 l 604 36 q 365 -12 504 -12 q 145 65 226 -12 q 64 275 64 143 q 184 582 64 460 q 486 704 304 704 q 689 678 572 704 l 693 669 q 640 488 661 589 l 579 482 q 589 547 589 525 q 447 633 589 633 q 253 544 328 633 q 179 304 179 454 q 233 117 179 186 q 382 49 288 49 q 456 58 419 49 q 526 88 492 68 q 543 240 543 226 q 535 263 543 254 q 492 272 526 272 l 419 272 l 417 278 l 435 335 l 439 335 l 469 333 l 492 333 m 351 942 q 472 872 376 872 q 608 942 567 872 l 619 942 l 640 928 q 571 831 617 869 q 461 792 525 792 q 361 831 397 792 q 315 928 325 869 l 340 942 l 351 942 z "},"Ġ":{"ha":889,"x_min":63,"x_max":824,"o":"m 519 421 l 649 415 l 683 415 l 799 422 l 800 394 q 742 260 758 367 q 725 101 725 154 l 726 60 l 718 49 q 583 3 665 22 q 426 -17 501 -17 q 163 83 263 -17 q 63 351 63 183 q 211 742 63 585 q 579 900 360 900 q 819 868 671 900 l 824 860 q 761 632 785 757 l 701 626 q 714 708 714 681 q 532 825 714 825 q 281 705 378 825 q 183 392 183 585 q 254 140 183 233 q 447 46 325 46 q 543 59 496 46 q 613 86 590 72 l 635 100 q 657 308 657 289 q 647 338 657 326 q 590 350 636 350 l 497 350 l 496 356 l 515 421 l 519 421 m 639 1084 q 639 1068 639 1084 q 613 1026 639 1053 q 553 999 586 999 q 504 1017 519 999 q 489 1066 489 1035 q 515 1124 489 1097 q 575 1151 542 1151 q 624 1133 608 1151 q 639 1084 639 1115 z "},"ġ":{"ha":757,"x_min":64,"x_max":693,"o":"m 492 333 l 547 332 l 575 332 q 672 338 672 332 l 674 310 q 624 203 638 288 q 611 79 611 118 l 613 46 l 604 36 q 365 -12 504 -12 q 145 65 226 -12 q 64 275 64 143 q 184 582 64 460 q 486 704 304 704 q 689 678 572 704 l 693 669 q 640 488 661 589 l 579 482 q 589 547 589 525 q 447 633 589 633 q 253 544 328 633 q 179 304 179 454 q 233 117 179 186 q 382 49 288 49 q 456 58 419 49 q 526 88 492 68 q 543 240 543 226 q 535 263 543 254 q 492 272 526 272 l 419 272 l 417 278 l 435 335 l 439 335 l 469 333 l 492 333 m 551 890 q 551 874 551 890 q 525 831 551 858 q 465 804 499 804 q 417 822 432 804 q 401 872 401 840 q 428 930 401 903 q 488 957 456 957 q 536 939 521 957 q 551 890 551 921 z "},"Ģ":{"ha":889,"x_min":63,"x_max":824,"o":"m 519 421 l 649 415 l 683 415 l 799 422 l 800 394 q 742 260 758 367 q 725 101 725 154 l 726 60 l 718 49 q 583 3 665 22 q 426 -17 501 -17 q 163 83 263 -17 q 63 351 63 183 q 211 742 63 585 q 579 900 360 900 q 819 868 671 900 l 824 860 q 761 632 785 757 l 701 626 q 714 708 714 681 q 532 825 714 825 q 281 705 378 825 q 183 392 183 585 q 254 140 183 233 q 447 46 325 46 q 543 59 496 46 q 613 86 590 72 l 635 100 q 657 308 657 289 q 647 338 657 326 q 590 350 636 350 l 497 350 l 496 356 l 515 421 l 519 421 m 324 -129 q 403 -93 371 -93 q 458 -120 436 -93 q 479 -192 479 -147 q 426 -315 479 -260 q 301 -407 374 -369 l 276 -386 l 276 -372 q 348 -308 319 -346 q 376 -235 376 -269 q 321 -149 376 -182 l 324 -129 z "},"ģ":{"ha":757,"x_min":64,"x_max":693,"o":"m 492 333 l 547 332 l 575 332 q 672 338 672 332 l 674 310 q 624 203 638 288 q 611 79 611 118 l 613 46 l 604 36 q 365 -12 504 -12 q 145 65 226 -12 q 64 275 64 143 q 184 582 64 460 q 486 704 304 704 q 689 678 572 704 l 693 669 q 640 488 661 589 l 579 482 q 589 547 589 525 q 447 633 589 633 q 253 544 328 633 q 179 304 179 454 q 233 117 179 186 q 382 49 288 49 q 456 58 419 49 q 526 88 492 68 q 543 240 543 226 q 535 263 543 254 q 492 272 526 272 l 419 272 l 417 278 l 435 335 l 439 335 l 469 333 l 492 333 m 276 -129 q 356 -93 324 -93 q 410 -120 389 -93 q 432 -192 432 -147 q 379 -315 432 -260 q 254 -407 326 -369 l 229 -386 l 229 -372 q 301 -308 272 -346 q 329 -235 329 -269 q 274 -149 329 -182 l 276 -129 z "},"Ĥ":{"ha":1004,"x_min":39,"x_max":988,"o":"m 311 482 l 538 481 q 739 494 624 481 q 775 790 775 776 q 768 816 775 804 q 732 828 761 828 l 686 825 l 683 829 l 701 889 q 819 883 785 883 q 988 897 882 883 l 976 838 q 906 815 925 831 q 879 758 886 799 q 785 133 785 182 q 796 70 785 83 q 835 57 807 57 l 896 61 q 878 -4 897 60 q 713 0 771 0 l 669 0 q 565 -3 624 0 l 583 57 q 669 87 646 58 q 704 207 693 115 l 729 421 q 524 422 586 422 l 299 407 q 261 117 261 139 q 263 83 261 96 q 310 58 265 58 l 371 63 l 372 57 l 353 -4 q 269 0 353 0 q 113 -6 185 0 q 39 -17 40 -11 l 54 43 q 150 89 128 58 q 181 210 172 119 q 250 788 250 772 q 244 816 250 804 q 207 828 238 828 l 163 825 l 160 829 l 176 889 q 311 883 272 883 q 463 897 374 883 l 451 838 q 375 807 392 828 q 347 710 358 786 l 311 482 m 418 1011 l 401 1042 l 613 1254 l 632 1254 l 792 1042 l 768 1011 l 756 1010 l 610 1144 l 431 1010 l 418 1011 z "},"ĥ":{"ha":853,"x_min":44,"x_max":832,"o":"m 282 383 l 457 382 q 613 392 529 382 q 640 611 640 601 q 635 630 640 621 q 604 639 629 639 l 568 638 l 565 643 l 579 694 q 696 690 579 690 l 832 701 l 822 647 q 764 629 779 642 q 743 586 749 617 q 671 115 671 156 q 680 63 671 74 q 711 53 689 53 l 758 56 q 760 51 760 53 l 744 -3 q 608 0 660 0 l 571 0 l 489 -1 l 474 -1 l 489 51 q 558 74 539 53 q 585 164 576 96 l 604 322 l 449 322 l 271 311 q 243 84 243 115 q 282 53 243 53 l 331 56 q 332 51 332 53 l 315 -3 q 210 0 254 0 q 106 -4 165 0 q 44 -12 46 -8 l 58 42 q 134 76 117 53 q 158 165 151 99 q 211 608 211 596 q 206 630 211 621 q 176 639 201 639 l 142 638 l 138 643 l 153 694 q 275 690 233 690 l 403 701 l 393 646 q 333 624 346 640 q 310 553 319 608 l 282 383 m 321 817 l 304 847 l 515 1060 l 535 1060 l 694 847 l 671 817 l 658 815 l 513 950 l 333 815 l 321 817 z "},"Ħ":{"ha":1004,"x_min":39,"x_max":1007,"o":"m 371 63 l 372 57 l 353 -4 q 269 0 353 0 q 113 -6 185 0 q 39 -17 40 -11 l 54 43 q 150 89 128 58 q 181 210 172 119 l 231 622 l 96 622 l 83 635 l 93 689 q 239 688 157 688 q 250 788 250 771 q 244 816 250 804 q 207 828 238 828 l 163 825 l 160 829 l 176 889 q 311 883 272 883 q 463 897 374 883 l 451 838 q 375 807 392 828 q 347 710 358 786 l 343 688 l 575 688 q 764 689 700 688 q 775 790 775 776 q 768 816 775 804 q 732 828 761 828 l 686 825 l 683 829 l 701 889 q 819 883 785 883 q 988 897 882 883 l 976 838 q 906 815 925 831 q 878 756 886 799 q 868 690 871 714 l 989 694 l 1007 676 l 1001 625 l 857 624 q 785 130 785 176 q 796 70 785 83 q 835 57 807 57 l 896 61 q 878 -4 897 60 q 713 0 771 0 l 669 0 q 565 -3 624 0 l 583 57 q 669 87 646 58 q 704 207 693 115 l 729 421 q 524 422 586 422 l 299 407 q 261 117 261 139 q 263 83 261 96 q 310 58 265 58 l 371 63 m 311 482 l 538 481 q 739 494 624 481 l 756 624 l 333 624 l 311 482 z "},"ħ":{"ha":853,"x_min":44,"x_max":847,"o":"m 331 56 q 332 51 332 53 l 315 -3 q 210 0 254 0 q 106 -4 165 0 q 44 -12 46 -8 l 58 42 q 134 76 117 53 q 158 165 151 99 l 197 483 l 89 483 l 78 493 l 86 539 q 204 538 138 538 q 211 608 211 596 q 206 630 211 621 q 176 639 201 639 l 142 638 l 138 643 l 153 694 q 275 690 233 690 l 403 701 l 393 646 q 333 625 346 640 q 307 538 319 608 l 489 538 q 632 539 583 538 q 640 611 640 601 q 635 630 640 621 q 604 639 629 639 l 568 638 l 565 643 l 579 694 q 696 690 579 690 l 832 701 l 822 647 q 764 629 779 642 q 743 586 749 617 l 735 540 l 832 543 l 847 529 l 843 486 l 726 485 q 671 114 671 154 q 680 63 671 74 q 711 53 689 53 l 758 56 q 760 51 760 53 l 744 -3 q 608 0 660 0 l 571 0 l 489 -1 l 474 -1 l 489 51 q 558 74 539 53 q 585 164 576 96 l 604 322 l 449 322 l 271 311 q 243 84 243 115 q 282 53 243 53 l 331 56 m 282 383 l 457 382 q 613 392 529 382 l 625 485 l 299 485 l 282 383 z "},"Ĩ":{"ha":482,"x_min":36,"x_max":565,"o":"m 171 889 l 297 883 l 322 883 q 475 897 378 883 l 461 838 q 383 814 404 831 q 356 758 361 797 q 258 118 258 194 q 270 72 258 85 q 310 58 282 58 l 381 63 l 383 57 l 364 -4 q 208 0 254 0 q 36 -17 131 0 l 53 43 q 142 81 117 56 q 175 164 168 106 q 250 787 250 771 q 243 815 250 803 q 207 828 236 828 l 150 825 q 149 829 149 828 l 165 889 l 171 889 m 246 1174 q 344 1151 269 1174 q 433 1128 418 1128 q 513 1186 461 1128 l 529 1204 l 538 1204 l 565 1175 l 564 1168 l 447 1044 l 425 1039 q 328 1062 401 1039 q 238 1085 254 1085 q 199 1066 222 1085 q 143 1008 175 1047 l 133 1008 l 107 1038 l 108 1044 l 225 1168 l 246 1174 z "},"ĩ":{"ha":426,"x_min":43,"x_max":519,"o":"m 144 694 l 279 690 l 413 701 l 400 646 q 339 628 356 640 q 317 586 322 617 q 242 99 242 163 q 282 53 242 53 l 338 56 l 340 51 l 324 -3 q 189 0 228 0 q 43 -12 118 0 l 57 42 q 128 71 108 51 q 154 135 149 90 q 211 608 211 596 q 206 629 211 619 q 176 639 201 639 l 132 638 q 131 643 131 642 l 144 694 m 200 979 q 298 956 224 979 q 389 933 372 933 q 467 992 415 933 l 483 1010 l 492 1010 l 519 981 l 518 974 l 401 850 l 379 844 q 282 867 356 844 q 192 890 208 890 q 153 872 176 890 q 97 814 129 853 l 88 814 l 61 843 l 63 850 l 179 974 l 200 979 z "},"Ī":{"ha":482,"x_min":36,"x_max":538,"o":"m 171 889 l 297 883 l 322 883 q 475 897 378 883 l 461 838 q 383 814 404 831 q 356 758 361 797 q 258 118 258 194 q 270 72 258 85 q 310 58 282 58 l 381 63 l 383 57 l 364 -4 q 208 0 254 0 q 36 -17 131 0 l 53 43 q 142 81 117 56 q 175 164 168 106 q 250 787 250 771 q 243 815 250 803 q 207 828 236 828 l 150 825 q 149 829 149 828 l 165 889 l 171 889 m 531 1094 l 538 1081 l 519 1015 l 138 1013 l 131 1025 l 153 1088 q 357 1086 279 1086 l 531 1094 z "},"ī":{"ha":426,"x_min":43,"x_max":492,"o":"m 144 694 l 279 690 l 413 701 l 400 646 q 339 628 356 640 q 317 586 322 617 q 242 99 242 163 q 282 53 242 53 l 338 56 l 340 51 l 324 -3 q 189 0 228 0 q 43 -12 118 0 l 57 42 q 128 71 108 51 q 154 135 149 90 q 211 608 211 596 q 206 629 211 619 q 176 639 201 639 l 132 638 q 131 643 131 642 l 144 694 m 485 900 l 492 886 l 474 821 l 92 818 l 85 831 l 107 893 q 311 892 233 892 l 485 900 z "},"Ĭ":{"ha":482,"x_min":36,"x_max":499,"o":"m 171 889 l 297 883 l 322 883 q 475 897 378 883 l 461 838 q 383 814 404 831 q 356 758 361 797 q 258 118 258 194 q 270 72 258 85 q 310 58 282 58 l 381 63 l 383 57 l 364 -4 q 208 0 254 0 q 36 -17 131 0 l 53 43 q 142 81 117 56 q 175 164 168 106 q 250 787 250 771 q 243 815 250 803 q 207 828 236 828 l 150 825 q 149 829 149 828 l 165 889 l 171 889 m 210 1150 q 330 1081 235 1081 q 467 1150 425 1081 l 478 1150 l 499 1136 q 429 1039 475 1078 q 319 1000 383 1000 q 219 1039 256 1000 q 174 1136 183 1078 l 199 1150 l 210 1150 z "},"ĭ":{"ha":426,"x_min":43,"x_max":458,"o":"m 144 694 l 279 690 l 413 701 l 400 646 q 339 628 356 640 q 317 586 322 617 q 242 99 242 163 q 282 53 242 53 l 338 56 l 340 51 l 324 -3 q 189 0 228 0 q 43 -12 118 0 l 57 42 q 128 71 108 51 q 154 135 149 90 q 211 608 211 596 q 206 629 211 619 q 176 639 201 639 l 132 638 q 131 643 131 642 l 144 694 m 169 942 q 290 872 194 872 q 426 942 385 872 l 438 942 l 458 928 q 390 831 435 869 q 279 792 344 792 q 178 831 214 792 q 133 928 143 869 l 158 942 l 169 942 z "},"Į":{"ha":482,"x_min":36,"x_max":475,"o":"m 171 889 l 297 883 l 322 883 q 475 897 378 883 l 461 838 q 383 814 404 831 q 356 758 361 797 q 258 118 258 194 q 270 72 258 85 q 310 58 282 58 l 381 63 l 383 57 l 364 -4 q 304 -1 336 -3 q 209 -107 235 -68 q 183 -181 183 -146 q 202 -235 183 -217 q 247 -254 221 -254 q 358 -222 300 -254 l 372 -249 q 228 -336 299 -312 q 131 -306 167 -336 q 94 -223 94 -275 q 133 -120 94 -171 q 246 0 171 -69 l 190 0 q 36 -17 131 0 l 53 43 q 142 81 117 56 q 175 164 168 106 q 250 787 250 771 q 243 815 250 803 q 207 828 236 828 l 150 825 q 149 829 149 828 l 165 889 l 171 889 z "},"į":{"ha":426,"x_min":43,"x_max":413,"o":"m 242 99 q 282 53 242 53 l 338 56 l 340 51 l 324 -3 q 281 -1 304 -1 q 178 -111 206 -72 q 151 -185 151 -150 q 169 -239 151 -221 q 214 -257 188 -257 q 321 -226 263 -257 l 335 -251 q 194 -336 263 -314 q 101 -307 136 -336 q 67 -226 67 -278 q 106 -124 67 -175 q 225 0 144 -74 l 176 0 q 43 -12 118 0 l 57 42 q 128 71 108 51 q 154 135 149 90 q 211 608 211 596 q 206 629 211 619 q 176 639 201 639 l 132 638 q 131 643 131 642 l 144 694 l 279 690 l 413 701 l 400 646 q 339 628 356 640 q 317 586 322 617 q 242 99 242 163 z "},"İ":{"ha":482,"x_min":36,"x_max":475,"o":"m 171 889 l 297 883 l 322 883 q 475 897 378 883 l 461 838 q 383 814 404 831 q 356 758 361 797 q 258 118 258 194 q 270 72 258 85 q 310 58 282 58 l 381 63 l 383 57 l 364 -4 q 208 0 254 0 q 36 -17 131 0 l 53 43 q 142 81 117 56 q 175 164 168 106 q 250 787 250 771 q 243 815 250 803 q 207 828 236 828 l 150 825 q 149 829 149 828 l 165 889 l 171 889 m 414 1084 q 414 1068 414 1084 q 388 1026 414 1053 q 328 999 361 999 q 279 1017 294 999 q 264 1066 264 1035 q 290 1124 264 1097 q 350 1151 317 1151 q 399 1133 383 1151 q 414 1084 414 1115 z "},"ı":{"ha":426,"x_min":43,"x_max":413,"o":"m 144 694 l 279 690 l 413 701 l 400 646 q 339 628 356 640 q 317 586 322 617 q 242 99 242 163 q 282 53 242 53 l 338 56 l 340 51 l 324 -3 q 189 0 228 0 q 43 -12 118 0 l 57 42 q 128 71 108 51 q 154 135 149 90 q 211 608 211 596 q 206 629 211 619 q 176 639 201 639 l 132 638 q 131 643 131 642 l 144 694 z "},"Ĳ":{"ha":917,"x_min":36,"x_max":921,"o":"m 171 889 l 297 883 l 322 883 q 475 897 378 883 l 461 838 q 383 814 404 831 q 356 758 361 797 q 258 118 258 194 q 270 72 258 85 q 310 58 282 58 l 381 63 l 383 57 l 364 -4 q 208 0 254 0 q 36 -17 131 0 l 53 43 q 142 81 117 56 q 175 164 168 106 q 250 787 250 771 q 243 815 250 803 q 207 828 236 828 l 150 825 q 149 829 149 828 l 165 889 l 171 889 m 640 158 q 718 787 718 771 q 711 815 718 803 q 675 826 704 826 l 610 821 l 610 825 l 625 883 l 768 883 l 921 896 l 910 838 q 845 816 861 831 q 822 758 829 801 q 732 164 779 503 q 653 -64 714 22 q 476 -199 593 -150 l 460 -154 l 464 -143 q 588 -29 551 -93 q 640 158 625 35 z "},"ĳ":{"ha":786,"x_min":43,"x_max":867,"o":"m 144 694 l 279 690 l 413 701 l 400 646 q 339 628 356 640 q 317 586 322 617 q 242 99 242 163 q 282 53 242 53 l 338 56 l 340 51 l 324 -3 q 189 0 228 0 q 43 -12 118 0 l 57 42 q 128 71 108 51 q 154 135 149 90 q 211 608 211 596 q 206 629 211 619 q 176 639 201 639 l 132 638 q 131 643 131 642 l 144 694 m 624 126 q 682 608 682 596 q 677 630 682 621 q 649 639 672 639 l 596 635 l 594 640 l 608 690 l 731 692 l 867 700 l 856 646 q 804 630 817 640 q 786 586 792 619 q 715 122 743 335 q 649 -54 701 13 q 493 -158 596 -121 l 476 -121 l 479 -111 q 581 -22 551 -71 q 624 126 611 28 z "},"Ĵ":{"ha":436,"x_min":-22,"x_max":517,"o":"m 158 158 q 236 787 236 771 q 229 815 236 803 q 193 826 222 826 l 128 821 l 128 825 l 143 883 l 286 883 l 439 896 l 428 838 q 363 816 379 831 q 340 758 347 801 q 250 164 297 503 q 172 -64 232 22 q -6 -199 111 -150 l -22 -154 l -18 -143 q 106 -29 69 -93 q 158 158 143 35 m 143 975 l 126 1006 l 338 1218 l 357 1218 l 517 1006 l 493 975 l 481 974 l 335 1108 l 156 974 l 143 975 z "},"ĵ":{"ha":389,"x_min":-6,"x_max":472,"o":"m 142 126 q 200 608 200 596 q 195 630 200 621 q 167 639 190 639 l 114 635 l 113 640 l 126 690 l 249 692 l 385 700 l 374 646 q 322 630 335 640 q 304 586 310 619 q 233 122 261 335 q 167 -54 219 13 q 11 -158 114 -121 l -6 -121 l -3 -111 q 99 -22 69 -71 q 142 126 129 28 m 99 781 l 82 811 l 293 1024 l 313 1024 l 472 811 l 449 781 l 436 779 l 290 914 l 111 779 l 99 781 z "},"Ķ":{"ha":840,"x_min":39,"x_max":867,"o":"m 175 164 q 250 788 250 772 q 244 816 250 804 q 207 828 238 828 l 163 825 l 160 829 l 176 889 q 308 883 271 883 q 463 897 374 883 l 451 838 q 379 813 400 831 q 351 754 358 794 l 261 151 q 257 108 257 128 q 265 74 257 89 q 310 58 274 58 l 371 63 l 374 57 l 353 -4 q 190 0 250 0 l 39 -1 l 60 58 q 146 85 124 65 q 175 164 168 104 m 664 793 q 585 832 664 826 l 582 838 l 599 894 q 743 883 693 883 l 864 889 l 867 881 l 853 826 q 785 798 817 819 q 685 713 753 776 l 438 471 l 626 164 q 703 72 668 99 q 783 46 738 46 l 788 42 l 775 -3 q 665 -19 679 -19 q 531 100 600 -19 l 336 438 l 339 456 l 614 718 q 664 793 664 767 m 308 -129 q 388 -93 356 -93 q 442 -120 421 -93 q 464 -192 464 -147 q 411 -315 464 -260 q 286 -407 358 -369 l 261 -386 l 261 -372 q 333 -308 304 -346 q 361 -235 361 -269 q 306 -149 361 -182 l 308 -129 z "},"ķ":{"ha":725,"x_min":44,"x_max":739,"o":"m 154 135 q 211 608 211 596 q 206 630 211 621 q 176 639 201 639 l 142 638 l 138 643 l 153 694 q 279 690 240 690 l 404 701 l 393 646 q 335 626 351 640 q 313 582 318 613 l 243 126 q 240 94 240 110 q 247 65 240 78 q 282 53 254 53 l 331 56 l 333 51 l 317 -3 q 176 0 225 0 l 44 -1 l 63 51 q 131 74 114 58 q 154 135 149 89 m 517 553 q 557 614 557 590 q 494 642 557 638 l 492 647 l 506 699 q 629 690 588 690 l 736 696 l 739 688 l 726 639 q 668 612 696 631 q 586 543 640 593 l 401 369 l 547 138 q 607 67 579 88 q 672 44 635 46 l 676 39 l 665 -3 q 565 -15 579 -15 q 454 76 508 -15 l 300 342 l 303 358 l 517 553 m 271 -129 q 351 -93 318 -93 q 405 -120 383 -93 q 426 -192 426 -147 q 374 -315 426 -260 q 249 -407 321 -369 l 224 -386 l 224 -372 q 295 -308 267 -346 q 324 -235 324 -269 q 268 -149 324 -182 l 271 -129 z "},"ĸ":{"ha":725,"x_min":44,"x_max":739,"o":"m 154 135 q 211 608 211 596 q 206 630 211 621 q 176 639 201 639 l 142 638 l 138 643 l 153 694 q 279 690 240 690 l 404 701 l 393 646 q 335 626 351 640 q 313 582 318 613 l 243 126 q 240 94 240 110 q 247 65 240 78 q 282 53 254 53 l 331 56 l 333 51 l 317 -3 q 176 0 225 0 l 44 -1 l 63 51 q 131 74 114 58 q 154 135 149 89 m 517 553 q 557 614 557 590 q 494 642 557 638 l 492 647 l 506 699 q 629 690 588 690 l 736 696 l 739 688 l 726 639 q 668 612 696 631 q 586 543 640 593 l 401 369 l 547 138 q 607 67 579 88 q 672 44 635 46 l 676 39 l 665 -3 q 565 -15 579 -15 q 454 76 508 -15 l 300 342 l 303 358 l 517 553 z "},"Ĺ":{"ha":678,"x_min":53,"x_max":664,"o":"m 663 258 l 664 253 q 593 -6 625 129 l 586 -12 q 272 0 356 0 q 53 -14 142 0 l 69 46 q 144 79 122 54 q 174 163 167 104 q 250 787 250 771 q 243 815 250 803 q 207 828 236 828 l 161 825 q 160 829 160 828 l 176 889 q 313 883 276 883 q 463 897 374 883 l 451 839 q 378 810 393 829 q 344 689 364 792 q 293 373 325 586 q 261 122 261 160 q 281 70 261 83 q 367 57 301 57 q 526 91 485 57 q 604 253 568 125 l 663 258 m 565 1093 l 560 1079 q 274 976 419 1032 l 263 983 l 254 1017 l 531 1168 l 543 1160 l 565 1093 z "},"ĺ":{"ha":592,"x_min":54,"x_max":572,"o":"m 151 694 l 281 690 l 408 701 l 397 646 q 335 625 347 639 q 307 533 322 611 q 267 295 292 456 q 243 106 243 135 q 259 67 243 78 q 345 57 275 57 q 449 85 415 57 q 510 213 482 113 l 569 219 q 572 213 569 215 q 514 -3 540 110 l 507 -10 q 247 0 321 0 q 54 -11 135 0 l 69 44 q 131 70 113 51 q 154 136 149 89 q 211 608 211 594 q 206 630 211 621 q 176 639 200 639 l 140 638 l 138 643 l 151 694 m 496 899 l 490 885 q 204 782 350 838 l 193 789 l 185 822 l 461 974 l 474 965 l 496 899 z "},"Ļ":{"ha":678,"x_min":53,"x_max":664,"o":"m 663 258 l 664 253 q 593 -6 625 129 l 586 -12 q 272 0 356 0 q 53 -14 142 0 l 69 46 q 144 79 122 54 q 174 163 167 104 q 250 787 250 771 q 243 815 250 803 q 207 828 236 828 l 161 825 q 160 829 160 828 l 176 889 q 313 883 276 883 q 463 897 374 883 l 451 839 q 378 810 393 829 q 344 689 364 792 q 293 373 325 586 q 261 122 261 160 q 281 70 261 83 q 367 57 301 57 q 526 91 485 57 q 604 253 568 125 l 663 258 m 267 -129 q 347 -93 314 -93 q 401 -120 379 -93 q 422 -192 422 -147 q 369 -315 422 -260 q 244 -407 317 -369 l 219 -386 l 219 -372 q 291 -308 263 -346 q 319 -235 319 -269 q 264 -149 319 -182 l 267 -129 z "},"ļ":{"ha":592,"x_min":54,"x_max":572,"o":"m 151 694 l 281 690 l 408 701 l 397 646 q 335 625 347 639 q 307 533 322 611 q 267 295 292 456 q 243 106 243 135 q 259 67 243 78 q 345 57 275 57 q 449 85 415 57 q 510 213 482 113 l 569 219 q 572 213 569 215 q 514 -3 540 110 l 507 -10 q 247 0 321 0 q 54 -11 135 0 l 69 44 q 131 70 113 51 q 154 136 149 89 q 211 608 211 594 q 206 630 211 621 q 176 639 200 639 l 140 638 l 138 643 l 151 694 m 229 -129 q 309 -93 276 -93 q 363 -120 342 -93 q 385 -192 385 -147 q 332 -315 385 -260 q 207 -407 279 -369 l 182 -386 l 182 -372 q 253 -308 225 -346 q 282 -235 282 -269 q 226 -149 282 -182 l 229 -129 z "},"Ľ":{"ha":678,"x_min":53,"x_max":699,"o":"m 600 558 q 601 640 601 604 q 592 861 601 735 l 689 881 l 699 869 q 650 575 679 717 l 615 556 l 600 558 m 663 258 l 664 253 q 593 -6 625 129 l 586 -12 q 272 0 356 0 q 53 -14 142 0 l 69 46 q 144 79 122 54 q 174 163 167 104 q 250 787 250 771 q 243 815 250 803 q 207 828 236 828 l 161 825 q 160 829 160 828 l 176 889 q 313 883 276 883 q 463 897 374 883 l 451 839 q 378 810 393 829 q 344 689 364 792 q 293 373 325 586 q 261 122 261 160 q 281 70 261 83 q 367 57 301 57 q 526 91 485 57 q 604 253 568 125 l 663 258 z "},"ľ":{"ha":613,"x_min":54,"x_max":603,"o":"m 515 435 q 515 481 515 453 q 506 674 515 554 l 594 689 l 603 679 q 564 449 588 561 l 528 432 l 515 435 m 151 694 l 281 690 l 408 701 l 397 646 q 335 625 347 639 q 307 533 322 611 q 267 295 292 456 q 243 106 243 135 q 259 67 243 78 q 345 57 275 57 q 449 85 415 57 q 510 213 482 113 l 569 219 q 572 213 569 215 q 514 -3 540 110 l 507 -10 q 247 0 321 0 q 54 -11 135 0 l 69 44 q 131 70 113 51 q 154 136 149 89 q 211 608 211 594 q 206 630 211 621 q 176 639 200 639 l 140 638 l 138 643 l 151 694 z "},"Ŀ":{"ha":678,"x_min":53,"x_max":701,"o":"m 663 258 l 664 253 q 593 -6 625 129 l 586 -12 q 272 0 356 0 q 53 -14 142 0 l 69 46 q 144 79 122 54 q 174 163 167 104 q 250 787 250 771 q 243 815 250 803 q 207 828 236 828 l 161 825 q 160 829 160 828 l 176 889 q 313 883 276 883 q 463 897 374 883 l 451 839 q 378 810 393 829 q 344 689 364 792 q 293 373 325 586 q 261 122 261 160 q 281 70 261 83 q 367 57 301 57 q 526 91 485 57 q 604 253 568 125 l 663 258 m 701 665 q 701 648 701 665 q 674 602 701 631 q 608 574 646 574 q 554 594 571 574 q 538 648 538 614 q 565 710 538 682 q 628 739 592 739 q 683 719 665 739 q 701 665 701 700 z "},"ŀ":{"ha":638,"x_min":54,"x_max":615,"o":"m 151 694 l 281 690 l 408 701 l 397 646 q 335 625 347 639 q 307 533 322 611 q 267 295 292 456 q 243 106 243 135 q 259 67 243 78 q 345 57 275 57 q 449 85 415 57 q 510 213 482 113 l 569 219 q 572 213 569 215 q 514 -3 540 110 l 507 -10 q 247 0 321 0 q 54 -11 135 0 l 69 44 q 131 70 113 51 q 154 136 149 89 q 211 608 211 594 q 206 630 211 621 q 176 639 200 639 l 140 638 l 138 643 l 151 694 m 615 471 q 615 453 615 471 q 588 408 615 436 q 522 379 560 379 q 468 399 485 379 q 451 453 451 419 q 478 516 451 488 q 542 544 506 544 q 597 525 579 544 q 615 471 615 506 z "},"Ł":{"ha":678,"x_min":47,"x_max":664,"o":"m 663 258 l 664 253 q 593 -6 625 129 l 586 -12 q 272 0 356 0 q 53 -14 142 0 l 69 46 q 144 79 122 54 q 174 163 167 104 l 207 428 l 67 358 l 54 363 l 47 407 l 214 490 q 250 787 250 771 q 243 815 250 803 q 207 828 236 828 l 161 825 q 160 829 160 828 l 176 889 q 313 883 276 883 q 463 897 374 883 l 451 839 q 378 810 393 829 q 347 706 364 792 l 317 532 l 515 631 l 526 624 l 533 581 l 307 469 q 261 127 261 171 q 281 70 261 83 q 367 57 301 57 q 526 91 485 57 q 604 253 568 125 l 663 258 z "},"ł":{"ha":592,"x_min":54,"x_max":572,"o":"m 151 694 l 281 690 l 408 701 l 397 646 q 335 625 347 639 q 312 559 322 611 q 286 417 301 507 l 453 496 l 463 490 l 472 446 l 276 354 q 243 112 243 146 q 259 67 243 78 q 345 57 275 57 q 449 85 415 57 q 510 213 482 113 l 569 219 q 572 213 569 215 q 514 -3 540 110 l 507 -10 q 247 0 321 0 q 54 -11 135 0 l 69 44 q 131 70 113 51 q 154 136 149 89 l 176 315 l 85 272 l 74 275 l 64 319 l 183 376 q 211 608 211 594 q 206 630 211 621 q 176 639 200 639 l 140 638 l 138 643 l 151 694 z "},"Ń":{"ha":960,"x_min":47,"x_max":985,"o":"m 142 836 l 140 843 l 156 890 q 268 883 232 883 l 354 889 q 722 186 528 539 l 728 186 q 800 779 800 772 q 763 826 800 826 l 747 826 l 722 825 q 713 825 718 825 l 710 831 l 729 889 q 843 883 808 883 q 985 896 910 883 l 971 835 q 868 747 879 822 l 754 -39 l 719 -58 q 313 725 518 350 l 307 725 l 224 113 q 227 70 219 82 q 258 58 235 58 l 326 58 l 329 54 l 310 -6 q 171 0 229 0 l 47 -11 l 63 49 q 156 136 144 58 q 250 778 250 758 q 142 836 250 825 m 803 1093 l 797 1079 q 511 976 657 1032 l 500 983 l 492 1017 l 768 1168 l 781 1160 l 803 1093 z "},"ń":{"ha":819,"x_min":51,"x_max":831,"o":"m 664 603 q 632 639 664 639 l 592 638 l 589 643 l 606 696 q 717 690 678 690 l 831 700 l 819 644 q 736 576 746 635 l 647 -25 l 597 -40 q 279 531 446 249 l 272 531 l 213 97 q 217 63 210 72 q 243 53 224 53 l 296 53 l 300 49 l 283 -4 q 163 0 210 0 l 51 -8 l 65 46 q 140 114 133 54 q 214 599 214 583 q 126 644 214 636 q 124 651 124 650 l 136 696 q 238 690 201 690 l 317 696 q 606 178 449 444 l 611 178 q 664 603 664 597 m 689 899 l 683 885 q 397 782 543 838 l 386 789 l 378 822 l 654 974 l 667 965 l 689 899 z "},"Ņ":{"ha":960,"x_min":47,"x_max":985,"o":"m 142 836 l 140 843 l 156 890 q 268 883 232 883 l 354 889 q 722 186 528 539 l 728 186 q 800 779 800 772 q 763 826 800 826 l 747 826 l 722 825 q 713 825 718 825 l 710 831 l 729 889 q 843 883 808 883 q 985 896 910 883 l 971 835 q 868 747 879 822 l 754 -39 l 719 -58 q 313 725 518 350 l 307 725 l 224 113 q 227 70 219 82 q 258 58 235 58 l 326 58 l 329 54 l 310 -6 q 171 0 229 0 l 47 -11 l 63 49 q 156 136 144 58 q 250 778 250 758 q 142 836 250 825 m 358 -129 q 438 -93 406 -93 q 492 -120 471 -93 q 514 -192 514 -147 q 461 -315 514 -260 q 336 -407 408 -369 l 311 -386 l 311 -372 q 383 -308 354 -346 q 411 -235 411 -269 q 356 -149 411 -182 l 358 -129 z "},"ņ":{"ha":819,"x_min":51,"x_max":831,"o":"m 664 603 q 632 639 664 639 l 592 638 l 589 643 l 606 696 q 717 690 678 690 l 831 700 l 819 644 q 736 576 746 635 l 647 -25 l 597 -40 q 279 531 446 249 l 272 531 l 213 97 q 217 63 210 72 q 243 53 224 53 l 296 53 l 300 49 l 283 -4 q 163 0 210 0 l 51 -8 l 65 46 q 140 114 133 54 q 214 599 214 583 q 126 644 214 636 q 124 651 124 650 l 136 696 q 238 690 201 690 l 317 696 q 606 178 449 444 l 611 178 q 664 603 664 597 m 308 -129 q 388 -93 356 -93 q 442 -120 421 -93 q 464 -192 464 -147 q 411 -315 464 -260 q 286 -407 358 -369 l 261 -386 l 261 -372 q 333 -308 304 -346 q 361 -235 361 -269 q 306 -149 361 -182 l 308 -129 z "},"Ň":{"ha":960,"x_min":47,"x_max":985,"o":"m 142 836 l 140 843 l 156 890 q 268 883 232 883 l 354 889 q 722 186 528 539 l 728 186 q 800 779 800 772 q 763 826 800 826 l 747 826 l 722 825 q 713 825 718 825 l 710 831 l 729 889 q 843 883 808 883 q 985 896 910 883 l 971 835 q 868 747 879 822 l 754 -39 l 719 -58 q 313 725 518 350 l 307 725 l 224 113 q 227 70 219 82 q 258 58 235 58 l 326 58 l 329 54 l 310 -6 q 171 0 229 0 l 47 -11 l 63 49 q 156 136 144 58 q 250 778 250 758 q 142 836 250 825 m 771 1163 l 788 1132 l 582 978 l 564 978 l 397 1132 l 419 1163 l 433 1164 l 585 1074 l 758 1164 l 771 1163 z "},"ň":{"ha":819,"x_min":51,"x_max":831,"o":"m 664 603 q 632 639 664 639 l 592 638 l 589 643 l 606 696 q 717 690 678 690 l 831 700 l 819 644 q 736 576 746 635 l 647 -25 l 597 -40 q 279 531 446 249 l 272 531 l 213 97 q 217 63 210 72 q 243 53 224 53 l 296 53 l 300 49 l 283 -4 q 163 0 210 0 l 51 -8 l 65 46 q 140 114 133 54 q 214 599 214 583 q 126 644 214 636 q 124 651 124 650 l 136 696 q 238 690 201 690 l 317 696 q 606 178 449 444 l 611 178 q 664 603 664 597 m 681 968 l 697 938 l 492 783 l 474 783 l 307 938 l 329 968 l 343 969 l 494 879 l 668 969 l 681 968 z "},"Ŋ":{"ha":960,"x_min":44,"x_max":989,"o":"m 796 776 q 758 824 796 824 l 708 822 l 706 828 l 726 890 q 844 885 811 885 q 989 896 906 885 l 975 832 q 903 806 926 826 q 874 744 881 785 l 785 119 q 699 -93 763 -15 q 510 -214 635 -171 l 492 -168 l 497 -157 q 681 11 633 -101 q 317 710 517 343 l 310 710 q 229 93 229 106 q 235 71 229 81 q 265 61 242 61 l 332 64 l 335 58 l 315 -6 q 183 0 228 0 q 44 -11 117 0 l 60 53 q 126 81 106 57 q 158 172 147 106 q 246 774 246 756 q 227 808 246 792 q 140 833 208 824 l 136 840 l 153 892 q 263 885 233 885 l 361 890 q 719 201 494 615 l 726 201 q 796 776 796 769 z "},"ŋ":{"ha":821,"x_min":50,"x_max":833,"o":"m 661 600 q 629 638 661 638 l 590 636 l 588 642 l 604 696 q 718 692 683 692 l 833 700 l 821 643 q 763 622 781 638 q 740 575 744 607 l 671 93 q 599 -74 653 -12 q 436 -169 544 -135 l 418 -132 l 422 -122 q 568 7 532 -78 q 282 524 432 263 l 275 524 l 217 99 q 220 64 214 74 q 247 54 226 54 l 300 57 l 303 51 l 286 -4 q 153 0 210 0 l 50 -8 l 64 47 q 118 70 101 51 q 143 138 135 89 q 211 597 211 582 q 196 624 211 611 q 125 643 181 636 l 121 650 l 135 697 q 233 692 206 692 l 321 696 q 604 186 421 503 l 611 186 q 661 600 661 594 z "},"Ō":{"ha":921,"x_min":63,"x_max":894,"o":"m 432 49 q 676 170 579 49 q 774 463 774 292 q 702 728 774 633 q 511 824 631 824 q 272 701 368 824 q 176 408 176 578 q 247 144 176 239 q 432 49 317 49 m 397 -17 q 156 86 249 -17 q 63 353 63 189 q 206 739 63 578 q 551 900 350 900 q 799 797 703 900 q 894 531 894 693 q 748 144 894 304 q 397 -17 601 -17 m 750 1094 l 757 1081 l 739 1015 l 357 1013 l 350 1025 l 372 1088 q 576 1086 499 1086 l 750 1094 z "},"ō":{"ha":783,"x_min":65,"x_max":749,"o":"m 374 51 q 558 142 486 51 q 631 379 631 233 q 576 562 631 493 q 431 631 521 631 q 249 539 321 631 q 178 317 178 447 q 231 119 178 188 q 374 51 285 51 m 344 -12 q 142 67 219 -12 q 65 278 65 147 q 181 581 65 458 q 464 704 296 704 q 670 624 592 704 q 749 414 749 544 q 631 110 749 233 q 344 -12 514 -12 m 663 900 l 669 886 l 651 821 l 269 818 l 263 831 l 285 893 q 489 892 411 892 l 663 900 z "},"Ŏ":{"ha":921,"x_min":63,"x_max":894,"o":"m 432 49 q 676 170 579 49 q 774 463 774 292 q 702 728 774 633 q 511 824 631 824 q 272 701 368 824 q 176 408 176 578 q 247 144 176 239 q 432 49 317 49 m 397 -17 q 156 86 249 -17 q 63 353 63 189 q 206 739 63 578 q 551 900 350 900 q 799 797 703 900 q 894 531 894 693 q 748 144 894 304 q 397 -17 601 -17 m 418 1190 q 536 1099 442 1099 q 675 1190 631 1099 l 688 1190 l 707 1176 q 638 1064 683 1110 q 526 1018 592 1018 q 426 1064 461 1018 q 383 1176 390 1110 l 407 1190 l 418 1190 z "},"ŏ":{"ha":783,"x_min":65,"x_max":749,"o":"m 374 51 q 558 142 486 51 q 631 379 631 233 q 576 562 631 493 q 431 631 521 631 q 249 539 321 631 q 178 317 178 447 q 231 119 178 188 q 374 51 285 51 m 344 -12 q 142 67 219 -12 q 65 278 65 147 q 181 581 65 458 q 464 704 296 704 q 670 624 592 704 q 749 414 749 544 q 631 110 749 233 q 344 -12 514 -12 m 357 942 q 477 872 382 872 q 614 942 572 872 l 625 942 l 646 928 q 576 831 622 869 q 467 792 531 792 q 367 831 403 792 q 321 928 331 869 l 346 942 l 357 942 z "},"Ő":{"ha":921,"x_min":63,"x_max":894,"o":"m 432 49 q 676 170 579 49 q 774 463 774 292 q 702 728 774 633 q 511 824 631 824 q 272 701 368 824 q 176 408 176 578 q 247 144 176 239 q 432 49 317 49 m 397 -17 q 156 86 249 -17 q 63 353 63 189 q 206 739 63 578 q 551 900 350 900 q 799 797 703 900 q 894 531 894 693 q 748 144 894 304 q 397 -17 601 -17 m 618 1097 l 614 1085 q 386 964 503 1029 l 375 971 l 363 1000 l 575 1163 l 588 1157 l 618 1097 m 813 1085 l 808 1072 q 581 951 697 1017 l 571 957 l 557 986 l 769 1150 l 782 1143 l 813 1085 z "},"ő":{"ha":783,"x_min":65,"x_max":749,"o":"m 374 51 q 558 142 486 51 q 631 379 631 233 q 576 562 631 493 q 431 631 521 631 q 249 539 321 631 q 178 317 178 447 q 231 119 178 188 q 374 51 285 51 m 344 -12 q 142 67 219 -12 q 65 278 65 147 q 181 581 65 458 q 464 704 296 704 q 670 624 592 704 q 749 414 749 544 q 631 110 749 233 q 344 -12 514 -12 m 517 903 l 513 890 q 285 769 401 835 l 274 776 l 261 806 l 474 968 l 486 963 l 517 903 m 711 890 l 707 878 q 479 757 596 822 l 469 763 l 456 792 l 668 956 l 681 949 l 711 890 z "},"Œ":{"ha":1282,"x_min":63,"x_max":1258,"o":"m 758 146 q 756 106 756 128 q 768 74 756 85 q 858 63 781 63 q 978 67 936 63 q 1051 90 1019 71 q 1097 140 1083 110 q 1128 232 1111 171 l 1190 239 l 1193 232 q 1129 -1 1156 117 l 1121 -10 q 743 1 844 1 q 536 -8 642 1 q 389 -17 431 -17 q 153 86 244 -17 q 63 351 63 189 q 203 741 63 581 q 542 901 343 901 q 687 892 585 901 q 846 882 789 882 q 1254 901 1118 882 l 1258 893 q 1199 663 1222 790 l 1131 657 q 1143 751 1143 710 q 1108 803 1143 792 q 979 815 1072 815 q 872 808 886 815 q 851 761 858 800 l 807 492 l 944 490 l 1110 506 l 1114 499 l 1085 417 q 900 421 971 421 l 794 411 l 758 146 m 188 389 q 251 147 188 239 q 433 56 315 56 q 610 108 551 56 q 686 289 668 161 q 735 690 735 671 q 696 790 735 760 q 516 821 657 821 q 281 699 375 821 q 188 389 188 578 z "},"œ":{"ha":1046,"x_min":51,"x_max":1032,"o":"m 656 317 q 625 93 625 111 q 635 66 625 75 q 735 57 646 57 q 860 78 825 57 q 921 188 896 100 l 979 193 l 981 188 q 931 0 953 96 l 922 -7 q 615 1 700 1 q 444 -6 529 1 q 324 -12 358 -12 q 127 68 203 -12 q 51 278 51 149 q 164 581 51 458 q 442 703 276 703 q 561 696 478 703 q 779 689 644 689 q 1029 704 914 689 l 1032 697 q 983 513 1003 613 l 919 507 q 929 578 929 547 q 901 619 929 610 q 799 629 872 629 q 715 623 726 629 q 700 589 704 617 l 665 388 l 776 386 l 910 397 l 914 390 l 890 321 q 742 324 799 324 l 656 317 m 165 300 q 215 119 165 186 q 358 51 265 51 q 495 90 450 51 q 556 224 540 129 q 593 533 593 519 q 562 608 593 585 q 421 632 531 632 q 238 540 311 632 q 165 300 165 447 z "},"Ŕ":{"ha":818,"x_min":39,"x_max":782,"o":"m 294 383 q 260 110 260 136 q 267 74 260 85 q 346 54 282 54 l 347 50 l 329 -6 q 190 -1 253 -3 l 39 -6 l 58 54 q 145 82 122 61 q 175 163 168 103 q 250 786 250 769 q 243 815 250 803 q 207 828 236 828 l 163 825 l 160 831 l 176 889 q 322 883 272 883 l 471 889 q 655 837 585 889 q 725 695 725 785 q 669 530 725 606 q 507 407 614 454 l 625 160 q 691 67 658 93 q 778 42 724 42 l 782 38 l 769 -7 l 657 -22 q 590 14 624 -22 q 532 110 557 50 l 421 383 l 294 383 m 390 836 q 372 831 378 836 q 307 456 351 806 l 443 442 q 485 458 0 0 q 615 675 611 532 q 390 836 615 836 m 711 1093 l 706 1079 q 419 976 565 1032 l 408 983 l 400 1017 l 676 1168 l 689 1160 l 711 1093 z "},"ŕ":{"ha":707,"x_min":44,"x_max":671,"o":"m 268 292 q 243 95 243 115 q 252 63 243 75 q 314 50 261 51 l 315 46 l 300 -4 q 178 -1 228 -1 l 44 -6 l 61 50 q 131 72 113 56 q 154 135 149 88 q 211 608 211 596 q 206 630 211 621 q 178 639 201 639 l 142 638 l 138 643 l 153 694 q 276 690 235 690 l 407 696 q 567 654 507 696 q 628 542 628 613 q 453 315 628 390 l 544 135 q 598 63 571 83 q 667 42 625 42 l 671 36 l 660 -6 l 558 -17 q 453 85 497 -17 l 367 292 l 268 292 m 519 521 q 343 640 519 640 q 328 636 333 640 q 279 360 314 621 l 388 349 q 464 392 446 372 q 494 428 482 411 q 519 521 519 464 m 617 899 l 611 885 q 325 782 471 838 l 314 789 l 306 822 l 582 974 l 594 965 l 617 899 z "},"Ŗ":{"ha":818,"x_min":39,"x_max":782,"o":"m 294 383 q 260 110 260 136 q 267 74 260 85 q 346 54 282 54 l 347 50 l 329 -6 q 190 -1 253 -3 l 39 -6 l 58 54 q 145 82 122 61 q 175 163 168 103 q 250 786 250 769 q 243 815 250 803 q 207 828 236 828 l 163 825 l 160 831 l 176 889 q 322 883 272 883 l 471 889 q 655 837 585 889 q 725 695 725 785 q 669 530 725 606 q 507 407 614 454 l 625 160 q 691 67 658 93 q 778 42 724 42 l 782 38 l 769 -7 l 657 -22 q 590 14 624 -22 q 532 110 557 50 l 421 383 l 294 383 m 390 836 q 372 831 378 836 q 307 456 351 806 l 443 442 q 485 458 0 0 q 615 675 611 532 q 390 836 615 836 m 294 -129 q 374 -93 342 -93 q 428 -120 407 -93 q 450 -192 450 -147 q 397 -315 450 -260 q 272 -407 344 -369 l 247 -386 l 247 -372 q 319 -308 290 -346 q 347 -235 347 -269 q 292 -149 347 -182 l 294 -129 z "},"ŗ":{"ha":707,"x_min":44,"x_max":671,"o":"m 268 292 q 243 95 243 115 q 252 63 243 75 q 314 50 261 51 l 315 46 l 300 -4 q 178 -1 228 -1 l 44 -6 l 61 50 q 131 72 113 56 q 154 135 149 88 q 211 608 211 596 q 206 630 211 621 q 178 639 201 639 l 142 638 l 138 643 l 153 694 q 276 690 235 690 l 407 696 q 567 654 507 696 q 628 542 628 613 q 453 315 628 390 l 544 135 q 598 63 571 83 q 667 42 625 42 l 671 36 l 660 -6 l 558 -17 q 453 85 497 -17 l 367 292 l 268 292 m 519 521 q 343 640 519 640 q 328 636 333 640 q 279 360 314 621 l 388 349 q 464 392 446 372 q 494 428 482 411 q 519 521 519 464 m 257 -129 q 337 -93 304 -93 q 391 -120 369 -93 q 413 -192 413 -147 q 360 -315 413 -260 q 235 -407 307 -369 l 210 -386 l 210 -372 q 281 -308 253 -346 q 310 -235 310 -269 q 254 -149 310 -182 l 257 -129 z "},"Ř":{"ha":818,"x_min":39,"x_max":782,"o":"m 294 383 q 260 110 260 136 q 267 74 260 85 q 346 54 282 54 l 347 50 l 329 -6 q 190 -1 253 -3 l 39 -6 l 58 54 q 145 82 122 61 q 175 163 168 103 q 250 786 250 769 q 243 815 250 803 q 207 828 236 828 l 163 825 l 160 831 l 176 889 q 322 883 272 883 l 471 889 q 655 837 585 889 q 725 695 725 785 q 669 530 725 606 q 507 407 614 454 l 625 160 q 691 67 658 93 q 778 42 724 42 l 782 38 l 769 -7 l 657 -22 q 590 14 624 -22 q 532 110 557 50 l 421 383 l 294 383 m 390 836 q 372 831 378 836 q 307 456 351 806 l 443 442 q 485 458 0 0 q 615 675 611 532 q 390 836 615 836 m 679 1163 l 696 1132 l 490 978 l 472 978 l 306 1132 l 328 1163 l 342 1164 l 493 1074 l 667 1164 l 679 1163 z "},"ř":{"ha":707,"x_min":44,"x_max":671,"o":"m 268 292 q 243 95 243 115 q 252 63 243 75 q 314 50 261 51 l 315 46 l 300 -4 q 178 -1 228 -1 l 44 -6 l 61 50 q 131 72 113 56 q 154 135 149 88 q 211 608 211 596 q 206 630 211 621 q 178 639 201 639 l 142 638 l 138 643 l 153 694 q 276 690 235 690 l 407 696 q 567 654 507 696 q 628 542 628 613 q 453 315 628 390 l 544 135 q 598 63 571 83 q 667 42 625 42 l 671 36 l 660 -6 l 558 -17 q 453 85 497 -17 l 367 292 l 268 292 m 519 521 q 343 640 519 640 q 328 636 333 640 q 279 360 314 621 l 388 349 q 464 392 446 372 q 494 428 482 411 q 519 521 519 464 m 608 968 l 625 938 l 419 783 l 401 783 l 235 938 l 257 968 l 271 969 l 422 879 l 596 969 l 608 968 z "},"Ś":{"ha":707,"x_min":44,"x_max":669,"o":"m 267 -17 q 157 -6 211 -17 q 50 29 103 6 l 44 43 q 92 285 75 147 l 149 292 q 142 173 142 228 q 157 90 142 118 q 284 44 183 44 q 443 92 385 44 q 501 214 501 139 q 464 302 501 264 q 331 397 426 340 q 201 486 236 453 q 133 625 135 550 q 226 819 133 739 q 456 900 319 900 q 667 867 561 900 l 669 860 q 613 625 636 753 l 563 619 l 556 626 q 571 737 571 688 q 538 809 571 786 q 426 832 506 832 q 291 790 346 832 q 236 681 236 747 q 338 542 236 614 q 408 499 361 526 q 484 451 454 471 q 547 404 514 432 q 614 271 614 349 q 517 65 614 147 q 267 -17 419 -17 m 665 1093 l 660 1079 q 374 976 519 1032 l 363 983 l 354 1017 l 631 1168 l 643 1160 l 665 1093 z "},"ś":{"ha":613,"x_min":47,"x_max":581,"o":"m 235 -12 q 74 14 140 -12 l 51 24 l 47 36 q 86 224 72 121 l 143 229 q 138 143 138 183 q 150 82 138 103 q 250 47 172 47 q 373 81 328 47 q 418 160 418 114 q 388 234 418 206 q 275 308 357 263 q 156 392 193 353 q 118 483 118 431 q 197 640 118 576 q 393 704 276 704 q 571 676 482 704 l 574 669 q 526 485 546 585 l 476 481 l 469 486 q 481 567 481 531 q 455 620 481 603 q 367 638 429 638 q 262 607 304 638 q 219 528 219 576 q 303 425 219 479 q 360 393 321 414 q 422 357 399 372 q 474 319 446 342 q 528 214 528 276 q 446 51 528 115 q 235 -12 364 -12 m 581 899 l 575 885 q 289 782 435 838 l 278 789 l 269 822 l 546 974 l 558 965 l 581 899 z "},"Ŝ":{"ha":707,"x_min":44,"x_max":669,"o":"m 267 -17 q 157 -6 211 -17 q 50 29 103 6 l 44 43 q 92 285 75 147 l 149 292 q 142 173 142 228 q 157 90 142 118 q 284 44 183 44 q 443 92 385 44 q 501 214 501 139 q 464 302 501 264 q 331 397 426 340 q 201 486 236 453 q 133 625 135 550 q 226 819 133 739 q 456 900 319 900 q 667 867 561 900 l 669 860 q 613 625 636 753 l 563 619 l 556 626 q 571 737 571 688 q 538 809 571 786 q 426 832 506 832 q 291 790 346 832 q 236 681 236 747 q 338 542 236 614 q 408 499 361 526 q 484 451 454 471 q 547 404 514 432 q 614 271 614 349 q 517 65 614 147 q 267 -17 419 -17 m 274 975 l 257 1006 l 468 1218 l 488 1218 l 647 1006 l 624 975 l 611 974 l 465 1108 l 286 974 l 274 975 z "},"ŝ":{"ha":613,"x_min":47,"x_max":581,"o":"m 235 -12 q 74 14 140 -12 l 51 24 l 47 36 q 86 224 72 121 l 143 229 q 138 143 138 183 q 150 82 138 103 q 250 47 172 47 q 373 81 328 47 q 418 160 418 114 q 388 234 418 206 q 275 308 357 263 q 156 392 193 353 q 118 483 118 431 q 197 640 118 576 q 393 704 276 704 q 571 676 482 704 l 574 669 q 526 485 546 585 l 476 481 l 469 486 q 481 567 481 531 q 455 620 481 603 q 367 638 429 638 q 262 607 304 638 q 219 528 219 576 q 303 425 219 479 q 360 393 321 414 q 422 357 399 372 q 474 319 446 342 q 528 214 528 276 q 446 51 528 115 q 235 -12 364 -12 m 207 781 l 190 811 l 401 1024 l 421 1024 l 581 811 l 557 781 l 544 779 l 399 914 l 219 779 l 207 781 z "},"Ş":{"ha":707,"x_min":44,"x_max":669,"o":"m 149 292 q 142 173 142 228 q 157 90 142 118 q 284 44 183 44 q 443 92 385 44 q 501 214 501 139 q 464 302 501 264 q 331 397 426 340 q 201 486 236 453 q 133 625 135 550 q 226 819 133 739 q 456 900 319 900 q 667 867 561 900 l 669 860 q 613 625 636 753 l 563 619 l 556 626 q 571 737 571 688 q 538 809 571 786 q 426 832 506 832 q 291 790 346 832 q 236 681 236 747 q 338 542 236 614 q 408 499 361 526 q 484 451 454 471 q 547 404 514 432 q 614 271 614 349 q 533 81 614 160 q 324 -12 453 1 l 299 -69 q 351 -111 328 -89 q 381 -142 375 -133 q 399 -187 399 -168 q 340 -282 399 -240 q 221 -324 282 -324 q 162 -310 189 -324 q 135 -276 135 -297 q 179 -196 135 -254 l 190 -196 q 190 -219 190 -201 q 206 -256 190 -236 q 253 -275 222 -275 q 304 -259 283 -275 q 325 -219 325 -243 q 224 -118 325 -183 l 265 -17 q 156 -6 210 -17 q 50 29 103 6 l 44 43 q 92 285 75 147 l 149 292 z "},"ş":{"ha":613,"x_min":47,"x_max":574,"o":"m 235 -12 q 74 14 140 -12 l 51 24 l 47 36 q 86 224 72 121 l 143 229 q 138 143 138 183 q 150 82 138 103 q 250 47 172 47 q 373 81 328 47 q 418 160 418 114 q 388 234 418 206 q 275 308 357 263 q 156 392 193 353 q 118 483 118 431 q 197 640 118 576 q 393 704 276 704 q 571 676 482 704 l 574 669 q 526 485 546 585 l 476 481 l 469 486 q 481 567 481 531 q 455 620 481 603 q 367 638 429 638 q 262 607 304 638 q 219 528 219 576 q 303 425 219 479 q 360 393 321 414 q 422 357 399 372 q 474 319 446 342 q 528 214 528 276 q 466 69 528 129 q 301 -7 404 8 l 274 -69 q 326 -111 303 -89 q 356 -142 350 -133 q 374 -187 374 -168 q 315 -282 374 -240 q 196 -324 257 -324 q 137 -310 164 -324 q 110 -276 110 -297 q 154 -196 110 -254 l 165 -196 q 165 -219 165 -201 q 181 -256 165 -236 q 228 -275 197 -275 q 279 -259 258 -275 q 300 -219 300 -243 q 199 -118 300 -183 l 242 -12 l 235 -12 z "},"Š":{"ha":707,"x_min":44,"x_max":669,"o":"m 267 -17 q 157 -6 211 -17 q 50 29 103 6 l 44 43 q 92 285 75 147 l 149 292 q 142 173 142 228 q 157 90 142 118 q 284 44 183 44 q 443 92 385 44 q 501 214 501 139 q 464 302 501 264 q 331 397 426 340 q 201 486 236 453 q 133 625 135 550 q 226 819 133 739 q 456 900 319 900 q 667 867 561 900 l 669 860 q 613 625 636 753 l 563 619 l 556 626 q 571 737 571 688 q 538 809 571 786 q 426 832 506 832 q 291 790 346 832 q 236 681 236 747 q 338 542 236 614 q 408 499 361 526 q 484 451 454 471 q 547 404 514 432 q 614 271 614 349 q 517 65 614 147 q 267 -17 419 -17 m 647 1163 l 664 1132 l 458 978 l 440 978 l 274 1132 l 296 1163 l 310 1164 l 461 1074 l 635 1164 l 647 1163 z "},"š":{"ha":613,"x_min":47,"x_max":597,"o":"m 235 -12 q 74 14 140 -12 l 51 24 l 47 36 q 86 224 72 121 l 143 229 q 138 143 138 183 q 150 82 138 103 q 250 47 172 47 q 373 81 328 47 q 418 160 418 114 q 388 234 418 206 q 275 308 357 263 q 156 392 193 353 q 118 483 118 431 q 197 640 118 576 q 393 704 276 704 q 571 676 482 704 l 574 669 q 526 485 546 585 l 476 481 l 469 486 q 481 567 481 531 q 455 620 481 603 q 367 638 429 638 q 262 607 304 638 q 219 528 219 576 q 303 425 219 479 q 360 393 321 414 q 422 357 399 372 q 474 319 446 342 q 528 214 528 276 q 446 51 528 115 q 235 -12 364 -12 m 581 968 l 597 938 l 392 783 l 374 783 l 207 938 l 229 968 l 243 969 l 394 879 l 568 969 l 581 968 z "},"Ţ":{"ha":731,"x_min":56,"x_max":763,"o":"m 763 890 q 754 742 754 794 l 754 663 l 693 657 q 691 728 692 706 q 681 774 690 750 q 664 806 672 799 q 627 822 656 813 q 572 832 599 831 q 488 836 546 833 q 423 452 467 738 q 379 128 379 167 q 394 74 379 90 q 444 57 410 57 l 521 61 l 524 56 l 504 -4 q 360 0 425 -1 l 329 -69 q 382 -111 358 -89 q 411 -142 406 -133 q 429 -187 429 -168 q 371 -282 429 -240 q 251 -324 313 -324 q 192 -310 219 -324 q 165 -276 165 -297 q 210 -196 165 -254 l 221 -196 q 221 -219 221 -201 q 237 -256 221 -236 q 283 -275 253 -275 q 335 -259 314 -275 q 356 -219 356 -243 q 254 -118 356 -183 l 303 0 l 131 -6 l 147 50 q 265 86 242 60 q 303 225 289 113 l 376 836 q 285 832 313 833 q 224 822 257 831 q 181 807 190 814 q 156 776 171 800 q 135 731 140 751 q 117 663 129 711 l 56 657 q 104 890 86 775 l 118 900 l 224 885 l 638 885 l 751 900 l 763 890 z "},"ţ":{"ha":633,"x_min":58,"x_max":650,"o":"m 343 108 q 397 53 343 53 l 458 56 l 461 51 l 444 -4 q 331 0 383 -1 l 300 -69 q 353 -111 329 -89 q 383 -142 376 -133 q 400 -187 400 -168 q 342 -282 400 -240 q 222 -324 283 -324 q 163 -310 190 -324 q 136 -276 136 -297 q 181 -196 136 -254 l 192 -196 q 192 -219 192 -201 q 208 -256 192 -236 q 254 -275 224 -275 q 306 -259 285 -275 q 326 -219 326 -243 q 225 -118 326 -183 l 274 0 l 121 -6 l 135 47 q 231 74 213 54 q 261 176 250 94 l 318 639 q 185 625 210 636 q 119 503 147 607 l 58 497 q 97 694 83 600 l 110 704 l 201 692 l 542 692 l 640 704 l 650 694 l 642 503 l 581 497 q 556 617 579 599 q 425 639 532 636 q 376 353 410 565 q 343 108 343 142 z "},"Ť":{"ha":731,"x_min":56,"x_max":763,"o":"m 763 890 q 754 742 754 794 l 754 663 l 693 657 q 691 728 692 706 q 681 774 690 750 q 664 806 672 799 q 627 822 656 813 q 572 832 599 831 q 488 836 546 833 q 423 452 467 738 q 379 128 379 167 q 394 74 379 90 q 444 57 410 57 l 521 61 l 524 56 l 504 -4 q 310 0 374 0 l 131 -6 l 147 50 q 265 86 242 60 q 303 225 289 113 l 376 836 q 285 832 313 833 q 224 822 257 831 q 181 807 190 814 q 156 776 171 800 q 135 731 140 751 q 117 663 129 711 l 56 657 q 104 890 86 775 l 118 900 l 224 885 l 638 885 l 751 900 l 763 890 m 653 1163 l 669 1132 l 464 978 l 446 978 l 279 1132 l 301 1163 l 315 1164 l 467 1074 l 640 1164 l 653 1163 z "},"ť":{"ha":633,"x_min":58,"x_max":650,"o":"m 343 108 q 397 53 343 53 l 458 56 l 461 51 l 444 -4 q 278 0 332 0 l 121 -6 l 135 47 q 231 74 213 54 q 261 176 250 94 l 318 639 q 185 625 210 636 q 119 503 147 607 l 58 497 q 97 694 83 600 l 110 704 l 201 692 l 542 692 l 640 704 l 650 694 l 642 503 l 581 497 q 556 617 579 599 q 425 639 532 636 q 376 353 410 565 q 343 108 343 142 m 585 968 l 601 938 l 396 783 l 378 783 l 211 938 l 233 968 l 247 969 l 399 879 l 572 969 l 585 968 z "},"Ŧ":{"ha":731,"x_min":56,"x_max":763,"o":"m 763 890 q 754 742 754 794 l 754 663 l 693 657 q 691 728 692 706 q 681 774 690 750 q 664 806 672 799 q 627 822 656 813 q 572 832 599 831 q 488 836 546 833 q 429 494 468 746 l 540 500 l 558 482 l 553 431 l 419 429 q 379 129 379 168 q 394 74 379 90 q 444 57 410 57 l 521 61 l 524 56 l 504 -4 q 310 0 374 0 l 131 -6 l 147 50 q 265 86 242 60 q 303 225 289 113 l 326 429 l 203 428 l 190 440 l 200 494 l 335 493 l 376 836 q 285 832 313 833 q 224 822 257 831 q 181 807 190 814 q 156 776 171 800 q 135 731 140 751 q 117 663 129 711 l 56 657 q 104 890 86 775 l 118 900 l 224 885 l 638 885 l 751 900 l 763 890 z "},"ŧ":{"ha":633,"x_min":58,"x_max":650,"o":"m 343 108 q 397 53 343 53 l 458 56 l 461 51 l 444 -4 q 278 0 332 0 l 121 -6 l 135 47 q 231 74 213 54 q 261 176 250 94 l 275 290 l 147 289 l 135 301 l 144 356 l 282 354 l 318 639 q 185 625 210 636 q 119 503 147 607 l 58 497 q 97 694 83 600 l 110 704 l 201 692 l 542 692 l 640 704 l 650 694 l 642 503 l 581 497 q 556 617 579 599 q 425 639 532 636 q 376 356 408 564 l 485 361 l 503 343 l 497 292 l 367 290 q 343 108 343 139 z "},"Ũ":{"ha":906,"x_min":113,"x_max":938,"o":"m 243 281 q 292 115 243 172 q 445 57 342 57 q 615 119 549 57 q 694 299 681 181 q 744 783 744 760 q 738 817 744 806 q 703 828 732 828 l 643 825 l 643 831 l 658 888 q 794 883 757 883 q 938 897 857 883 l 924 838 q 846 816 864 831 q 822 758 828 801 l 764 286 q 650 63 746 143 q 397 -17 554 -17 q 206 49 272 -17 q 140 231 140 114 q 144 292 140 263 q 204 788 204 771 q 197 816 204 804 q 160 828 190 828 l 114 825 l 113 831 l 129 888 q 264 883 226 883 q 417 897 328 883 l 404 838 q 335 815 354 831 q 308 758 315 799 l 247 350 q 243 281 243 313 m 456 1174 q 553 1151 479 1174 q 644 1128 628 1128 q 722 1186 671 1128 l 739 1204 l 747 1204 l 775 1175 l 774 1168 l 657 1044 l 635 1039 q 538 1062 611 1039 q 448 1085 464 1085 q 408 1066 432 1085 q 353 1008 385 1047 l 343 1008 l 317 1038 l 318 1044 l 435 1168 l 456 1174 z "},"ũ":{"ha":769,"x_min":101,"x_max":782,"o":"m 228 217 q 266 98 228 139 q 376 57 304 57 q 571 231 551 57 q 611 605 611 589 q 606 630 611 621 q 578 639 600 639 l 532 638 l 531 642 l 544 694 q 668 690 626 690 l 782 700 l 769 646 q 708 628 722 639 q 689 586 693 618 l 644 228 q 552 50 631 113 q 356 -12 474 -12 q 126 182 124 -12 q 129 225 125 201 q 175 603 175 588 q 169 629 175 619 q 140 639 164 639 l 103 638 l 101 642 l 117 694 q 246 690 200 690 l 365 700 l 354 646 q 299 628 314 640 q 278 585 283 615 l 231 268 q 228 217 228 250 m 371 979 q 469 956 394 979 q 558 933 543 933 q 638 992 586 933 l 654 1010 l 663 1010 l 690 981 l 689 974 l 572 850 l 550 844 q 453 867 526 844 q 363 890 379 890 q 324 872 347 890 q 268 814 300 853 l 258 814 l 232 843 l 233 850 l 350 974 l 371 979 z "},"Ū":{"ha":906,"x_min":113,"x_max":938,"o":"m 243 281 q 292 115 243 172 q 445 57 342 57 q 615 119 549 57 q 694 299 681 181 q 744 783 744 760 q 738 817 744 806 q 703 828 732 828 l 643 825 l 643 831 l 658 888 q 794 883 757 883 q 938 897 857 883 l 924 838 q 846 816 864 831 q 822 758 828 801 l 764 286 q 650 63 746 143 q 397 -17 554 -17 q 206 49 272 -17 q 140 231 140 114 q 144 292 140 263 q 204 788 204 771 q 197 816 204 804 q 160 828 190 828 l 114 825 l 113 831 l 129 888 q 264 883 226 883 q 417 897 328 883 l 404 838 q 335 815 354 831 q 308 758 315 799 l 247 350 q 243 281 243 313 m 757 1094 l 764 1081 l 746 1015 l 364 1013 l 357 1025 l 379 1088 q 583 1086 506 1086 l 757 1094 z "},"ū":{"ha":769,"x_min":101,"x_max":782,"o":"m 228 217 q 266 98 228 139 q 376 57 304 57 q 571 231 551 57 q 611 605 611 589 q 606 630 611 621 q 578 639 600 639 l 532 638 l 531 642 l 544 694 q 668 690 626 690 l 782 700 l 769 646 q 708 628 722 639 q 689 586 693 618 l 644 228 q 552 50 631 113 q 356 -12 474 -12 q 126 182 124 -12 q 129 225 125 201 q 175 603 175 588 q 169 629 175 619 q 140 639 164 639 l 103 638 l 101 642 l 117 694 q 246 690 200 690 l 365 700 l 354 646 q 299 628 314 640 q 278 585 283 615 l 231 268 q 228 217 228 250 m 668 900 l 675 886 l 657 821 l 275 818 l 268 831 l 290 893 q 494 892 417 892 l 668 900 z "},"Ŭ":{"ha":906,"x_min":113,"x_max":938,"o":"m 243 281 q 292 115 243 172 q 445 57 342 57 q 615 119 549 57 q 694 299 681 181 q 744 783 744 760 q 738 817 744 806 q 703 828 732 828 l 643 825 l 643 831 l 658 888 q 794 883 757 883 q 938 897 857 883 l 924 838 q 846 816 864 831 q 822 758 828 801 l 764 286 q 650 63 746 143 q 397 -17 554 -17 q 206 49 272 -17 q 140 231 140 114 q 144 292 140 263 q 204 788 204 771 q 197 816 204 804 q 160 828 190 828 l 114 825 l 113 831 l 129 888 q 264 883 226 883 q 417 897 328 883 l 404 838 q 335 815 354 831 q 308 758 315 799 l 247 350 q 243 281 243 313 m 429 1190 q 547 1099 453 1099 q 686 1190 642 1099 l 699 1190 l 718 1176 q 649 1064 694 1110 q 538 1018 603 1018 q 437 1064 472 1018 q 394 1176 401 1110 l 418 1190 l 429 1190 z "},"ŭ":{"ha":769,"x_min":101,"x_max":782,"o":"m 228 217 q 266 98 228 139 q 376 57 304 57 q 571 231 551 57 q 611 605 611 589 q 606 630 611 621 q 578 639 600 639 l 532 638 l 531 642 l 544 694 q 668 690 626 690 l 782 700 l 769 646 q 708 628 722 639 q 689 586 693 618 l 644 228 q 552 50 631 113 q 356 -12 474 -12 q 126 182 124 -12 q 129 225 125 201 q 175 603 175 588 q 169 629 175 619 q 140 639 164 639 l 103 638 l 101 642 l 117 694 q 246 690 200 690 l 365 700 l 354 646 q 299 628 314 640 q 278 585 283 615 l 231 268 q 228 217 228 250 m 329 942 q 449 872 354 872 q 586 942 544 872 l 597 942 l 618 928 q 549 831 594 869 q 439 792 503 792 q 339 831 375 792 q 293 928 303 869 l 318 942 l 329 942 z "},"Ů":{"ha":906,"x_min":113,"x_max":938,"o":"m 243 281 q 292 115 243 172 q 445 57 342 57 q 615 119 549 57 q 694 299 681 181 q 744 783 744 760 q 738 817 744 806 q 703 828 732 828 l 643 825 l 643 831 l 658 888 q 794 883 757 883 q 938 897 857 883 l 924 838 q 846 816 864 831 q 822 758 828 801 l 764 286 q 650 63 746 143 q 397 -17 554 -17 q 206 49 272 -17 q 140 231 140 114 q 144 292 140 263 q 204 788 204 771 q 197 816 204 804 q 160 828 190 828 l 114 825 l 113 831 l 129 888 q 264 883 226 883 q 417 897 328 883 l 404 838 q 335 815 354 831 q 308 758 315 799 l 247 350 q 243 281 243 313 m 557 989 q 624 1051 624 989 q 563 1110 624 1110 q 515 1093 532 1110 q 497 1047 497 1076 q 516 1003 497 1018 q 557 989 535 989 m 672 1065 q 672 1041 672 1065 q 635 977 672 1018 q 549 936 599 936 q 475 962 499 936 q 451 1038 451 988 q 488 1126 451 1088 q 576 1164 525 1164 q 650 1138 628 1164 q 672 1065 672 1111 z "},"ů":{"ha":769,"x_min":101,"x_max":782,"o":"m 228 217 q 266 98 228 139 q 376 57 304 57 q 571 231 551 57 q 611 605 611 589 q 606 630 611 621 q 578 639 600 639 l 532 638 l 531 642 l 544 694 q 668 690 626 690 l 782 700 l 769 646 q 708 628 722 639 q 689 586 693 618 l 644 228 q 552 50 631 113 q 356 -12 474 -12 q 126 182 124 -12 q 129 225 125 201 q 175 603 175 588 q 169 629 175 619 q 140 639 164 639 l 103 638 l 101 642 l 117 694 q 246 690 200 690 l 365 700 l 354 646 q 299 628 314 640 q 278 585 283 615 l 231 268 q 228 217 228 250 m 468 794 q 535 857 535 794 q 474 915 535 915 q 426 899 443 915 q 408 853 408 882 q 427 809 408 824 q 468 794 446 794 m 583 870 q 583 847 583 870 q 547 783 583 824 q 460 742 510 742 q 386 767 410 742 q 363 843 363 793 q 399 931 363 893 q 488 969 436 969 q 561 943 539 969 q 583 870 583 917 z "},"Ű":{"ha":906,"x_min":113,"x_max":938,"o":"m 243 281 q 292 115 243 172 q 445 57 342 57 q 615 119 549 57 q 694 299 681 181 q 744 783 744 760 q 738 817 744 806 q 703 828 732 828 l 643 825 l 643 831 l 658 888 q 794 883 757 883 q 938 897 857 883 l 924 838 q 846 816 864 831 q 822 758 828 801 l 764 286 q 650 63 746 143 q 397 -17 554 -17 q 206 49 272 -17 q 140 231 140 114 q 144 292 140 263 q 204 788 204 771 q 197 816 204 804 q 160 828 190 828 l 114 825 l 113 831 l 129 888 q 264 883 226 883 q 417 897 328 883 l 404 838 q 335 815 354 831 q 308 758 315 799 l 247 350 q 243 281 243 313 m 667 1097 l 663 1085 q 435 964 551 1029 l 424 971 l 411 1000 l 624 1163 l 636 1157 l 667 1097 m 861 1085 l 857 1072 q 629 951 746 1017 l 619 957 l 606 986 l 818 1150 l 831 1143 l 861 1085 z "},"ű":{"ha":769,"x_min":101,"x_max":782,"o":"m 228 217 q 266 98 228 139 q 376 57 304 57 q 571 231 551 57 q 611 605 611 589 q 606 630 611 621 q 578 639 600 639 l 532 638 l 531 642 l 544 694 q 668 690 626 690 l 782 700 l 769 646 q 708 628 722 639 q 689 586 693 618 l 644 228 q 552 50 631 113 q 356 -12 474 -12 q 126 182 124 -12 q 129 225 125 201 q 175 603 175 588 q 169 629 175 619 q 140 639 164 639 l 103 638 l 101 642 l 117 694 q 246 690 200 690 l 365 700 l 354 646 q 299 628 314 640 q 278 585 283 615 l 231 268 q 228 217 228 250 m 553 903 l 549 890 q 321 769 438 835 l 310 776 l 297 806 l 510 968 l 522 963 l 553 903 m 747 890 l 743 878 q 515 757 632 822 l 506 763 l 492 792 l 704 956 l 717 949 l 747 890 z "},"Ų":{"ha":906,"x_min":113,"x_max":938,"o":"m 385 -219 q 526 0 385 -140 q 397 -17 468 -17 q 206 48 272 -17 q 140 231 140 113 q 144 292 140 263 q 204 788 204 771 q 197 816 204 804 q 160 828 190 828 l 114 825 l 113 831 l 129 888 q 264 883 226 883 q 417 897 328 883 l 404 838 q 334 815 353 831 q 308 758 315 799 l 247 350 q 243 281 243 313 q 293 114 243 171 q 446 57 343 57 q 615 119 549 57 q 694 299 681 181 q 744 783 744 760 q 738 817 744 806 q 703 828 732 828 l 643 825 l 643 831 l 658 888 q 794 883 757 883 q 938 897 857 883 l 924 838 q 843 814 861 828 q 822 758 825 800 l 764 286 q 657 63 747 153 q 508 -101 542 -54 q 474 -182 474 -147 q 492 -235 474 -217 q 538 -253 511 -253 q 649 -221 585 -253 l 663 -247 q 518 -335 589 -311 q 421 -303 457 -335 q 385 -219 385 -272 z "},"ų":{"ha":769,"x_min":101,"x_max":782,"o":"m 333 -171 q 446 -1 333 -108 q 343 -12 397 -12 q 182 38 238 -12 q 126 182 126 88 q 129 225 126 211 q 175 607 175 593 q 169 630 175 621 q 140 639 164 639 l 103 638 l 101 642 l 117 694 q 246 690 200 690 l 365 700 l 354 646 q 299 628 314 640 q 278 585 283 615 l 231 268 q 228 217 228 250 q 266 98 228 139 q 376 57 304 57 q 572 231 549 57 q 611 605 611 589 q 606 630 611 621 q 578 639 600 639 l 532 638 l 531 642 l 544 694 q 668 690 626 690 l 782 700 l 769 646 q 706 628 721 639 q 689 586 692 617 l 644 228 q 549 40 632 121 q 439 -77 467 -40 q 411 -140 411 -114 q 426 -179 411 -165 q 463 -193 442 -193 q 551 -168 501 -193 l 564 -192 q 446 -261 503 -243 q 364 -237 394 -261 q 333 -171 333 -212 z "},"Ŵ":{"ha":1246,"x_min":56,"x_max":1308,"o":"m 376 129 q 633 667 381 139 q 618 744 628 681 q 506 826 601 822 l 504 832 l 521 888 q 664 883 625 883 q 863 900 738 883 l 864 890 l 853 839 q 750 822 772 833 q 728 779 728 810 q 817 129 728 718 l 825 129 q 889 265 842 165 q 970 436 936 364 q 1043 592 1004 508 q 1124 789 1124 764 q 1038 832 1124 832 l 971 832 l 968 838 l 985 894 q 1168 883 1083 883 l 1308 889 l 1292 826 q 1235 812 1253 824 q 1197 760 1217 800 l 822 7 l 743 -24 l 649 576 l 640 576 l 378 7 l 296 -24 q 168 747 236 376 q 58 826 154 825 l 56 832 l 71 888 q 218 883 176 883 q 413 900 301 883 l 415 890 l 406 839 q 303 822 326 833 q 281 775 281 810 q 368 129 281 717 l 376 129 m 544 990 l 529 1021 l 733 1175 l 753 1175 l 919 1021 l 896 990 l 883 989 l 731 1079 l 557 989 l 544 990 z "},"ŵ":{"ha":1058,"x_min":60,"x_max":1100,"o":"m 74 694 q 197 690 160 690 q 363 703 257 690 l 365 694 l 356 647 q 276 633 294 643 q 257 597 257 624 q 324 113 257 540 l 333 113 l 531 524 l 521 579 q 432 639 510 638 l 431 644 l 444 694 q 569 690 533 690 q 738 703 622 690 l 740 694 l 729 647 q 649 633 667 642 q 631 599 631 624 q 699 113 631 540 l 708 113 q 758 215 721 139 q 819 345 794 292 q 875 461 844 399 q 936 611 936 593 q 871 642 936 642 l 819 642 l 817 647 l 831 699 q 982 690 914 690 l 1100 694 l 1086 639 q 1041 626 1056 636 q 1011 586 1026 617 l 719 6 l 625 -18 l 553 426 l 546 426 l 347 6 l 251 -18 q 149 575 200 311 q 63 639 136 638 l 60 644 l 74 694 m 435 796 l 419 826 l 624 981 l 643 981 l 810 826 l 786 796 l 774 794 l 621 885 l 447 794 l 435 796 z "},"Ŷ":{"ha":722,"x_min":39,"x_max":811,"o":"m 379 840 q 292 824 313 835 q 271 789 271 813 q 378 422 271 740 l 383 422 l 576 725 q 606 799 606 769 q 526 838 606 832 l 524 843 l 539 894 q 683 883 639 883 l 807 889 l 811 881 l 796 832 q 706 795 733 821 q 642 715 678 769 q 420 383 424 390 q 412 361 417 376 q 403 336 407 346 q 397 302 400 326 q 392 264 393 278 q 372 112 372 136 q 376 78 372 88 q 421 57 385 57 l 486 61 l 489 56 l 469 -4 q 318 0 361 0 q 153 -17 244 0 l 168 43 q 260 87 239 58 q 290 196 282 115 q 299 317 299 275 q 278 418 299 360 q 170 728 174 719 q 160 755 167 738 q 151 776 154 772 q 140 792 147 781 q 128 806 133 803 q 113 815 122 808 q 94 824 104 822 q 71 829 83 826 q 42 833 58 832 l 39 839 l 54 889 q 183 883 136 883 q 388 896 278 883 l 390 886 l 379 840 m 293 990 l 278 1021 l 482 1175 l 501 1175 l 668 1021 l 644 990 l 632 989 l 479 1079 l 306 989 l 293 990 z "},"ŷ":{"ha":640,"x_min":49,"x_max":696,"o":"m 463 699 l 588 690 l 692 694 l 696 688 l 682 642 q 582 581 622 631 q 474 429 560 554 q 383 296 388 304 q 376 281 379 288 q 369 263 372 275 q 365 245 367 251 q 361 222 364 239 q 357 197 358 206 q 344 94 344 113 q 351 65 344 76 q 386 53 357 53 l 440 56 l 442 51 l 426 -4 q 292 0 328 0 q 142 -12 219 0 l 156 42 q 233 74 215 53 q 258 156 251 96 q 264 247 264 217 q 246 321 264 276 l 171 521 q 123 616 142 597 q 51 642 104 635 l 49 647 l 63 694 q 186 690 138 690 l 347 700 l 350 692 l 340 649 q 272 636 289 644 q 256 612 256 628 q 269 553 256 596 q 339 343 283 506 l 346 343 l 490 563 q 514 619 514 597 q 451 646 514 642 l 449 651 l 463 699 m 231 796 l 215 826 l 419 981 l 439 981 l 606 826 l 582 796 l 569 794 l 417 885 l 243 794 l 231 796 z "},"Ÿ":{"ha":722,"x_min":39,"x_max":811,"o":"m 379 840 q 292 824 313 835 q 271 789 271 813 q 378 422 271 740 l 383 422 l 576 725 q 606 799 606 769 q 526 838 606 832 l 524 843 l 539 894 q 683 883 639 883 l 807 889 l 811 881 l 796 832 q 706 795 733 821 q 642 715 678 769 q 420 383 424 390 q 412 361 417 376 q 403 336 407 346 q 397 302 400 326 q 392 264 393 278 q 372 112 372 136 q 376 78 372 88 q 421 57 385 57 l 486 61 l 489 56 l 469 -4 q 318 0 361 0 q 153 -17 244 0 l 168 43 q 260 87 239 58 q 290 196 282 115 q 299 317 299 275 q 278 418 299 360 q 170 728 174 719 q 160 755 167 738 q 151 776 154 772 q 140 792 147 781 q 128 806 133 803 q 113 815 122 808 q 94 824 104 822 q 71 829 83 826 q 42 833 58 832 l 39 839 l 54 889 q 183 883 136 883 q 388 896 278 883 l 390 886 l 379 840 m 653 1079 q 653 1066 653 1079 q 630 1030 653 1053 q 579 1007 607 1007 q 526 1060 526 1007 q 549 1113 526 1090 q 599 1136 572 1136 q 640 1121 626 1136 q 653 1079 653 1106 m 431 1079 q 431 1066 431 1079 q 408 1030 431 1053 q 357 1007 385 1007 q 304 1060 304 1007 q 326 1113 304 1090 q 376 1136 349 1136 q 417 1121 404 1136 q 431 1079 431 1106 z "},"Ź":{"ha":758,"x_min":14,"x_max":761,"o":"m 621 18 l 599 -4 l 121 4 l 25 -4 l 14 39 l 610 828 l 374 819 q 238 776 282 818 q 169 626 193 733 l 108 621 q 165 888 147 761 l 181 900 l 413 885 l 751 875 l 761 836 q 147 50 465 486 l 424 60 q 542 117 493 61 q 629 292 592 172 l 689 299 q 621 18 643 150 m 707 1093 l 701 1079 q 415 976 561 1032 l 404 983 l 396 1017 l 672 1168 l 685 1160 l 707 1093 z "},"ź":{"ha":654,"x_min":26,"x_max":650,"o":"m 540 15 l 521 -3 l 118 3 l 39 -4 l 26 35 l 503 636 l 324 629 q 216 596 250 628 q 163 483 182 564 l 101 478 q 147 694 133 594 l 160 704 l 351 692 l 640 686 l 650 651 q 158 51 444 419 l 372 60 q 467 103 428 61 q 535 236 506 146 l 594 243 q 540 15 557 119 m 615 899 l 610 885 q 324 782 469 838 l 313 789 l 304 822 l 581 974 l 593 965 l 615 899 z "},"Ż":{"ha":758,"x_min":14,"x_max":761,"o":"m 621 18 l 599 -4 l 121 4 l 25 -4 l 14 39 l 610 828 l 374 819 q 238 776 282 818 q 169 626 193 733 l 108 621 q 165 888 147 761 l 181 900 l 413 885 l 751 875 l 761 836 q 147 50 465 486 l 424 60 q 542 117 493 61 q 629 292 592 172 l 689 299 q 621 18 643 150 m 564 1084 q 564 1068 564 1084 q 538 1026 564 1053 q 478 999 511 999 q 429 1017 444 999 q 414 1066 414 1035 q 440 1124 414 1097 q 500 1151 467 1151 q 549 1133 533 1151 q 564 1084 564 1115 z "},"ż":{"ha":654,"x_min":26,"x_max":650,"o":"m 540 15 l 521 -3 l 118 3 l 39 -4 l 26 35 l 503 636 l 324 629 q 216 596 250 628 q 163 483 182 564 l 101 478 q 147 694 133 594 l 160 704 l 351 692 l 640 686 l 650 651 q 158 51 444 419 l 372 60 q 467 103 428 61 q 535 236 506 146 l 594 243 q 540 15 557 119 m 496 890 q 496 874 496 890 q 469 831 496 858 q 410 804 443 804 q 361 822 376 804 q 346 872 346 840 q 373 930 346 903 q 433 957 400 957 q 481 939 465 957 q 496 890 496 921 z "},"Ž":{"ha":758,"x_min":14,"x_max":761,"o":"m 621 18 l 599 -4 l 121 4 l 25 -4 l 14 39 l 610 828 l 374 819 q 238 776 282 818 q 169 626 193 733 l 108 621 q 165 888 147 761 l 181 900 l 413 885 l 751 875 l 761 836 q 147 50 465 486 l 424 60 q 542 117 493 61 q 629 292 592 172 l 689 299 q 621 18 643 150 m 675 1163 l 692 1132 l 486 978 l 468 978 l 301 1132 l 324 1163 l 338 1164 l 489 1074 l 663 1164 l 675 1163 z "},"ž":{"ha":654,"x_min":26,"x_max":650,"o":"m 540 15 l 521 -3 l 118 3 l 39 -4 l 26 35 l 503 636 l 324 629 q 216 596 250 628 q 163 483 182 564 l 101 478 q 147 694 133 594 l 160 704 l 351 692 l 640 686 l 650 651 q 158 51 444 419 l 372 60 q 467 103 428 61 q 535 236 506 146 l 594 243 q 540 15 557 119 m 606 968 l 622 938 l 417 783 l 399 783 l 232 938 l 254 968 l 268 969 l 419 879 l 593 969 l 606 968 z "},"ƒ":{"ha":513,"x_min":-83,"x_max":561,"o":"m 303 603 l 293 496 l 474 500 l 478 496 l 464 422 l 286 426 l 244 -29 q 171 -167 236 -112 q 26 -221 106 -221 q -49 -207 -15 -221 q -83 -173 -83 -193 q -75 -119 -83 -153 q -58 -76 -67 -85 l -43 -76 q 4 -138 -28 -112 q 72 -164 36 -164 q 151 -60 142 -164 l 196 383 q 183 423 196 417 q 106 431 169 429 l 100 439 l 110 486 l 207 500 l 221 635 q 288 776 229 721 q 426 831 346 831 q 519 816 476 831 q 561 780 561 801 q 553 723 561 758 q 536 678 544 688 l 518 678 q 463 743 500 715 q 394 771 426 771 q 344 759 361 771 q 319 719 328 747 q 303 603 303 661 z "},"Ǻ":{"ha":775,"x_min":-62,"x_max":753,"o":"m 399 -14 l 396 -4 l 407 46 q 509 65 483 51 q 535 115 535 79 q 504 325 535 133 q 388 326 471 326 q 217 315 306 326 l 149 165 q 129 101 129 125 q 203 51 129 51 l 281 51 l 281 47 l 267 -10 q 83 0 172 0 l -62 -4 l -44 58 q 22 85 -4 63 q 75 167 47 108 l 419 876 l 497 900 l 508 901 q 633 154 569 475 q 667 81 643 101 q 750 54 692 61 l 753 50 l 738 -4 q 574 0 642 0 q 399 -14 507 0 m 367 376 q 493 385 432 376 l 432 756 l 422 756 l 249 376 l 367 376 m 493 978 q 553 1033 553 978 q 496 1086 553 1086 q 439 1029 439 1086 q 456 991 439 1004 q 493 978 474 978 m 597 1046 q 597 1025 597 1046 q 564 967 597 1004 q 485 929 531 929 q 419 953 440 929 q 397 1022 397 976 q 431 1101 397 1067 q 510 1135 464 1135 q 576 1111 556 1135 q 597 1046 597 1088 m 658 1240 l 654 1228 q 396 1136 528 1186 l 386 1142 l 379 1172 l 628 1308 l 639 1300 l 658 1240 z "},"ǻ":{"ha":681,"x_min":-31,"x_max":650,"o":"m 433 244 l 322 246 q 206 238 276 246 l 156 131 q 140 85 140 101 q 197 49 140 49 l 257 49 l 257 44 l 246 -7 q 93 0 165 0 l -31 -3 l -15 53 q 36 73 15 56 q 78 133 57 90 l 351 685 l 444 704 l 454 703 q 557 128 507 357 q 584 70 565 86 q 647 50 603 54 l 650 46 l 638 -3 q 518 0 557 0 q 349 -10 456 0 l 346 -3 l 356 44 q 436 59 417 49 q 456 92 456 69 q 433 244 456 110 m 326 299 q 424 304 374 299 l 376 578 l 367 578 l 235 299 l 326 299 m 415 783 q 475 839 475 783 q 418 892 475 892 q 361 835 361 892 q 378 797 361 810 q 415 783 396 783 m 519 851 q 519 831 519 851 q 486 772 519 810 q 408 735 453 735 q 341 758 363 735 q 319 827 319 782 q 353 906 319 872 q 432 940 386 940 q 499 917 478 940 q 519 851 519 893 m 571 1046 l 567 1033 q 308 942 440 992 l 299 947 l 292 978 l 540 1114 l 551 1106 l 571 1046 z "},"Ǽ":{"ha":1085,"x_min":-46,"x_max":1038,"o":"m 510 163 l 510 213 l 507 385 l 250 361 l 133 167 q 104 95 104 118 q 119 63 104 72 q 172 54 135 54 l 247 54 l 232 -10 q 49 0 133 0 l -43 -6 l -46 42 q 53 168 4 90 l 457 804 q 426 826 453 826 l 381 824 l 378 829 l 396 889 q 649 885 396 885 q 1008 901 903 885 l 1011 893 q 953 664 976 792 l 888 658 q 900 751 900 711 q 863 804 900 792 q 732 817 826 817 q 619 808 638 817 q 601 774 601 799 l 604 454 l 765 469 l 890 488 l 896 481 l 869 408 l 754 406 l 604 393 l 613 156 q 637 83 614 104 q 719 61 660 61 q 813 65 778 61 q 876 76 847 68 q 919 106 904 85 q 972 231 951 146 l 1033 238 l 1038 231 q 972 -1 999 115 l 965 -10 q 797 -3 968 -7 q 571 0 626 0 q 363 -14 471 0 l 361 -4 l 369 49 q 472 83 435 53 q 510 163 510 114 m 296 431 l 506 446 l 504 750 l 492 750 l 296 431 m 888 1176 l 886 1161 q 653 967 769 1072 l 640 969 l 613 996 q 821 1236 714 1106 l 835 1233 l 888 1176 z "},"ǽ":{"ha":939,"x_min":-15,"x_max":892,"o":"m 439 129 l 440 167 l 438 289 l 331 281 l 232 267 l 147 132 q 125 79 125 94 q 138 58 125 64 q 182 51 150 51 l 236 50 l 222 -7 q 63 0 131 0 l -14 -4 l -15 43 q 20 76 -7 43 q 64 135 47 110 l 378 618 q 353 638 374 638 l 317 636 l 313 642 l 328 694 q 603 692 435 692 q 867 704 772 692 l 869 697 q 822 511 842 611 l 754 506 q 764 576 764 546 q 736 617 764 607 q 636 626 708 626 q 550 619 564 626 q 536 593 536 611 l 540 363 l 663 375 l 767 392 l 774 383 l 751 315 l 654 311 l 542 301 l 549 133 q 567 76 550 93 q 626 60 585 60 q 769 81 736 60 q 825 190 801 103 l 888 196 l 892 189 q 839 0 860 97 l 832 -7 q 692 -2 835 -4 q 500 0 550 0 q 324 -10 428 0 l 321 -3 l 329 47 q 439 129 439 56 m 274 338 l 436 350 l 435 574 l 422 574 l 274 338 m 764 982 l 763 967 q 529 772 646 878 l 517 775 l 489 801 q 697 1042 590 911 l 711 1039 l 764 982 z "},"Ǿ":{"ha":921,"x_min":63,"x_max":894,"o":"m 63 353 q 206 739 63 578 q 551 900 350 900 q 669 881 614 900 l 724 983 l 764 974 l 768 957 l 715 860 q 847 728 799 815 q 894 531 894 642 q 748 144 894 304 q 397 -17 601 -17 q 267 8 332 -17 l 190 -136 l 153 -128 l 150 -114 l 224 29 q 105 160 147 75 q 63 353 63 244 m 432 49 q 676 170 579 49 q 774 482 774 292 q 665 767 774 672 l 307 85 q 432 49 363 49 m 511 824 q 272 701 368 824 q 176 395 176 578 q 269 117 176 213 l 625 794 q 511 824 571 824 m 731 1093 l 725 1079 q 439 976 585 1032 l 428 983 l 419 1017 l 696 1168 l 708 1160 l 731 1093 z "},"ǿ":{"ha":783,"x_min":65,"x_max":749,"o":"m 190 29 q 65 283 65 107 q 181 581 65 458 q 464 704 296 704 q 564 689 515 704 l 608 768 l 646 757 l 649 743 l 607 671 q 711 568 674 635 q 749 414 749 501 q 631 110 749 233 q 344 -12 514 -12 q 229 8 288 -12 l 163 -107 l 128 -97 l 125 -86 l 190 29 m 374 51 q 558 142 486 51 q 631 374 631 233 q 556 583 631 515 l 271 81 q 374 51 314 51 m 431 631 q 249 539 321 631 q 178 314 178 447 q 238 113 178 181 l 518 610 q 431 631 476 631 m 635 933 l 629 919 q 343 817 489 872 l 332 824 l 324 857 l 600 1008 l 613 1000 l 635 933 z "},"Ș":{"ha":707,"x_min":44,"x_max":669,"o":"m 267 -17 q 157 -6 211 -17 q 50 29 103 6 l 44 43 q 92 285 75 147 l 149 292 q 142 173 142 228 q 157 90 142 118 q 284 44 183 44 q 443 92 385 44 q 501 214 501 139 q 464 302 501 264 q 331 397 426 340 q 201 486 236 453 q 133 625 135 550 q 226 819 133 739 q 456 900 319 900 q 667 867 561 900 l 669 860 q 613 625 636 753 l 563 619 l 556 626 q 571 737 571 688 q 538 809 571 786 q 426 832 506 832 q 291 790 346 832 q 236 681 236 747 q 338 542 236 614 q 408 499 361 526 q 484 451 454 471 q 547 404 514 432 q 614 271 614 349 q 517 65 614 147 q 267 -17 419 -17 m 201 -129 q 281 -93 249 -93 q 335 -120 314 -93 q 357 -192 357 -147 q 304 -315 357 -260 q 179 -407 251 -369 l 154 -386 l 154 -372 q 226 -308 197 -346 q 254 -235 254 -269 q 199 -149 254 -182 l 201 -129 z "},"ș":{"ha":613,"x_min":47,"x_max":574,"o":"m 235 -12 q 74 14 140 -12 l 51 24 l 47 36 q 86 224 72 121 l 143 229 q 138 143 138 183 q 150 82 138 103 q 250 47 172 47 q 373 81 328 47 q 418 160 418 114 q 388 234 418 206 q 275 308 357 263 q 156 392 193 353 q 118 483 118 431 q 197 640 118 576 q 393 704 276 704 q 571 676 482 704 l 574 669 q 526 485 546 585 l 476 481 l 469 486 q 481 567 481 531 q 455 620 481 603 q 367 638 429 638 q 262 607 304 638 q 219 528 219 576 q 303 425 219 479 q 360 393 321 414 q 422 357 399 372 q 474 319 446 342 q 528 214 528 276 q 446 51 528 115 q 235 -12 364 -12 m 179 -129 q 259 -93 226 -93 q 313 -120 292 -93 q 335 -192 335 -147 q 282 -315 335 -260 q 157 -407 229 -369 l 132 -386 l 132 -372 q 203 -308 175 -346 q 232 -235 232 -269 q 176 -149 232 -182 l 179 -129 z "},"Ț":{"ha":731,"x_min":56,"x_max":763,"o":"m 763 890 q 754 742 754 794 l 754 663 l 693 657 q 691 728 692 706 q 681 774 690 750 q 664 806 672 799 q 627 822 656 813 q 572 832 599 831 q 488 836 546 833 q 423 452 467 738 q 379 128 379 167 q 394 74 379 90 q 444 57 410 57 l 521 61 l 524 56 l 504 -4 q 310 0 374 0 l 131 -6 l 147 50 q 265 86 242 60 q 303 225 289 113 l 376 836 q 285 832 313 833 q 224 822 257 831 q 181 807 190 814 q 156 776 171 800 q 135 731 140 751 q 117 663 129 711 l 56 657 q 104 890 86 775 l 118 900 l 224 885 l 638 885 l 751 900 l 763 890 m 232 -129 q 312 -93 279 -93 q 366 -120 344 -93 q 388 -192 388 -147 q 335 -315 388 -260 q 210 -407 282 -369 l 185 -386 l 185 -372 q 256 -308 228 -346 q 285 -235 285 -269 q 229 -149 285 -182 l 232 -129 z "},"ț":{"ha":633,"x_min":58,"x_max":650,"o":"m 343 108 q 397 53 343 53 l 458 56 l 461 51 l 444 -4 q 278 0 332 0 l 121 -6 l 135 47 q 231 74 213 54 q 261 176 250 94 l 318 639 q 185 625 210 636 q 119 503 147 607 l 58 497 q 97 694 83 600 l 110 704 l 201 692 l 542 692 l 640 704 l 650 694 l 642 503 l 581 497 q 556 617 579 599 q 425 639 532 636 q 376 353 410 565 q 343 108 343 142 m 204 -129 q 284 -93 251 -93 q 338 -120 317 -93 q 360 -192 360 -147 q 307 -315 360 -260 q 182 -407 254 -369 l 157 -386 l 157 -372 q 228 -308 200 -346 q 257 -235 257 -269 q 201 -149 257 -182 l 204 -129 z "},"ȷ":{"ha":389,"x_min":-6,"x_max":385,"o":"m 142 126 q 200 608 200 596 q 195 630 200 621 q 167 639 190 639 l 114 635 l 113 640 l 126 690 l 249 692 l 385 700 l 374 646 q 322 630 335 640 q 304 586 310 619 q 233 122 261 335 q 167 -54 219 13 q 11 -158 114 -121 l -6 -121 l -3 -111 q 99 -22 69 -71 q 142 126 129 28 z "},"ˆ":{"ha":531,"x_min":126,"x_max":517,"o":"m 143 733 l 126 764 l 338 976 l 357 976 l 517 764 l 493 733 l 481 732 l 335 867 l 156 732 l 143 733 z "},"ˇ":{"ha":531,"x_min":142,"x_max":549,"o":"m 142 953 l 168 985 l 179 986 q 332 846 244 919 q 519 986 468 944 l 531 985 l 549 953 q 326 731 457 864 l 308 731 q 142 953 221 854 z "},"˘":{"ha":531,"x_min":181,"x_max":504,"o":"m 215 947 q 333 856 239 856 q 472 947 428 856 l 485 947 l 504 933 q 435 821 481 867 q 324 775 389 775 q 223 821 258 775 q 181 933 188 867 l 204 947 l 215 947 z "},"˙":{"ha":531,"x_min":265,"x_max":415,"o":"m 415 922 q 415 906 415 922 q 388 863 415 890 q 328 836 361 836 q 281 854 296 836 q 265 903 265 872 q 292 962 265 935 q 351 989 318 989 q 400 971 385 989 q 415 922 415 953 z "},"˚":{"ha":531,"x_min":224,"x_max":444,"o":"m 329 808 q 396 871 396 808 q 335 929 396 929 q 287 913 304 929 q 269 867 269 896 q 288 823 269 838 q 329 808 307 808 m 444 884 q 444 861 444 884 q 408 797 444 838 q 321 756 371 756 q 247 781 271 756 q 224 857 224 807 q 260 945 224 907 q 349 983 297 983 q 422 957 400 983 q 444 884 444 931 z "},"˛":{"ha":531,"x_min":58,"x_max":336,"o":"m 192 -335 q 94 -304 131 -335 q 58 -227 58 -274 q 87 -136 58 -181 q 150 -58 115 -92 q 274 58 215 8 l 331 58 q 183 -93 218 -49 q 147 -176 147 -137 q 166 -234 147 -215 q 211 -253 185 -253 q 322 -221 258 -253 l 336 -247 q 192 -335 263 -311 z "},"˜":{"ha":531,"x_min":106,"x_max":564,"o":"m 244 931 q 342 908 268 931 q 433 885 417 885 q 511 942 463 885 l 528 961 l 536 961 l 564 932 l 563 925 l 446 801 l 424 796 q 326 819 400 796 q 237 842 253 842 q 197 822 221 842 q 142 765 174 803 l 132 765 l 106 794 l 107 801 l 224 925 l 244 931 z "},"˝":{"ha":531,"x_min":157,"x_max":588,"o":"m 410 922 l 407 910 q 192 742 301 833 l 179 744 l 157 769 l 351 979 l 364 975 l 410 922 m 588 922 l 585 910 q 369 742 479 833 l 357 744 l 335 769 l 529 979 l 542 975 l 588 922 z "},"̣":{"ha":525,"x_min":121,"x_max":285,"o":"m 285 -176 q 285 -193 285 -176 q 258 -239 285 -211 q 193 -267 231 -267 q 138 -247 156 -267 q 121 -192 121 -226 q 148 -130 121 -158 q 212 -101 175 -101 q 267 -121 249 -101 q 285 -176 285 -140 z "},"Δ":{"ha":722,"x_min":-25,"x_max":644,"o":"m -14 0 l -25 18 l 390 878 l 485 901 l 496 901 q 644 10 582 322 l 633 0 l -14 0 m 413 750 l 403 750 l 89 79 l 518 79 l 413 750 z "},"Ω":{"ha":1133,"x_min":43,"x_max":1067,"o":"m 43 14 q 49 124 49 68 q 46 235 49 179 l 100 242 q 126 113 101 147 q 215 78 150 78 l 336 78 q 215 247 258 149 q 172 446 172 344 q 309 768 172 635 q 638 901 446 901 q 897 806 796 901 q 997 567 997 711 q 920 292 997 422 q 715 78 843 163 l 856 78 q 951 110 919 78 q 1010 235 983 143 l 1067 242 q 1011 14 1025 114 l 988 -8 l 649 11 l 592 3 l 586 32 q 806 273 743 161 q 869 521 869 385 q 803 738 869 657 q 626 818 738 818 q 386 715 481 818 q 292 443 292 611 q 336 215 292 325 q 461 33 381 106 l 447 1 l 392 11 l 63 -8 l 43 14 z "},"π":{"ha":801,"x_min":35,"x_max":815,"o":"m 564 182 q 590 99 564 125 q 672 72 615 72 l 679 63 q 647 17 678 51 q 607 -17 615 -17 q 468 118 468 -17 q 472 165 468 140 q 528 574 528 554 q 515 604 528 594 q 430 614 501 614 q 342 603 358 614 q 317 544 325 593 q 238 31 269 286 l 225 -110 l 218 -119 l 115 -142 l 108 -125 q 167 203 118 -108 q 217 554 217 515 q 206 603 217 593 q 172 614 194 614 q 127 591 150 614 q 76 522 104 568 l 67 521 l 35 546 l 35 556 l 133 692 l 154 701 q 410 694 239 701 q 614 688 581 688 q 808 701 681 688 l 815 692 l 793 628 l 783 618 q 666 604 694 618 q 628 542 638 590 q 606 434 618 494 q 588 342 594 374 q 575 275 582 311 q 564 182 564 208 z "},"Ẁ":{"ha":1246,"x_min":56,"x_max":1308,"o":"m 376 129 q 633 667 381 139 q 618 744 628 681 q 506 826 601 822 l 504 832 l 521 888 q 664 883 625 883 q 863 900 738 883 l 864 890 l 853 839 q 750 822 772 833 q 728 779 728 810 q 817 129 728 718 l 825 129 q 889 265 842 165 q 970 436 936 364 q 1043 592 1004 508 q 1124 789 1124 764 q 1038 832 1124 832 l 971 832 l 968 838 l 985 894 q 1168 883 1083 883 l 1308 889 l 1292 826 q 1235 812 1253 824 q 1197 760 1217 800 l 822 7 l 743 -24 l 649 576 l 640 576 l 378 7 l 296 -24 q 168 747 236 376 q 58 826 154 825 l 56 832 l 71 888 q 218 883 176 883 q 413 900 301 883 l 415 890 l 406 839 q 303 822 326 833 q 281 775 281 810 q 368 129 281 717 l 376 129 m 528 1079 l 522 1093 l 544 1160 l 557 1168 q 833 1017 703 1085 l 825 983 l 814 976 l 528 1079 z "},"ẁ":{"ha":1058,"x_min":60,"x_max":1100,"o":"m 74 694 q 197 690 160 690 q 363 703 257 690 l 365 694 l 356 647 q 276 633 294 643 q 257 597 257 624 q 324 113 257 540 l 333 113 l 531 524 l 521 579 q 432 639 510 638 l 431 644 l 444 694 q 569 690 533 690 q 738 703 622 690 l 740 694 l 729 647 q 649 633 667 642 q 631 599 631 624 q 699 113 631 540 l 708 113 q 758 215 721 139 q 819 345 794 292 q 875 461 844 399 q 936 611 936 593 q 871 642 936 642 l 819 642 l 817 647 l 831 699 q 982 690 914 690 l 1100 694 l 1086 639 q 1041 626 1056 636 q 1011 586 1026 617 l 719 6 l 625 -18 l 553 426 l 546 426 l 347 6 l 251 -18 q 149 575 200 311 q 63 639 136 638 l 60 644 l 74 694 m 431 885 l 425 899 l 447 965 l 460 974 q 736 822 606 890 l 728 789 l 717 782 l 431 885 z "},"Ẃ":{"ha":1246,"x_min":56,"x_max":1308,"o":"m 376 129 q 633 667 381 139 q 618 744 628 681 q 506 826 601 822 l 504 832 l 521 888 q 664 883 625 883 q 863 900 738 883 l 864 890 l 853 839 q 750 822 772 833 q 728 779 728 810 q 817 129 728 718 l 825 129 q 889 265 842 165 q 970 436 936 364 q 1043 592 1004 508 q 1124 789 1124 764 q 1038 832 1124 832 l 971 832 l 968 838 l 985 894 q 1168 883 1083 883 l 1308 889 l 1292 826 q 1235 812 1253 824 q 1197 760 1217 800 l 822 7 l 743 -24 l 649 576 l 640 576 l 378 7 l 296 -24 q 168 747 236 376 q 58 826 154 825 l 56 832 l 71 888 q 218 883 176 883 q 413 900 301 883 l 415 890 l 406 839 q 303 822 326 833 q 281 775 281 810 q 368 129 281 717 l 376 129 m 949 1093 l 943 1079 q 657 976 803 1032 l 646 983 l 638 1017 l 914 1168 l 926 1160 l 949 1093 z "},"ẃ":{"ha":1058,"x_min":60,"x_max":1100,"o":"m 74 694 q 197 690 160 690 q 363 703 257 690 l 365 694 l 356 647 q 276 633 294 643 q 257 597 257 624 q 324 113 257 540 l 333 113 l 531 524 l 521 579 q 432 639 510 638 l 431 644 l 444 694 q 569 690 533 690 q 738 703 622 690 l 740 694 l 729 647 q 649 633 667 642 q 631 599 631 624 q 699 113 631 540 l 708 113 q 758 215 721 139 q 819 345 794 292 q 875 461 844 399 q 936 611 936 593 q 871 642 936 642 l 819 642 l 817 647 l 831 699 q 982 690 914 690 l 1100 694 l 1086 639 q 1041 626 1056 636 q 1011 586 1026 617 l 719 6 l 625 -18 l 553 426 l 546 426 l 347 6 l 251 -18 q 149 575 200 311 q 63 639 136 638 l 60 644 l 74 694 m 817 899 l 811 885 q 525 782 671 838 l 514 789 l 506 822 l 782 974 l 794 965 l 817 899 z "},"Ẅ":{"ha":1246,"x_min":56,"x_max":1308,"o":"m 376 129 q 633 667 381 139 q 618 744 628 681 q 506 826 601 822 l 504 832 l 521 888 q 664 883 625 883 q 863 900 738 883 l 864 890 l 853 839 q 750 822 772 833 q 728 779 728 810 q 817 129 728 718 l 825 129 q 889 265 842 165 q 970 436 936 364 q 1043 592 1004 508 q 1124 789 1124 764 q 1038 832 1124 832 l 971 832 l 968 838 l 985 894 q 1168 883 1083 883 l 1308 889 l 1292 826 q 1235 812 1253 824 q 1197 760 1217 800 l 822 7 l 743 -24 l 649 576 l 640 576 l 378 7 l 296 -24 q 168 747 236 376 q 58 826 154 825 l 56 832 l 71 888 q 218 883 176 883 q 413 900 301 883 l 415 890 l 406 839 q 303 822 326 833 q 281 775 281 810 q 368 129 281 717 l 376 129 m 904 1079 q 904 1066 904 1079 q 881 1030 904 1053 q 831 1007 858 1007 q 778 1060 778 1007 q 801 1113 778 1090 q 851 1136 824 1136 q 891 1121 878 1136 q 904 1079 904 1106 m 682 1079 q 682 1066 682 1079 q 659 1030 682 1053 q 608 1007 636 1007 q 556 1060 556 1007 q 578 1113 556 1090 q 628 1136 600 1136 q 669 1121 656 1136 q 682 1079 682 1106 z "},"ẅ":{"ha":1058,"x_min":60,"x_max":1100,"o":"m 74 694 q 197 690 160 690 q 363 703 257 690 l 365 694 l 356 647 q 276 633 294 643 q 257 597 257 624 q 324 113 257 540 l 333 113 l 531 524 l 521 579 q 432 639 510 638 l 431 644 l 444 694 q 569 690 533 690 q 738 703 622 690 l 740 694 l 729 647 q 649 633 667 642 q 631 599 631 624 q 699 113 631 540 l 708 113 q 758 215 721 139 q 819 345 794 292 q 875 461 844 399 q 936 611 936 593 q 871 642 936 642 l 819 642 l 817 647 l 831 699 q 982 690 914 690 l 1100 694 l 1086 639 q 1041 626 1056 636 q 1011 586 1026 617 l 719 6 l 625 -18 l 553 426 l 546 426 l 347 6 l 251 -18 q 149 575 200 311 q 63 639 136 638 l 60 644 l 74 694 m 572 885 q 572 872 572 885 q 549 835 572 858 q 499 813 526 813 q 446 865 446 813 q 468 919 446 896 q 518 942 490 942 q 559 926 546 942 q 572 885 572 911 m 794 885 q 794 872 794 885 q 772 835 794 858 q 721 813 749 813 q 668 865 668 813 q 691 919 668 896 q 741 942 714 942 q 781 926 768 942 q 794 885 794 911 z "},"Ỳ":{"ha":722,"x_min":39,"x_max":811,"o":"m 379 840 q 292 824 313 835 q 271 789 271 813 q 378 422 271 740 l 383 422 l 576 725 q 606 799 606 769 q 526 838 606 832 l 524 843 l 539 894 q 683 883 639 883 l 807 889 l 811 881 l 796 832 q 706 795 733 821 q 642 715 678 769 q 420 383 424 390 q 412 361 417 376 q 403 336 407 346 q 397 302 400 326 q 392 264 393 278 q 372 112 372 136 q 376 78 372 88 q 421 57 385 57 l 486 61 l 489 56 l 469 -4 q 318 0 361 0 q 153 -17 244 0 l 168 43 q 260 87 239 58 q 290 196 282 115 q 299 317 299 275 q 278 418 299 360 q 170 728 174 719 q 160 755 167 738 q 151 776 154 772 q 140 792 147 781 q 128 806 133 803 q 113 815 122 808 q 94 824 104 822 q 71 829 83 826 q 42 833 58 832 l 39 839 l 54 889 q 183 883 136 883 q 388 896 278 883 l 390 886 l 379 840 m 276 1079 l 271 1093 l 293 1160 l 306 1168 q 582 1017 451 1085 l 574 983 l 563 976 l 276 1079 z "},"ỳ":{"ha":640,"x_min":49,"x_max":696,"o":"m 463 699 l 588 690 l 692 694 l 696 688 l 682 642 q 582 581 622 631 q 474 429 560 554 q 383 296 388 304 q 376 281 379 288 q 369 263 372 275 q 365 245 367 251 q 361 222 364 239 q 357 197 358 206 q 344 94 344 113 q 351 65 344 76 q 386 53 357 53 l 440 56 l 442 51 l 426 -4 q 292 0 328 0 q 142 -12 219 0 l 156 42 q 233 74 215 53 q 258 156 251 96 q 264 247 264 217 q 246 321 264 276 l 171 521 q 123 616 142 597 q 51 642 104 635 l 49 647 l 63 694 q 186 690 138 690 l 347 700 l 350 692 l 340 649 q 272 636 289 644 q 256 612 256 628 q 269 553 256 596 q 339 343 283 506 l 346 343 l 490 563 q 514 619 514 597 q 451 646 514 642 l 449 651 l 463 699 m 226 885 l 221 899 l 243 965 l 256 974 q 532 822 401 890 l 524 789 l 513 782 l 226 885 z "},"–":{"ha":610,"x_min":-6,"x_max":628,"o":"m 608 314 l 0 311 l -6 324 l 17 392 q 391 390 217 390 q 622 399 565 390 l 628 385 l 608 314 z "},"—":{"ha":1221,"x_min":-6,"x_max":1239,"o":"m 1219 314 l 0 311 l -6 324 l 17 392 q 174 392 94 392 l 489 390 l 640 390 l 1232 399 l 1239 385 l 1219 314 z "},"‘":{"ha":238,"x_min":88,"x_max":290,"o":"m 243 624 q 163 588 196 588 q 109 615 131 588 q 88 686 88 642 q 140 809 88 754 q 265 901 193 864 l 290 881 l 290 867 q 219 802 247 840 q 190 729 190 764 q 246 643 190 676 l 243 624 z "},"’":{"ha":238,"x_min":57,"x_max":260,"o":"m 104 865 q 184 901 151 901 q 238 874 217 901 q 260 803 260 847 q 207 680 260 735 q 82 588 154 625 l 57 608 l 57 622 q 128 687 100 649 q 157 760 157 725 q 101 846 157 813 l 104 865 z "},"‚":{"ha":317,"x_min":-26,"x_max":193,"o":"m 42 101 q 121 138 89 138 q 173 109 153 138 q 193 19 193 81 q 135 -108 193 -43 q -1 -218 76 -172 l -26 -197 l -26 -183 q 53 -104 22 -150 q 83 -9 83 -58 q 39 82 83 40 l 42 101 z "}}}
